<svg width="60" height="60" viewBox="0 0 60 60" fill="none" xmlns="http://www.w3.org/2000/svg">
<path d="M59.102 37.2577C55.0947 53.3293 38.8152 63.1102 22.74 59.1024C6.67145 55.0956 -3.11052 38.8168 0.898653 22.7462C4.90408 6.67275 21.1836 -3.10913 37.2541 0.897746C53.3283 4.90462 63.1093 21.1852 59.102 37.2577Z" fill="#E49F4E"/>
<path d="M43.2272 25.7269C43.8244 21.735 40.785 19.5891 36.6291 18.1575L37.9772 12.75L34.6856 11.9297L33.3731 17.1947C32.5078 16.9791 31.6191 16.7757 30.7359 16.5741L32.0578 11.2744L28.7681 10.4541L27.4191 15.8597C26.7028 15.6966 25.9997 15.5354 25.3172 15.3657L25.3209 15.3488L20.7816 14.2154L19.9059 17.731C19.9059 17.731 22.3481 18.2907 22.2966 18.3254C23.6297 18.6582 23.8706 19.5404 23.8303 20.2397L22.2947 26.4C22.3866 26.4235 22.5056 26.4572 22.6369 26.5097C22.5272 26.4825 22.41 26.4525 22.2891 26.4235L20.1366 35.0532C19.9734 35.4582 19.56 36.0657 18.6281 35.835C18.6609 35.8829 16.2356 35.2379 16.2356 35.2379L14.6016 39.0057L18.885 40.0735C19.6819 40.2732 20.4628 40.4822 21.2316 40.6791L19.8694 46.1485L23.1572 46.9688L24.5063 41.5575C25.4044 41.8013 26.2763 42.0263 27.1294 42.2382L25.785 47.6241L29.0766 48.4444L30.4388 42.9854C36.0516 44.0475 40.2722 43.6191 42.0488 38.5425C43.4803 34.455 41.9775 32.0972 39.0244 30.5597C41.175 30.0638 42.795 28.6491 43.2272 25.7269ZM35.7066 36.2729C34.6894 40.3604 27.8072 38.1507 25.5759 37.5966L27.3834 30.3507C29.6147 30.9075 36.7697 32.01 35.7066 36.2729ZM36.7247 25.6679C35.7966 29.386 30.0684 27.4969 28.2103 27.0338L29.8491 20.4619C31.7072 20.925 37.6913 21.7894 36.7247 25.6679Z" fill="white"/>
</svg>
