<svg width="36" height="36" viewBox="0 0 36 36" fill="none" xmlns="http://www.w3.org/2000/svg">
<circle cx="18" cy="18" r="17.4375" fill="white"/>
<circle cx="18" cy="18" r="17.4375" stroke="#161717" stroke-width="1.125"/>
<circle cx="18" cy="18" r="17.4375" stroke="url(#paint0_linear_1034_11984)" stroke-width="1.125"/>
<g clip-path="url(#clip0_1034_11984)">
<path d="M22.6917 20.7212C25.2871 17.8052 26.3795 15.4517 26.7879 13.726C27.0241 12.7281 27.0286 11.9485 26.9679 11.4029C26.9444 11.1888 26.9037 10.977 26.8464 10.7695C26.8218 10.6817 26.7926 10.5953 26.7586 10.5107V10.5096C26.6765 10.3251 26.5696 10.2464 26.3626 10.1777C26.3032 10.1587 26.2432 10.1419 26.1826 10.1271C25.9718 10.076 25.7575 10.041 25.5414 10.0225C24.9901 9.97298 24.2026 9.98873 23.2014 10.234C21.4734 10.6547 19.1311 11.7449 16.2702 14.2885L13.5702 14.5562H13.5635C12.9147 14.6286 12.31 14.9198 11.849 15.382L9.16923 18.0662C9.08436 18.1517 9.02841 18.2616 9.00927 18.3806C8.99013 18.4995 9.00876 18.6214 9.06253 18.7292C9.1163 18.837 9.20251 18.9252 9.30903 18.9815C9.41555 19.0377 9.53702 19.0591 9.65636 19.0427L11.7894 18.7379C12.1044 18.6929 12.4554 18.7525 12.8637 18.8864C13.1247 18.9719 13.3554 19.0664 13.6006 19.1654L13.829 19.2587C14.0495 20.1767 14.5715 21.0362 15.2634 21.7281C15.953 22.4189 16.8114 22.9431 17.7282 23.1647L17.8205 23.392C17.9206 23.6372 18.0151 23.869 18.1006 24.1311C18.2334 24.5395 18.2941 24.8916 18.2491 25.2066L17.9442 27.3441C17.9281 27.4632 17.9497 27.5844 18.0059 27.6906C18.0621 27.7968 18.1502 27.8828 18.2577 27.9365C18.3652 27.9902 18.4868 28.009 18.6055 27.9901C18.7242 27.9712 18.8341 27.9157 18.9196 27.8312L21.5994 25.147C22.0606 24.6857 22.3509 24.0794 22.4229 23.4302L22.6929 20.7212H22.6917ZM22.8155 16.5599C21.9189 17.4599 20.6442 17.641 19.9715 16.9671C19.2987 16.2921 19.481 15.0175 20.3776 14.1186C21.2754 13.2197 22.5489 13.0386 23.2216 13.7125C23.8955 14.3864 23.7132 15.661 22.8166 16.5599H22.8155Z" fill="url(#paint1_linear_1034_11984)"/>
<path d="M14.8556 22.1362C15.453 22.7409 16.137 23.2534 16.8851 23.6572C15.6273 24.7901 11.3399 25.9387 11.1993 25.7981C11.0576 25.6552 12.0284 21.0854 13.2682 19.9706C13.6574 20.7468 14.2098 21.4893 14.8556 22.1362Z" fill="url(#paint2_linear_1034_11984)"/>
</g>
<defs>
<linearGradient id="paint0_linear_1034_11984" x1="20.4904" y1="9.8372" x2="-0.671081" y2="10.6537" gradientUnits="userSpaceOnUse">
<stop stop-color="#11CB79"/>
<stop offset="0.441316" stop-color="#11A692"/>
<stop offset="1" stop-color="#002366"/>
</linearGradient>
<linearGradient id="paint1_linear_1034_11984" x1="19.2464" y1="14.9177" x2="8.66644" y2="15.326" gradientUnits="userSpaceOnUse">
<stop stop-color="#11CB79"/>
<stop offset="0.441316" stop-color="#11A692"/>
<stop offset="1" stop-color="#002366"/>
</linearGradient>
<linearGradient id="paint2_linear_1034_11984" x1="14.4296" y1="21.5662" x2="11.0791" y2="21.6923" gradientUnits="userSpaceOnUse">
<stop stop-color="#11CB79"/>
<stop offset="0.441316" stop-color="#11A692"/>
<stop offset="1" stop-color="#002366"/>
</linearGradient>
<clipPath id="clip0_1034_11984">
<rect width="18" height="18" fill="white" transform="translate(9 10)"/>
</clipPath>
</defs>
</svg>
