<svg width="20" height="20" viewBox="0 0 20 20" fill="none" xmlns="http://www.w3.org/2000/svg">
    <path d="M4.16667 17.0817C3.70833 17.0817 3.31583 16.9186 2.98917 16.5925C2.66306 16.2659 2.5 15.8734 2.5 15.415V3.74837C2.5 3.29004 2.66306 2.89782 2.98917 2.57171C3.31583 2.24504 3.70833 2.08171 4.16667 2.08171H5V1.22754C5 0.991428 5.07972 0.796984 5.23917 0.644206C5.39917 0.491428 5.59722 0.415039 5.83333 0.415039C6.06944 0.415039 6.2675 0.494761 6.4275 0.654206C6.58694 0.814206 6.66667 1.01226 6.66667 1.24837V2.08171H13.3333V1.22754C13.3333 0.991428 13.4133 0.796984 13.5733 0.644206C13.7328 0.491428 13.9306 0.415039 14.1667 0.415039C14.4028 0.415039 14.6006 0.494761 14.76 0.654206C14.92 0.814206 15 1.01226 15 1.24837V2.08171H15.8333C16.2917 2.08171 16.6842 2.24504 17.0108 2.57171C17.3369 2.89782 17.5 3.29004 17.5 3.74837V15.415C17.5 15.8734 17.3369 16.2659 17.0108 16.5925C16.6842 16.9186 16.2917 17.0817 15.8333 17.0817H4.16667ZM4.16667 15.415H15.8333V7.08171H4.16667V15.415Z" fill="#B3B3B3"/>
</svg>
