<svg width="30" height="30" viewBox="0 0 30 30" fill="none" xmlns="http://www.w3.org/2000/svg">
<path d="M15.0009 17.2944L16.7953 19.0889C16.9842 19.262 17.2087 19.3486 17.4687 19.3486C17.7281 19.3486 17.9444 19.262 18.1175 19.0889C18.3064 18.9 18.4009 18.6755 18.4009 18.4155C18.4009 18.1561 18.3064 17.9398 18.1175 17.7667L16.3231 15.9722L18.1175 14.1778C18.3064 13.9889 18.4009 13.7644 18.4009 13.5044C18.4009 13.245 18.3064 13.0287 18.1175 12.8556C17.9444 12.6667 17.7281 12.5722 17.4687 12.5722C17.2087 12.5722 16.9842 12.6667 16.7953 12.8556L15.0009 14.65L13.2064 12.8556C13.0333 12.6667 12.817 12.5722 12.5576 12.5722C12.2976 12.5722 12.0731 12.6667 11.8842 12.8556C11.7111 13.0287 11.6245 13.245 11.6245 13.5044C11.6245 13.7644 11.7111 13.9889 11.8842 14.1778L13.6786 15.9722L11.8842 17.7667C11.7111 17.9398 11.6245 18.1561 11.6245 18.4155C11.6245 18.6755 11.7111 18.9 11.8842 19.0889C12.0731 19.262 12.2976 19.3486 12.5576 19.3486C12.817 19.3486 13.0333 19.262 13.2064 19.0889L15.0009 17.2944ZM10.2786 24C9.7592 24 9.31468 23.8152 8.94509 23.4456C8.57487 23.0754 8.38976 22.6306 8.38976 22.1111V9.83333C8.12216 9.83333 7.8977 9.74298 7.71637 9.56228C7.53566 9.38094 7.44531 9.15648 7.44531 8.88889C7.44531 8.6213 7.53566 8.39683 7.71637 8.2155C7.8977 8.0348 8.12216 7.94444 8.38976 7.94444H12.1675C12.1675 7.67685 12.2582 7.45239 12.4395 7.27106C12.6202 7.09035 12.8444 7 13.112 7H16.8898C17.1573 7 17.3818 7.09035 17.5631 7.27106C17.7438 7.45239 17.8342 7.67685 17.8342 7.94444H21.612C21.8796 7.94444 22.1037 8.0348 22.2844 8.2155C22.4658 8.39683 22.5564 8.6213 22.5564 8.88889C22.5564 9.15648 22.4658 9.38094 22.2844 9.56228C22.1037 9.74298 21.8796 9.83333 21.612 9.83333V22.1111C21.612 22.6306 21.4272 23.0754 21.0576 23.4456C20.6874 23.8152 20.2425 24 19.7231 24H10.2786Z" fill="#B3B3B3"/>
<rect x="1" y="1" width="28" height="28" rx="4" stroke="#E6E6E6"/>
</svg>
