<svg width="30" height="30" viewBox="0 0 30 30" fill="none" xmlns="http://www.w3.org/2000/svg">
<path d="M8.78947 23.9475C8.29737 23.9475 7.87625 23.7724 7.52611 23.4223C7.17537 23.0715 7 22.6501 7 22.158V7.84221C7 7.3501 7.17537 6.92868 7.52611 6.57794C7.87625 6.2278 8.29737 6.05273 8.78947 6.05273H15.9474L21.3158 11.4212V14.1948L14.1579 21.3304V23.9475H8.78947ZM15.9474 23.9475V22.0462L20.5553 17.4159L22.4789 19.2948L17.8487 23.9475H15.9474ZM23.1276 18.6685L21.2263 16.7672L21.8526 16.1409C22.0316 15.9619 22.2478 15.8725 22.5013 15.8725C22.7548 15.8725 22.9636 15.9619 23.1276 16.1409L23.7539 16.7896C23.918 16.9685 24 17.1809 24 17.4266C24 17.673 23.918 17.8782 23.7539 18.0422L23.1276 18.6685ZM15.0526 12.3159H19.5263L15.0526 7.84221V12.3159Z" fill="#B3B3B3"/>
<rect x="1" y="1" width="28" height="28" rx="4" stroke="#E6E6E6"/>
</svg>
