<svg width="50" height="50" viewBox="0 0 50 50" fill="none" xmlns="http://www.w3.org/2000/svg">
<circle cx="25" cy="25" r="24" stroke="#161717" stroke-width="2"/>
<circle cx="25" cy="25" r="24" stroke="url(#paint0_linear_408_63953)" stroke-width="2"/>
<path fill-rule="evenodd" clip-rule="evenodd" d="M26.0723 13.322C25.2966 12.892 24.3541 12.892 23.5784 13.322L15.3253 17.8963C14.5074 18.3496 14 19.211 14 20.1461V29.1156C14 30.0507 14.5074 30.9121 15.3253 31.3654L23.5784 35.9397C24.3541 36.3696 25.2966 36.3696 26.0723 35.9397L34.3253 31.3654C35.1432 30.9121 35.6506 30.0507 35.6506 29.1156V20.1461C35.6506 19.211 35.1432 18.3496 34.3253 17.8963L26.0723 13.322ZM18.8468 22.2619C18.6852 22.033 18.394 21.9351 18.1269 22.0199C17.8598 22.1046 17.6783 22.3526 17.6783 22.6328V28.0988C17.6783 28.454 17.9663 28.7419 18.3214 28.7419C18.6766 28.7419 18.9645 28.454 18.9645 28.0988V24.6589L21.6544 28.4697C21.816 28.6986 22.1073 28.7965 22.3743 28.7118C22.6414 28.627 22.8229 28.3791 22.8229 28.0988V22.6328C22.8229 22.2776 22.535 21.9897 22.1798 21.9897C21.8246 21.9897 21.5367 22.2776 21.5367 22.6328V26.0727L18.8468 22.2619ZM24.7521 21.9897C24.3969 21.9897 24.109 22.2776 24.109 22.6328V25.3658V28.0988C24.109 28.454 24.3969 28.7419 24.7521 28.7419C25.1072 28.7419 25.3951 28.454 25.3951 28.0988V26.0089H27.0028C27.3579 26.0089 27.6459 25.721 27.6459 25.3658C27.6459 25.0107 27.3579 24.7227 27.0028 24.7227H25.3951V23.2759H27.6459C28.001 23.2759 28.2889 22.9879 28.2889 22.6328C28.2889 22.2776 28.001 21.9897 27.6459 21.9897H24.7521ZM29.8966 21.9897C29.5414 21.9897 29.2535 22.2776 29.2535 22.6328C29.2535 22.9879 29.5414 23.2759 29.8966 23.2759H30.8612V28.0988C30.8612 28.454 31.1491 28.7419 31.5043 28.7419C31.8594 28.7419 32.1473 28.454 32.1473 28.0988V23.2759H33.1119C33.4671 23.2759 33.755 22.9879 33.755 22.6328C33.755 22.2776 33.4671 21.9897 33.1119 21.9897H31.5043H29.8966Z" fill="#161717"/>
<path fill-rule="evenodd" clip-rule="evenodd" d="M26.0723 13.322C25.2966 12.892 24.3541 12.892 23.5784 13.322L15.3253 17.8963C14.5074 18.3496 14 19.211 14 20.1461V29.1156C14 30.0507 14.5074 30.9121 15.3253 31.3654L23.5784 35.9397C24.3541 36.3696 25.2966 36.3696 26.0723 35.9397L34.3253 31.3654C35.1432 30.9121 35.6506 30.0507 35.6506 29.1156V20.1461C35.6506 19.211 35.1432 18.3496 34.3253 17.8963L26.0723 13.322ZM18.8468 22.2619C18.6852 22.033 18.394 21.9351 18.1269 22.0199C17.8598 22.1046 17.6783 22.3526 17.6783 22.6328V28.0988C17.6783 28.454 17.9663 28.7419 18.3214 28.7419C18.6766 28.7419 18.9645 28.454 18.9645 28.0988V24.6589L21.6544 28.4697C21.816 28.6986 22.1073 28.7965 22.3743 28.7118C22.6414 28.627 22.8229 28.3791 22.8229 28.0988V22.6328C22.8229 22.2776 22.535 21.9897 22.1798 21.9897C21.8246 21.9897 21.5367 22.2776 21.5367 22.6328V26.0727L18.8468 22.2619ZM24.7521 21.9897C24.3969 21.9897 24.109 22.2776 24.109 22.6328V25.3658V28.0988C24.109 28.454 24.3969 28.7419 24.7521 28.7419C25.1072 28.7419 25.3951 28.454 25.3951 28.0988V26.0089H27.0028C27.3579 26.0089 27.6459 25.721 27.6459 25.3658C27.6459 25.0107 27.3579 24.7227 27.0028 24.7227H25.3951V23.2759H27.6459C28.001 23.2759 28.2889 22.9879 28.2889 22.6328C28.2889 22.2776 28.001 21.9897 27.6459 21.9897H24.7521ZM29.8966 21.9897C29.5414 21.9897 29.2535 22.2776 29.2535 22.6328C29.2535 22.9879 29.5414 23.2759 29.8966 23.2759H30.8612V28.0988C30.8612 28.454 31.1491 28.7419 31.5043 28.7419C31.8594 28.7419 32.1473 28.454 32.1473 28.0988V23.2759H33.1119C33.4671 23.2759 33.755 22.9879 33.755 22.6328C33.755 22.2776 33.4671 21.9897 33.1119 21.9897H31.5043H29.8966Z" fill="url(#paint1_linear_408_63953)"/>
<defs>
<linearGradient id="paint0_linear_408_63953" x1="28.3205" y1="14.1163" x2="0.105225" y2="15.2049" gradientUnits="userSpaceOnUse">
<stop stop-color="#11CB79"/>
<stop offset="0.441316" stop-color="#11A692"/>
<stop offset="1" stop-color="#002366"/>
</linearGradient>
<linearGradient id="paint1_linear_408_63953" x1="26.323" y1="19.3562" x2="13.5939" y2="19.8133" gradientUnits="userSpaceOnUse">
<stop stop-color="#11CB79"/>
<stop offset="0.441316" stop-color="#11A692"/>
<stop offset="1" stop-color="#002366"/>
</linearGradient>
</defs>
</svg>
