<svg width="80" height="72" viewBox="0 0 80 72" fill="none" xmlns="http://www.w3.org/2000/svg">
<g clip-path="url(#clip0_1031_22701)">
<path fill-rule="evenodd" clip-rule="evenodd" d="M71.2091 0.516613L71.2092 0.516644L71.2093 0.516679C71.676 0.671189 72.1426 0.825705 72.596 1.01263C76.2455 2.51714 78.539 5.30249 79.9838 8.88107C79.9991 8.94498 80.0046 9.01166 79.9991 9.07695C79.6427 8.9586 79.2892 8.83343 78.9365 8.70853L78.9364 8.70849C78.163 8.43465 77.3933 8.16212 76.6053 7.96559C69.7343 6.24437 63.933 8.6977 60.1446 14.7921C58.3192 17.7289 57.4329 20.9755 56.8675 24.3096C56.5344 26.2746 56.3646 28.2683 56.195 30.2605C56.1467 30.8273 56.0985 31.394 56.0465 31.9599C56.002 32.4419 55.8825 32.6795 55.3991 32.8254C52.6374 33.6492 49.7978 34.1882 46.925 34.4341C46.925 34.1115 46.9242 33.7941 46.9234 33.4802C46.9219 32.8628 46.9204 32.2589 46.925 31.6557C46.9833 25.8905 47.9335 20.2642 49.8881 14.8463C51.4051 10.5884 54.0488 6.82089 57.5371 3.94663C58.2914 3.32149 60.71 1.60165 64.2441 0.56392C64.6067 0.456952 64.9137 0.377767 65.1305 0.324977C66.9211 -0.101508 68.7868 -0.108454 70.5803 0.305529H70.5817C70.79 0.377846 70.9996 0.447229 71.2091 0.516613ZM24.0143 71.6984L24.0143 71.6983C23.9985 71.4965 23.9826 71.2947 23.9826 71.0929C23.9826 63.0591 23.9868 55.0254 23.9937 46.9916C23.9937 46.3845 23.8465 46.1192 23.2241 45.9442C18.8537 44.7175 14.8028 42.8407 11.3464 39.8317C8.75834 37.5853 6.68703 34.9403 5.43536 31.7201C2.82783 25.0158 5.52983 18.3171 12.141 14.9927C12.2063 14.965 12.273 14.9455 12.3425 14.933C12.2516 15.3752 12.1512 15.8148 12.0511 16.2536L12.0511 16.2537C11.8328 17.2101 11.6154 18.1624 11.4992 19.127C10.7546 25.2798 13.0385 30.0267 18.291 33.3163C21.7099 35.4571 25.5288 36.4795 29.463 37.0797C36.0659 38.0688 42.7757 38.1271 49.3953 37.2491C53.4337 36.7296 57.3568 35.7724 60.959 33.7761C67.6341 30.0767 69.8277 23.8447 68.1328 16.8723C68.0275 16.438 67.9006 16.0087 67.7641 15.547L67.764 15.5469C67.6989 15.3264 67.6315 15.0986 67.5633 14.8594C69.1553 15.5706 70.6001 16.5723 71.824 17.8142C75.9277 21.9318 76.7403 27.6914 73.9425 33.1843C71.5406 37.8993 67.7828 41.2528 63.065 43.5131C61.2995 44.3567 59.4377 45.01 57.5831 45.6608C57.2999 45.7602 57.0169 45.8595 56.7344 45.9594C56.1788 46.1553 56.0398 46.3762 56.0398 46.9222C56.0551 54.9795 56.0579 63.0369 56.0482 71.0943C56.0482 71.2991 56.0325 71.5039 56.0168 71.7088C56.0096 71.8026 56.0024 71.8965 55.9968 71.9903H46.9572C46.9534 71.8988 46.9487 71.8072 46.944 71.7157L46.944 71.7156C46.9332 71.5072 46.9225 71.299 46.9225 71.0915V48.8782V47.9641C42.327 48.3989 37.701 48.4017 33.1041 47.9724V48.9448V71.0887C33.1041 71.2916 33.0932 71.4952 33.0823 71.6989C33.0771 71.7951 33.072 71.8913 33.068 71.9875L24.0354 71.9889C24.0295 71.8921 24.0219 71.7953 24.0143 71.6984ZM19.6209 2.12004C18.7467 1.59665 17.1704 0.652851 15.0062 0.306679L14.9103 0.292787C14.7631 0.273338 14.613 0.263614 14.4644 0.263614C13.8392 0.209435 13.1363 0.158034 12.3667 0.117747C12.3667 0.117747 10.6774 0.0302277 9.7647 0.262224L9.53132 0.326128C9.38128 0.367804 9.3021 0.39281 9.21875 0.420594C9.19374 0.431707 9.16735 0.440042 9.14095 0.446988C4.78719 1.56113 2.00323 4.434 0.216716 8.41823C0.147928 8.57349 0.0965191 8.7364 0.0521618 8.87696C0.0338113 8.93511 0.0166677 8.98944 0 9.03782C0.45565 8.90072 0.905348 8.75371 1.35258 8.6075C2.3057 8.29591 3.24762 7.98799 4.21206 7.78753C9.6369 6.66367 14.2879 8.05982 17.9957 12.2608C20.2824 14.8488 21.6716 17.8829 22.5051 21.217C23.3886 24.7664 23.8957 28.3977 24.0193 32.0527C24.0276 32.2833 24.2152 32.6487 24.4 32.7112C27.1686 33.6489 30.0304 34.1449 33.013 34.4227C33.0201 34.3331 33.0278 34.2483 33.0352 34.1666C33.0497 34.0077 33.0631 33.8605 33.0686 33.7128C33.1978 30.5663 33.0033 27.4156 32.4893 24.3093C31.7683 20.0139 30.8959 15.7546 28.7982 11.8648C28.7982 11.8648 25.3099 5.53147 19.6294 2.12514L19.6209 2.12004Z" fill="#F7F7F7"/>
</g>
<defs>
<clipPath id="clip0_1031_22701">
<rect width="80.0007" height="72" fill="white"/>
</clipPath>
</defs>
</svg>
