<svg width="50" height="50" viewBox="0 0 50 50" fill="none" xmlns="http://www.w3.org/2000/svg">
<circle cx="25" cy="25" r="24" stroke="#161717" stroke-width="2"/>
<circle cx="25" cy="25" r="24" stroke="url(#paint0_linear_391_57984)" stroke-width="2"/>
<path d="M24 29V21C24 20.4696 24.2107 19.9609 24.5858 19.5858C24.9609 19.2107 25.4696 19 26 19H35V18C35 16.9 34.1 16 33 16H19C18.4696 16 17.9609 16.2107 17.5858 16.5858C17.2107 16.9609 17 17.4696 17 18V32C17 32.5304 17.2107 33.0391 17.5858 33.4142C17.9609 33.7893 18.4696 34 19 34H33C34.1 34 35 33.1 35 32V31H26C25.4696 31 24.9609 30.7893 24.5858 30.4142C24.2107 30.0391 24 29.5304 24 29ZM27 21C26.45 21 26 21.45 26 22V28C26 28.55 26.45 29 27 29H36V21H27ZM30 26.5C29.17 26.5 28.5 25.83 28.5 25C28.5 24.17 29.17 23.5 30 23.5C30.83 23.5 31.5 24.17 31.5 25C31.5 25.83 30.83 26.5 30 26.5Z" fill="#161717"/>
<path d="M24 29V21C24 20.4696 24.2107 19.9609 24.5858 19.5858C24.9609 19.2107 25.4696 19 26 19H35V18C35 16.9 34.1 16 33 16H19C18.4696 16 17.9609 16.2107 17.5858 16.5858C17.2107 16.9609 17 17.4696 17 18V32C17 32.5304 17.2107 33.0391 17.5858 33.4142C17.9609 33.7893 18.4696 34 19 34H33C34.1 34 35 33.1 35 32V31H26C25.4696 31 24.9609 30.7893 24.5858 30.4142C24.2107 30.0391 24 29.5304 24 29ZM27 21C26.45 21 26 21.45 26 22V28C26 28.55 26.45 29 27 29H36V21H27ZM30 26.5C29.17 26.5 28.5 25.83 28.5 25C28.5 24.17 29.17 23.5 30 23.5C30.83 23.5 31.5 24.17 31.5 25C31.5 25.83 30.83 26.5 30 26.5Z" fill="url(#paint1_linear_391_57984)"/>
<defs>
<linearGradient id="paint0_linear_391_57984" x1="28.3205" y1="14.1163" x2="0.105225" y2="15.2049" gradientUnits="userSpaceOnUse">
<stop stop-color="#11CB79"/>
<stop offset="0.441316" stop-color="#11A692"/>
<stop offset="1" stop-color="#002366"/>
</linearGradient>
<linearGradient id="paint1_linear_391_57984" x1="27.8144" y1="20.9186" x2="16.6477" y2="21.3734" gradientUnits="userSpaceOnUse">
<stop stop-color="#11CB79"/>
<stop offset="0.441316" stop-color="#11A692"/>
<stop offset="1" stop-color="#002366"/>
</linearGradient>
</defs>
</svg>
