<svg width="60" height="60" viewBox="0 0 60 60" fill="none" xmlns="http://www.w3.org/2000/svg">
<path d="M51.1327 51.3572C48.3404 54.1549 45.0145 56.3613 41.353 57.8452C37.6915 59.3291 33.7692 60.0601 29.8197 59.9946C25.8931 60.0705 21.9922 59.3437 18.3555 57.8586C14.7189 56.3734 11.423 54.1612 8.66921 51.3572C5.85114 48.6096 3.62782 45.3108 2.13755 41.6659C0.647277 38.021 -0.0780632 34.108 0.0066509 30.1703C0.0066509 21.5476 2.89417 14.3646 8.66921 8.62106C11.4249 5.82101 14.7217 3.61291 18.3582 2.13164C21.9947 0.650368 25.8946 -0.0729708 29.8197 0.00580812C33.7676 -0.0625558 37.6889 0.664924 41.3504 2.14497C45.0118 3.62501 48.3386 5.82739 51.1327 8.62106C57.0407 14.3646 59.9947 21.5476 59.9947 30.1703C60.0712 34.1249 59.3226 38.052 57.7966 41.7002C56.2706 45.3485 54.0009 48.6376 51.1327 51.3572Z" fill="#6C7DDC"/>
<path d="M30 9.42871L18 29.878L30 24.274V9.42871Z" fill="#DFE2F4"/>
<path d="M30 24.2749L18 29.8789L30 37.1593V24.2749Z" fill="#D3D8EA"/>
<path d="M30 9.42871V24.274L41.9885 29.878L30 9.42871Z" fill="#C8CEE1"/>
<path d="M30 24.2749V37.1593L41.9885 29.8789L30 24.2749Z" fill="#C5C8D8"/>
<path d="M18 32.2119L30 49.5807V39.4983L18 32.2119Z" fill="#DADEF2"/>
<path d="M42 32.2119L30 39.4983V49.5807L42 32.2119Z" fill="#C8CEE1"/>
</svg>
