<svg width="16" height="16" viewBox="0 0 16 16" fill="none" xmlns="http://www.w3.org/2000/svg">
<path d="M15.9874 8.01487C15.9943 3.60508 12.4239 0.0233545 8.01264 0.0148647C3.60134 0.00637493 0.0196179 3.57433 0.0126381 7.98412C0.00565825 12.3939 3.57606 15.9756 7.98736 15.9841C12.3987 15.9926 15.9804 12.4247 15.9874 8.01487Z" fill="#B3B3B3"/>
<path d="M6.70539 12.9865C6.70539 13.1667 6.588 13.2297 6.41192 13.2297C5.34561 12.8767 4.4149 12.1781 3.75497 11.2353C3.09504 10.2925 2.74027 9.15462 2.7422 7.98699C2.74412 6.81937 3.10264 5.68279 3.76567 4.74236C4.42871 3.80193 5.36172 3.10664 6.42919 2.75748C6.60181 2.69802 6.72265 2.81874 6.72092 3.00253V3.43677C6.72222 3.49928 6.70675 3.56093 6.67624 3.61474C6.64574 3.66855 6.60142 3.71238 6.5483 3.74128C5.70865 4.05674 4.98247 4.63451 4.46855 5.396C3.95463 6.15749 3.6779 7.06573 3.67602 7.99719C3.67413 8.92865 3.94717 9.8381 4.45801 10.6019C4.96884 11.3656 5.69266 11.9466 6.53103 12.2657C6.58429 12.2945 6.62872 12.3383 6.65925 12.3921C6.68978 12.446 6.70516 12.5077 6.70366 12.5703L6.70539 12.9865Z" fill="white"/>
<path d="M8.45924 11.4729C8.45725 11.5376 8.4323 11.5993 8.38925 11.6459C8.34619 11.6925 8.28809 11.7208 8.2262 11.7252H7.75838C7.69763 11.7209 7.64045 11.6937 7.59755 11.6486C7.55465 11.6035 7.52898 11.5436 7.52534 11.4801V10.7594C6.58971 10.6351 6.12363 10.0873 5.94928 9.29452C5.94928 9.1738 6.00969 9.05127 6.1219 9.05127H6.64841C6.76407 9.05127 6.82103 9.11253 6.88145 9.23145C6.99711 9.65849 7.2267 10.0243 7.9897 10.0261C8.57317 10.0261 8.9823 9.72335 8.98402 9.23686C8.98575 8.75037 8.75098 8.56658 7.93446 8.44225C6.7071 8.26207 6.12363 7.89089 6.12535 6.85664C6.12535 6.06564 6.71228 5.45662 7.53052 5.3377V4.59174C7.5342 4.52848 7.55994 4.46882 7.60287 4.42401C7.6458 4.3792 7.70296 4.35234 7.76356 4.34849H8.23138C8.29198 4.35234 8.34914 4.3792 8.39207 4.42401C8.435 4.46882 8.46074 4.52848 8.46442 4.59174V5.32328C9.16528 5.44581 9.63136 5.87284 9.74702 6.54312C9.74702 6.66384 9.68833 6.78637 9.5744 6.78637H9.11004C8.99265 6.78637 8.93741 6.72511 8.87699 6.60619C8.76133 6.17915 8.4696 5.99537 7.94309 5.99537C7.35962 5.99537 7.06616 6.29807 7.06616 6.7161C7.06616 7.13412 7.23878 7.38638 8.11572 7.51071C9.34135 7.69089 9.92483 8.06207 9.9231 9.09632C9.9231 9.88732 9.3379 10.5558 8.46097 10.7378L8.45924 11.4729Z" fill="white"/>
<path d="M9.27401 12.9973C9.27401 13.1793 9.39312 13.3018 9.56575 13.2405C10.6331 12.8908 11.5661 12.1956 12.2296 11.2555C12.8932 10.3154 13.2528 9.17928 13.2565 8.01161C13.2599 5.57734 11.6873 3.50343 9.58646 2.76829C9.41038 2.76829 9.293 2.83135 9.293 3.01153V3.43857C9.29169 3.50108 9.30717 3.56273 9.33767 3.61654C9.36818 3.67035 9.4125 3.71418 9.46562 3.74308C10.3039 4.06243 11.0276 4.64355 11.5383 5.40742C12.049 6.17128 12.3219 7.0808 12.3198 8.01226C12.3177 8.94371 12.0408 9.8519 11.5267 10.6133C11.0126 11.3746 10.2863 11.9523 9.44664 12.2675C9.39351 12.296 9.34915 12.3394 9.31862 12.393C9.28808 12.4465 9.27262 12.508 9.27401 12.5702V12.9973Z" fill="white"/>
</svg>
