<svg width="60" height="60" viewBox="0 0 60 60" fill="none" xmlns="http://www.w3.org/2000/svg">
<path d="M59.9526 30.0582C59.9788 13.5215 46.5898 0.0900186 30.0474 0.058182C13.505 0.0263453 0.073567 13.4062 0.0473927 29.9429C0.0212184 46.4796 13.4102 59.9111 29.9526 59.9429C46.495 59.9747 59.9264 46.5949 59.9526 30.0582Z" fill="#3574B9"/>
<path d="M25.1481 48.7018C25.1481 49.3775 24.7079 49.614 24.0476 49.614C20.049 48.2902 16.5588 45.6703 14.0841 42.1348C11.6093 38.5993 10.279 34.3323 10.2862 29.9537C10.2934 25.5751 11.6378 21.313 14.1242 17.7864C16.6106 14.2598 20.1094 11.6524 24.1124 10.343C24.7597 10.1201 25.2129 10.5728 25.2064 11.262V12.8904C25.2113 13.1248 25.1532 13.356 25.0388 13.5578C24.9244 13.7596 24.7583 13.9239 24.559 14.0323C21.4104 15.2153 18.6872 17.3819 16.76 20.2375C14.8328 23.0931 13.7951 26.499 13.788 29.992C13.7809 33.4849 14.8048 36.8954 16.7205 39.7595C18.6361 42.6235 21.3504 44.8022 24.4943 45.999C24.694 46.1068 24.8606 46.271 24.9751 46.4729C25.0896 46.6749 25.1473 46.9064 25.1417 47.1409L25.1481 48.7018Z" fill="white"/>
<path d="M31.7251 43.026C31.7176 43.2687 31.6241 43.4998 31.4626 43.6746C31.3011 43.8494 31.0833 43.9553 30.8512 43.972H29.0969C28.869 43.9559 28.6546 43.8538 28.4938 43.6846C28.3329 43.5155 28.2366 43.2909 28.223 43.053V40.3503C24.7144 39.8841 22.9665 37.83 22.3127 34.8569C22.3127 34.4042 22.5393 33.9448 22.9601 33.9448H24.9345C25.3682 33.9448 25.5818 34.1745 25.8084 34.6205C26.2421 36.2218 27.1031 37.5935 29.9643 37.6002C32.1523 37.6002 33.6865 36.4651 33.693 34.6407C33.6995 32.8164 32.8191 32.1272 29.7572 31.6609C25.1545 30.9853 22.9665 29.5933 22.973 25.7149C22.973 22.7486 25.174 20.4648 28.2424 20.0189V17.2215C28.2562 16.9843 28.3527 16.7606 28.5137 16.5925C28.6747 16.4245 28.889 16.3238 29.1163 16.3093H30.8706C31.0978 16.3238 31.3122 16.4245 31.4732 16.5925C31.6342 16.7606 31.7307 16.9843 31.7445 17.2215V19.9648C34.3727 20.4243 36.1205 22.0257 36.5543 24.5392C36.5543 24.9919 36.3342 25.4514 35.9069 25.4514H34.1656C33.7254 25.4514 33.5182 25.2217 33.2917 24.7757C32.8579 23.1743 31.7639 22.4851 29.7895 22.4851C27.6015 22.4851 26.501 23.6203 26.501 25.1879C26.501 26.7555 27.1484 27.7014 30.4369 28.1676C35.033 28.8433 37.221 30.2353 37.2146 34.1137C37.2146 37.08 35.0201 39.5867 31.7316 40.2692L31.7251 43.026Z" fill="white"/>
<path d="M34.7805 48.7423C34.7805 49.4247 35.2271 49.8842 35.8745 49.6545C39.877 48.3432 43.3758 45.736 45.8641 42.2107C48.3524 38.6854 49.701 34.4248 49.7147 30.046C49.7276 20.9175 43.8303 13.1404 35.9522 10.3836C35.2919 10.3836 34.8517 10.6201 34.8517 11.2958V12.8971C34.8468 13.1315 34.9048 13.3627 35.0192 13.5645C35.1336 13.7663 35.2998 13.9307 35.499 14.039C38.6426 15.2366 41.3566 17.4158 43.2716 20.2803C45.1867 23.1448 46.2099 26.5555 46.2021 30.0485C46.1943 33.5414 45.1559 36.9471 43.2281 39.8023C41.3003 42.6574 38.5767 44.8235 35.4278 46.0058C35.2286 46.1124 35.0622 46.2754 34.9477 46.4762C34.8332 46.6769 34.7753 46.9073 34.7805 47.1409V48.7423Z" fill="white"/>
</svg>
