<svg width="479" height="222" viewBox="0 0 479 222" fill="none" xmlns="http://www.w3.org/2000/svg">
    <g clip-path="url(#clip0_1012_7750)">
        <path opacity="0.25" d="M478.86 79.978L476.931 79.2789L478.86 79.486V78.7869L471.156 77.9453L478.86 80.7289V79.978Z" fill="#00A873"/>
        <path opacity="0.25" d="M478.858 131.546L456.602 120.761L478.858 103.166V102.26L455.281 120.904L478.858 132.336V131.546Z" fill="#00A873"/>
        <path opacity="0.25" d="M478.858 102.26L456.822 119.687L474.236 79.0591L478.858 80.7293V79.9784L474.171 78.2823L473.847 78.1658L455.074 121.966L478.858 103.167V102.26Z" fill="#00A873"/>
        <path opacity="0.48" d="M359.838 37.2919L360.615 81.7133L354.439 76.5474L354.892 76.0036L359.89 80.1855L359.204 41.3573L354.09 73.8673L353.391 73.7508L359.139 37.2401L359.838 37.2919Z" fill="#00A873"/>
        <path opacity="0.03" d="M355.333 73.9838C355.191 74.8513 354.375 75.4469 353.507 75.3174C352.64 75.175 352.044 74.3593 352.174 73.4918C352.316 72.6244 353.132 72.0288 353.999 72.1583C354.867 72.2878 355.462 73.1034 355.333 73.9838Z" fill="#00A873"/>
        <path opacity="0.32" d="M355.749 75.1095C355.076 74.5398 354.066 74.6304 353.496 75.3037C352.927 75.9769 353.017 76.9868 353.69 77.5435C354.364 78.1132 355.373 78.0226 355.943 77.3493C356.513 76.6761 356.435 75.6662 355.749 75.1095Z" fill="#00A873"/>
        <path opacity="0.38" d="M330.316 -7L359.991 7.1123L360.289 6.46494L331.961 -7H330.316Z" fill="#00A873"/>
        <path opacity="0.38" d="M360.418 -7L361.078 5.94706L361.777 5.90822L361.13 -7H360.418Z" fill="#00A873"/>
        <path opacity="0.02" d="M363.023 5.76641C363.061 6.64681 362.388 7.39774 361.508 7.43658C360.627 7.47542 359.876 6.80217 359.838 5.92177C359.799 5.04137 360.472 4.29044 361.352 4.2516C362.233 4.21276 362.971 4.88601 363.023 5.76641Z" fill="#00A873"/>
        <path opacity="0.42" d="M359.385 8.19985C360.175 8.57531 361.133 8.23869 361.508 7.44892C361.884 6.65915 361.547 5.70106 360.757 5.3256C359.968 4.95013 359.01 5.28676 358.634 6.07653C358.246 6.8663 358.582 7.82438 359.385 8.19985Z" fill="#00A873"/>
        <path opacity="0.3" d="M478.857 132.336V131.546L456.096 120.515L455.746 120.334L439.977 166.011L440.637 166.244L456.148 121.318L478.857 132.336Z" fill="#00A873"/>
        <path opacity="0.3" d="M478.863 148.688L441.031 166.58L441.342 167.228L478.863 149.477V148.688Z" fill="#00A873"/>
        <path opacity="0.7" d="M441.937 168.316C441.147 168.692 440.189 168.355 439.813 167.552C439.438 166.762 439.775 165.804 440.577 165.429C441.367 165.053 442.325 165.39 442.701 166.193C443.076 166.982 442.739 167.941 441.937 168.316Z" fill="#00A873"/>
        <path opacity="0.09" d="M438.829 165.532C438.544 166.361 438.984 167.267 439.813 167.565C440.641 167.85 441.548 167.409 441.845 166.581C442.13 165.752 441.69 164.846 440.862 164.548C440.02 164.25 439.114 164.691 438.829 165.532Z" fill="#00A873"/>
        <path opacity="0.4" d="M449.274 35.1953L474.482 78.6715L474.288 78.8657L423.16 129.541L447.488 35.4413L448.174 35.6226L424.494 127.223L473.602 78.555L448.666 35.5578L449.274 35.1953Z" fill="#00A873"/>
        <path opacity="0.64" d="M446.27 35.2065C446.49 34.352 447.358 33.847 448.212 34.0671C449.067 34.2872 449.572 35.1547 449.352 36.0092C449.132 36.8637 448.264 37.3686 447.41 37.1485C446.555 36.9284 446.05 36.061 446.27 35.2065Z" fill="#00A873"/>
        <path opacity="0.06" d="M450.39 34.6505C449.95 33.8866 448.966 33.6277 448.215 34.0679C447.451 34.5081 447.192 35.4921 447.632 36.243C448.073 37.0069 449.056 37.2658 449.807 36.8256C450.571 36.3854 450.83 35.4014 450.39 34.6505Z" fill="#00A873"/>
        <path opacity="0.29" d="M448.174 35.621L424.04 128.969L359.59 80.8969L446.711 34.4688L447.034 35.0902L360.91 81.0005L423.613 127.778L447.487 35.4398L448.174 35.621Z" fill="#00A873"/>
        <path opacity="0.57" d="M446.054 33.4077C446.831 32.9934 447.802 33.2912 448.216 34.068C448.631 34.8448 448.333 35.8158 447.556 36.2301C446.779 36.6444 445.808 36.3467 445.394 35.5698C444.98 34.793 445.277 33.822 446.054 33.4077Z" fill="#00A873"/>
        <path opacity="0.06" d="M449.355 36.0103C449.575 35.1558 449.057 34.2884 448.215 34.0683C447.361 33.8482 446.493 34.3661 446.273 35.2076C446.053 36.0621 446.571 36.9296 447.413 37.1497C448.267 37.3698 449.135 36.8648 449.355 36.0103Z" fill="#00A873"/>
        <path opacity="0.11" d="M424.897 128.478L365.444 143.368L363.32 102.481L364.032 102.442L366.117 142.474L422.76 128.284L364.835 101.911L365.12 101.264L424.897 128.478Z" fill="#00A873"/>
        <path opacity="0.39" d="M364.398 103.063C363.595 102.7 363.245 101.755 363.608 100.952C363.97 100.15 364.915 99.8 365.718 100.163C366.521 100.525 366.871 101.47 366.508 102.273C366.145 103.076 365.2 103.425 364.398 103.063Z" fill="#00A873"/>
        <path opacity="0.16" d="M365.273 102.467C365.221 101.587 364.483 100.914 363.602 100.953C362.722 101.004 362.049 101.742 362.088 102.623C362.139 103.503 362.877 104.176 363.758 104.138C364.638 104.099 365.324 103.348 365.273 102.467Z" fill="#00A873"/>
        <path opacity="0.36" d="M426.685 130.07L364.837 101.911L365.122 101.263L420.975 126.691L360.746 81.7649L363.698 99.3988L362.998 99.5153L359.762 80.1465L426.685 130.07Z" fill="#00A873"/>
        <path opacity="0.53" d="M364.398 103.063C363.595 102.7 363.245 101.755 363.608 100.952C363.97 100.15 364.915 99.8 365.718 100.163C366.521 100.525 366.871 101.47 366.508 102.273C366.145 103.076 365.2 103.425 364.398 103.063Z" fill="#00A873"/>
        <path opacity="0.34" d="M361.764 99.6449C361.906 100.512 362.735 101.095 363.602 100.953C364.47 100.81 365.052 99.9816 364.91 99.1141C364.767 98.2467 363.939 97.664 363.071 97.8065C362.204 97.9489 361.621 98.7775 361.764 99.6449Z" fill="#00A873"/>
        <path opacity="0.5" d="M300.512 -7L306.208 23.3868L306.908 23.2573L301.224 -7H300.512Z" fill="#00A873"/>
        <path opacity="0.5" d="M330.319 -7L360.551 7.37124L308.18 24.0082L308.387 24.6944L362.467 7.51366L331.963 -7H330.319Z" fill="#00A873"/>
        <path opacity="0.65" d="M308.838 25.8467C307.997 26.1186 307.103 25.6525 306.831 24.8109C306.56 23.9694 307.026 23.076 307.867 22.8041C308.709 22.5322 309.602 22.9983 309.874 23.8399C310.146 24.6814 309.68 25.5748 308.838 25.8467Z" fill="#00A873"/>
        <path opacity="0.13" d="M304.983 23.5423C305.151 24.4097 305.98 24.9794 306.847 24.8111C307.714 24.6428 308.284 23.8142 308.116 22.9467C307.947 22.0793 307.119 21.5096 306.251 21.6779C305.384 21.8333 304.814 22.6748 304.983 23.5423Z" fill="#00A873"/>
        <path opacity="0.26" d="M300.514 -7L306.315 23.9046L296.41 15.6315L295.957 16.1752L307.363 25.7172L301.226 -7H300.514Z" fill="#00A873"/>
        <path opacity="0.26" d="M296.347 -7L294.793 13.3916L295.492 13.4434L297.059 -7H296.347Z" fill="#00A873"/>
        <path opacity="0.6" d="M296.733 13.4691C296.668 14.3495 295.904 15.0098 295.024 14.9321C294.144 14.8674 293.483 14.1035 293.561 13.2231C293.626 12.3427 294.39 11.6824 295.27 11.7601C296.15 11.8249 296.798 12.5887 296.733 13.4691Z" fill="#00A873"/>
        <path opacity="0.67" d="M297.28 14.7247C296.607 14.155 295.597 14.2457 295.027 14.9189C294.458 15.5922 294.548 16.602 295.222 17.1717C295.895 17.7414 296.905 17.6507 297.474 16.9775C298.044 16.3042 297.953 15.2944 297.28 14.7247Z" fill="#00A873"/>
        <path opacity="0.3" d="M362.027 6.9043L355.812 28.6424L308.322 25.2632L308.374 24.6159L308.18 24.0074L362.027 6.9043ZM355.294 27.9044L360.991 7.9789L308.698 24.59L355.294 27.9044Z" fill="#00A873"/>
        <path opacity="0.28" d="M308.32 26.5194C307.44 26.4547 306.779 25.6908 306.844 24.8104C306.909 23.93 307.673 23.2697 308.553 23.3345C309.434 23.3992 310.094 24.1631 310.029 25.0435C309.952 25.9109 309.188 26.5712 308.32 26.5194Z" fill="#00A873"/>
        <path opacity="0.68" d="M307.867 22.8041C307.026 23.076 306.56 23.9694 306.831 24.8109C307.103 25.6525 307.997 26.1186 308.838 25.8467C309.68 25.5748 310.146 24.6814 309.874 23.8399C309.615 23.0113 308.709 22.5452 307.867 22.8041Z" fill="#00A873"/>
        <path opacity="0.43" d="M290.288 -7H289.486L284.203 3.42238L293.758 14.039L294.276 13.5729L285.058 3.30586L290.288 -7Z" fill="#00A873"/>
        <path opacity="0.43" d="M296.347 -7L294.793 13.3916L295.492 13.4434L297.059 -7H296.347Z" fill="#00A873"/>
        <path opacity="0.47" d="M296.733 13.4691C296.668 14.3495 295.904 15.0098 295.024 14.9321C294.144 14.8674 293.483 14.1035 293.561 13.2231C293.626 12.3427 294.39 11.6824 295.27 11.7601C296.15 11.8249 296.798 12.5887 296.733 13.4691Z" fill="#00A873"/>
        <path opacity="0.05" d="M292.772 14.8159C293.355 15.4762 294.365 15.528 295.025 14.9324C295.685 14.3498 295.737 13.3399 295.142 12.6796C294.559 12.0193 293.549 11.9676 292.889 12.5631C292.241 13.1457 292.19 14.1556 292.772 14.8159Z" fill="#00A873"/>
        <path opacity="0.06" d="M289.485 -7L284.992 1.85579L285.627 2.17947L290.288 -7H289.485Z" fill="#00A873"/>
        <path opacity="0.06" d="M283.138 -7H282.154L275.875 -0.487628L283.112 3.02102L283.41 2.38662L277.053 -0.694781L283.138 -7Z" fill="#00A873"/>
        <path opacity="0.39" d="M286.766 2.67215C286.364 3.46192 285.406 3.77265 284.617 3.37129C283.827 2.96993 283.516 2.01185 283.917 1.22208C284.319 0.432306 285.277 0.121577 286.067 0.522936C286.856 0.924295 287.167 1.88238 286.766 2.67215Z" fill="#00A873"/>
        <path opacity="0.69" d="M282.493 4.10824C283.283 4.49665 284.241 4.16002 284.63 3.37025C285.018 2.58048 284.682 1.6224 283.892 1.23399C283.102 0.845576 282.144 1.1822 281.755 1.97197C281.367 2.76174 281.704 3.71982 282.493 4.10824Z" fill="#00A873"/>
        <path opacity="0.23" d="M423.745 128.037L423.965 128.697L371.245 151.665L370.96 151.018L419.77 129.759L366.273 143.159L369.432 150.41L368.785 150.694L365.289 142.68L365.69 142.577L423.745 128.037Z" fill="#00A873"/>
        <path opacity="0.32" d="M371.812 152.766C371.01 153.115 370.064 152.753 369.715 151.937C369.365 151.135 369.728 150.189 370.543 149.84C371.346 149.49 372.291 149.853 372.641 150.668C372.977 151.471 372.615 152.416 371.812 152.766Z" fill="#00A873"/>
        <path opacity="0.11" d="M367.604 151.123C367.953 151.926 368.898 152.301 369.701 151.951C370.504 151.602 370.879 150.657 370.53 149.854C370.18 149.051 369.235 148.676 368.432 149.025C367.629 149.375 367.254 150.307 367.604 151.123Z" fill="#00A873"/>
        <path opacity="0.24" d="M360.473 80.1328L363.697 99.398L362.998 99.5146L360.033 81.7641L353.663 89.377L362.855 99.5922L362.324 100.058L352.73 89.39L360.473 80.1328Z" fill="#00A873"/>
        <path opacity="0.3" d="M364.91 99.1141C365.052 99.9816 364.47 100.81 363.602 100.953C362.735 101.095 361.906 100.512 361.764 99.6449C361.621 98.7775 362.204 97.9489 363.071 97.8065C363.939 97.664 364.767 98.2467 364.91 99.1141Z" fill="#00A873"/>
        <path opacity="0.03" d="M361.356 100.836C361.939 101.496 362.949 101.548 363.609 100.952C364.269 100.369 364.321 99.3596 363.726 98.6993C363.13 98.039 362.133 97.9872 361.473 98.5828C360.812 99.1654 360.761 100.175 361.356 100.836Z" fill="#00A873"/>
        <path opacity="0.12" d="M360.755 80.9106L354.436 88.4587L353.893 88.0056L359.758 81.0012L353.841 76.0554L353.582 87.8761L352.883 87.8632L353.168 74.5665L360.755 80.9106Z" fill="#00A873"/>
        <path opacity="0.58" d="M355.45 89.1845C354.88 89.8578 353.883 89.9484 353.21 89.3787C352.537 88.8091 352.446 87.8121 353.016 87.1259C353.585 86.4527 354.582 86.3621 355.256 86.9317C355.916 87.5014 356.006 88.5113 355.45 89.1845Z" fill="#00A873"/>
        <path opacity="0.32" d="M351.645 87.7596C351.632 88.64 352.318 89.365 353.198 89.3909C354.079 89.4168 354.804 88.7176 354.83 87.8372C354.843 86.9568 354.156 86.2318 353.276 86.2059C352.396 86.18 351.658 86.8791 351.645 87.7596Z" fill="#00A873"/>
        <path opacity="0.48" d="M447.27 32.8243L446.817 33.3681L426.296 16.2003L362.234 79.4985L446.714 34.4686L447.037 35.09L358.285 82.3986L426.257 15.2422L447.27 32.8243Z" fill="#00A873"/>
        <path opacity="0.32" d="M446.054 33.4077C446.831 32.9934 447.802 33.2912 448.216 34.068C448.631 34.8448 448.333 35.8158 447.556 36.2301C446.779 36.6444 445.808 36.3467 445.394 35.5698C444.98 34.793 445.277 33.822 446.054 33.4077Z" fill="#00A873"/>
        <path opacity="0.22" d="M445.964 34.2623C446.637 34.8319 447.647 34.7413 448.217 34.0681C448.786 33.3948 448.696 32.3849 448.022 31.8282C447.349 31.2586 446.339 31.3492 445.77 32.0224C445.2 32.6957 445.291 33.7055 445.964 34.2623Z" fill="#00A873"/>
        <path opacity="0.28" d="M427.576 14.9316L361.585 80.133L361.08 79.641L424.974 16.5112L359.837 37.5502L360.575 79.4339L359.876 79.4468L359.125 37.0323L359.371 36.9546L427.576 14.9316Z" fill="#00A873"/>
        <path opacity="0.25" d="M361.818 79.3304C361.831 80.2108 361.132 80.9359 360.251 80.9488C359.371 80.9618 358.646 80.2626 358.633 79.3822C358.62 78.5018 359.319 77.7768 360.2 77.7638C361.08 77.7509 361.805 78.45 361.818 79.3304Z" fill="#00A873"/>
        <path opacity="0.57" d="M360.266 78.696C359.644 79.3175 359.631 80.3273 360.253 80.9488C360.874 81.5702 361.884 81.5832 362.505 80.9617C363.127 80.3403 363.14 79.3304 362.518 78.7089C361.91 78.0875 360.9 78.0745 360.266 78.696Z" fill="#00A873"/>
        <path opacity="0.15" d="M478.856 78.7753L475.011 78.361L478.856 75.6292V74.7617L473.082 78.8659L478.856 79.4874V78.7753Z" fill="#00A873"/>
        <path opacity="0.43" d="M478.86 74.7613L474.16 78.1017L448.978 34.6772L478.86 44.2451V43.4942L448.318 33.7321L447.438 33.4473L473.746 78.7879L473.94 79.1245L478.86 75.6288V74.7613Z" fill="#00A873"/>
        <path opacity="0.65" d="M478.864 220.402L449.849 184.305L478.864 185.846V185.134L448.309 183.516L478.864 221.528V220.402Z" fill="#00A873"/>
        <path opacity="0.03" d="M353.869 75.0451L353.585 87.8756L352.885 87.8626L353.144 75.5629L338.488 71.1609L352.497 87.9921L351.953 88.4453L336.43 69.8145L353.869 75.0451Z" fill="#00A873"/>
        <path opacity="0.28" d="M354.826 87.8234C354.813 88.7038 354.075 89.403 353.195 89.3771C352.315 89.3512 351.615 88.6261 351.641 87.7457C351.654 86.8653 352.392 86.1662 353.273 86.1921C354.153 86.218 354.852 86.943 354.826 87.8234Z" fill="#00A873"/>
        <path opacity="0.07" d="M350.956 89.1843C351.526 89.8576 352.523 89.9482 353.196 89.3915C353.869 88.8218 353.96 87.8249 353.403 87.1516C352.833 86.4784 351.836 86.3878 351.163 86.9445C350.477 87.5012 350.386 88.5111 350.956 89.1843Z" fill="#00A873"/>
        <path opacity="0.3" d="M360.084 35.75L353.791 75.7564L338.812 71.2638L339.006 70.5905L353.222 74.8501L358.88 38.8314L338.592 69.4253L337.996 69.0369L360.084 35.75Z" fill="#00A873"/>
        <path opacity="0.6" d="M338.526 72.4833C337.684 72.2243 337.205 71.3439 337.451 70.5024C337.71 69.6608 338.591 69.1818 339.432 69.4278C340.274 69.6867 340.753 70.5671 340.507 71.4087C340.261 72.2502 339.367 72.7293 338.526 72.4833Z" fill="#00A873"/>
        <path opacity="0.01" d="M337.014 68.2741C336.522 69.0121 336.729 69.9961 337.467 70.4881C338.205 70.9801 339.189 70.7729 339.681 70.0349C340.173 69.2969 339.966 68.313 339.228 67.821C338.49 67.3419 337.506 67.5491 337.014 68.2741Z" fill="#00A873"/>
        <path opacity="0.48" d="M355.55 27.3867L359.887 37.3301L359.783 37.4854L338.589 69.4258L338.175 69.1539L337.734 68.9597L355.55 27.3867ZM359.084 37.2524L355.562 29.1605L339.327 67.0436L359.084 37.2524Z" fill="#00A873"/>
        <path opacity="0.1" d="M339.663 70.0479C339.171 70.7859 338.187 70.9801 337.449 70.501C336.711 70.009 336.517 69.0251 336.996 68.2871C337.488 67.5491 338.472 67.3549 339.21 67.8339C339.948 68.3259 340.155 69.3099 339.663 70.0479Z" fill="#00A873"/>
        <path opacity="0.22" d="M336.623 68.3907C336.273 69.2064 336.649 70.1386 337.464 70.4882C338.28 70.8377 339.212 70.4623 339.562 69.6466C339.911 68.8309 339.536 67.8988 338.72 67.5492C337.905 67.2126 336.972 67.588 336.623 68.3907Z" fill="#00A873"/>
        <path opacity="0.04" d="M356.085 27.9577L338.387 69.2329L337.739 68.961L355.037 28.5921L307.534 25.2129L336.911 69.0387L336.328 69.4271L306.148 24.4102L356.085 27.9577Z" fill="#00A873"/>
        <path opacity="0.24" d="M339.551 69.6602C339.201 70.4758 338.269 70.8383 337.453 70.5017C336.651 70.1521 336.275 69.22 336.612 68.4043C336.948 67.5886 337.893 67.2261 338.709 67.5627C339.525 67.9123 339.9 68.8445 339.551 69.6602Z" fill="#00A873"/>
        <path opacity="0.08" d="M335.252 70.0485C335.744 70.7735 336.728 70.9807 337.466 70.4887C338.204 69.9967 338.398 69.0127 337.906 68.2748C337.414 67.5497 336.43 67.3426 335.692 67.8346C334.954 68.3265 334.76 69.3235 335.252 70.0485Z" fill="#00A873"/>
        <path opacity="0.54" d="M439.654 125.189L440.172 167.954L425.516 166.348L425.581 165.649L439.447 167.164L438.981 128.802L424.921 164.561L424.273 164.303L439.654 125.189Z" fill="#00A873"/>
        <path opacity="0.69" d="M426.114 164.936C425.79 165.752 424.871 166.153 424.043 165.843C423.227 165.519 422.826 164.6 423.136 163.771C423.46 162.955 424.379 162.554 425.208 162.865C426.036 163.188 426.438 164.121 426.114 164.936Z" fill="#00A873"/>
        <path opacity="0.21" d="M425.801 164.433C424.92 164.342 424.143 164.963 424.04 165.844C423.949 166.724 424.584 167.501 425.451 167.605C426.332 167.695 427.108 167.074 427.212 166.193C427.303 165.313 426.681 164.523 425.801 164.433Z" fill="#00A873"/>
        <path opacity="0.19" d="M456.526 120.244L440.64 166.245L440.058 166.038L439.436 166.051L438.957 126.757L439.19 126.666L456.526 120.244ZM440.148 165.52L455.374 121.422L439.682 127.249L440.148 165.52Z" fill="#00A873"/>
        <path opacity="0.64" d="M441.845 166.569C441.561 167.397 440.654 167.837 439.813 167.553C438.984 167.268 438.544 166.361 438.829 165.52C439.114 164.691 440.02 164.251 440.862 164.536C441.69 164.834 442.13 165.74 441.845 166.569Z" fill="#00A873"/>
        <path opacity="0.02" d="M438.191 165.986C438.204 166.866 438.929 167.565 439.81 167.565C440.69 167.552 441.389 166.827 441.389 165.947C441.376 165.066 440.651 164.367 439.771 164.367C438.891 164.38 438.191 165.105 438.191 165.986Z" fill="#00A873"/>
        <path opacity="0.64" d="M439.862 126.602L424.934 164.562L424.339 164.329H423.692L423.484 128.065L439.862 126.602ZM424.378 164.006L438.775 127.404L424.171 128.712L424.378 164.006Z" fill="#00A873"/>
        <path opacity="0.01" d="M425.634 164.238C425.634 165.118 424.935 165.83 424.055 165.843C423.174 165.843 422.462 165.144 422.449 164.264C422.436 163.383 423.149 162.658 424.029 162.658C424.909 162.645 425.621 163.358 425.634 164.238Z" fill="#00A873"/>
        <path opacity="0.26" d="M423.147 163.772C422.823 164.588 423.225 165.52 424.053 165.844C424.869 166.168 425.801 165.766 426.125 164.938C426.449 164.122 426.047 163.19 425.219 162.866C424.39 162.543 423.458 162.957 423.147 163.772Z" fill="#00A873"/>
        <path opacity="0.03" d="M475.647 75.7715L456.874 119.571L456.213 119.3L472.449 81.4552L440.276 126.265L454.401 121.021L454.647 121.682L438.359 127.728L475.647 75.7715Z" fill="#00A873"/>
        <path opacity="0.37" d="M455.009 122.884C455.838 122.573 456.252 121.654 455.954 120.838C455.644 120.01 454.724 119.595 453.909 119.893C453.08 120.204 452.666 121.123 452.964 121.939C453.261 122.767 454.181 123.182 455.009 122.884Z" fill="#00A873"/>
        <path opacity="0.69" d="M473.45 80.0433L439.516 127.326L422.879 128.802L423.578 128.116L472.725 79.4219L473.062 79.7585L473.45 80.0433ZM439.127 126.666L471.301 81.843L424.769 127.947L439.127 126.666Z" fill="#00A873"/>
        <path opacity="0.42" d="M471.793 78.6051C472.414 77.9837 473.424 77.9837 474.046 78.6181C474.667 79.2525 474.667 80.2494 474.033 80.8709C473.398 81.4923 472.401 81.4923 471.78 80.8579C471.159 80.2364 471.171 79.2266 471.793 78.6051Z" fill="#00A873"/>
        <path opacity="0.37" d="M474.406 80.8329C474.924 80.1208 474.756 79.1239 474.044 78.606C473.332 78.0881 472.335 78.2564 471.817 78.9685C471.299 79.6806 471.467 80.6775 472.179 81.1954C472.904 81.7133 473.901 81.5579 474.406 80.8329Z" fill="#00A873"/>
        <path opacity="0.6" d="M478.863 152.067V151.238L444.566 172.381L444.942 172.976L478.863 152.067Z" fill="#00A873"/>
        <path opacity="0.6" d="M478.859 184.279L445.016 173.598L444.809 174.271L478.859 185.03V184.279Z" fill="#00A873"/>
        <path opacity="0.41" d="M444.5 175.476C443.659 175.217 443.192 174.31 443.464 173.469C443.723 172.627 444.63 172.161 445.471 172.433C446.313 172.692 446.779 173.598 446.507 174.44C446.248 175.281 445.342 175.747 444.5 175.476Z" fill="#00A873"/>
        <path opacity="0.15" d="M443.981 171.281C443.23 171.747 442.997 172.731 443.463 173.482C443.929 174.233 444.913 174.466 445.664 174C446.415 173.534 446.648 172.55 446.182 171.799C445.716 171.048 444.732 170.815 443.981 171.281Z" fill="#00A873"/>
        <path opacity="0.18" d="M478.859 184.279L445.016 173.598L444.809 174.271L478.859 185.017V184.279Z" fill="#00A873"/>
        <path opacity="0.18" d="M478.859 185.134L449.301 183.567L444.498 174.646L443.863 174.983L448.861 184.253L478.859 185.846V185.134Z" fill="#00A873"/>
        <path opacity="0.68" d="M444.5 175.476C443.659 175.217 443.192 174.31 443.464 173.469C443.723 172.627 444.63 172.161 445.471 172.433C446.313 172.692 446.779 173.598 446.507 174.44C446.248 175.281 445.342 175.747 444.5 175.476Z" fill="#00A873"/>
        <path opacity="0.5" d="M445.628 174.13C445.214 173.353 444.243 173.069 443.466 173.483C442.689 173.897 442.405 174.868 442.819 175.645C443.233 176.422 444.204 176.707 444.981 176.292C445.758 175.865 446.043 174.907 445.628 174.13Z" fill="#00A873"/>
        <path opacity="0.37" d="M445.664 174C444.913 174.466 443.929 174.233 443.463 173.482C442.997 172.731 443.23 171.747 443.981 171.281C444.732 170.815 445.716 171.048 446.169 171.799C446.635 172.55 446.402 173.534 445.664 174Z" fill="#00A873"/>
        <path opacity="0.29" d="M441.276 172.952C441.742 173.703 442.726 173.936 443.464 173.47C444.215 173.004 444.448 172.02 443.982 171.282C443.516 170.531 442.532 170.298 441.781 170.764C441.043 171.23 440.81 172.201 441.276 172.952Z" fill="#00A873"/>
        <path opacity="0.62" d="M360.418 -7L361.078 5.94706L361.777 5.90822L361.13 -7H360.418Z" fill="#00A873"/>
        <path opacity="0.62" d="M375.113 -7L362.309 6.11537L362.814 6.60736L376.097 -7H375.113Z" fill="#00A873"/>
        <path opacity="0.26" d="M363.023 5.76641C363.061 6.64681 362.388 7.39774 361.508 7.43658C360.627 7.47542 359.876 6.80217 359.838 5.92177C359.799 5.04137 360.472 4.29044 361.352 4.2516C362.233 4.21276 362.971 4.88601 363.023 5.76641Z" fill="#00A873"/>
        <path opacity="0.49" d="M361.485 5.18329C360.864 5.81769 360.877 6.82756 361.511 7.43607C362.146 8.05753 363.156 8.04459 363.764 7.41018C364.386 6.77577 364.373 5.7659 363.738 5.15739C363.104 4.54888 362.094 4.56183 361.485 5.18329Z" fill="#00A873"/>
        <path opacity="0.31" d="M415.991 -7L425.662 15.1913L382.264 3.92732L395.249 -7H394.149L380.762 4.26394L426.892 16.24L416.767 -7H415.991Z" fill="#00A873"/>
        <path opacity="0.68" d="M424.261 14.6988C425.102 14.4269 425.996 14.893 426.267 15.7216C426.539 16.5631 426.073 17.4565 425.245 17.7284C424.403 18.0003 423.51 17.5342 423.238 16.7055C422.966 15.864 423.432 14.9577 424.261 14.6988Z" fill="#00A873"/>
        <path opacity="0.48" d="M424.328 16.8614C425.182 17.0815 426.05 16.5766 426.27 15.7221C426.49 14.8676 425.985 14.0001 425.13 13.78C424.276 13.5599 423.408 14.0649 423.188 14.9194C422.968 15.7739 423.473 16.6413 424.328 16.8614Z" fill="#00A873"/>
        <path opacity="0.13" d="M394.146 -7L381.859 3.33175L381.885 -7H381.173L381.16 4.85951L395.247 -7H394.146Z" fill="#00A873"/>
        <path opacity="0.49" d="M383.469 1.80469L360.617 36.2309L360.035 35.8425L379.559 6.40089L355.982 28.3591L359.206 35.7648L358.559 36.0497L355.141 28.1908L383.469 1.80469Z" fill="#00A873"/>
        <path opacity="0.52" d="M360.317 35.1939C360.666 35.9966 360.304 36.9418 359.488 37.2913C358.685 37.6409 357.74 37.2784 357.391 36.4627C357.041 35.66 357.404 34.7149 358.219 34.3653C359.022 34.0157 359.954 34.3912 360.317 35.1939Z" fill="#00A873"/>
        <path opacity="0.48" d="M359.033 35.0788C358.541 35.8168 358.748 36.8008 359.486 37.2928C360.224 37.7847 361.208 37.5776 361.7 36.8396C362.192 36.1016 361.985 35.1177 361.247 34.6257C360.509 34.1466 359.525 34.3538 359.033 35.0788Z" fill="#00A873"/>
        <path opacity="0.22" d="M382.611 3.55273L356.911 27.5048L356.419 26.9869L380.41 4.64029L361.779 7.76053L356.315 26.9222L355.629 26.715L361.222 7.12612L361.455 7.10023L382.611 3.55273Z" fill="#00A873"/>
        <path opacity="0.24" d="M357.533 27.1802C357.287 28.0218 356.406 28.5138 355.565 28.2807C354.723 28.0347 354.231 27.1543 354.464 26.3128C354.71 25.4712 355.59 24.9792 356.432 25.2123C357.274 25.4453 357.766 26.3257 357.533 27.1802Z" fill="#00A873"/>
        <path opacity="0.29" d="M355.644 26.0152C354.996 26.6108 354.957 27.6207 355.566 28.268C356.162 28.9154 357.171 28.9542 357.819 28.3457C358.466 27.7501 358.505 26.7403 357.896 26.0929C357.288 25.4585 356.278 25.4197 355.644 26.0152Z" fill="#00A873"/>
        <path opacity="0.55" d="M381.176 -7L381.164 3.79785L362.52 6.91809L376.101 -7H375.104L360.5 7.9668L381.863 4.39341L381.889 -7H381.176Z" fill="#00A873"/>
        <path opacity="0.49" d="M424.168 127.416L424.181 128.374L424.388 164.315L423.676 164.328L423.469 129.345L388.02 171.734L422.485 165.752L422.601 166.438L386.246 172.77L424.168 127.416Z" fill="#00A873"/>
        <path opacity="0.11" d="M425.634 164.238C425.634 165.118 424.935 165.83 424.055 165.843C423.174 165.843 422.462 165.144 422.449 164.264C422.436 163.383 423.149 162.658 424.029 162.658C424.909 162.645 425.621 163.358 425.634 164.238Z" fill="#00A873"/>
        <path opacity="0.65" d="M422.75 167.682C423.618 167.526 424.2 166.711 424.045 165.843C423.89 164.976 423.074 164.393 422.207 164.549C421.339 164.704 420.756 165.52 420.912 166.387C421.054 167.254 421.883 167.837 422.75 167.682Z" fill="#00A873"/>
        <path opacity="0.09" d="M425.051 127.455L388.372 171.32L387.841 170.867L422.591 129.307L370.285 152.081L386.417 170.867L385.886 171.333L369.133 151.809L369.56 151.614L425.051 127.455Z" fill="#00A873"/>
        <path opacity="0.65" d="M389.383 172.058C388.814 172.731 387.817 172.821 387.144 172.252C386.47 171.682 386.38 170.685 386.949 169.999C387.519 169.326 388.516 169.235 389.202 169.805C389.862 170.374 389.953 171.371 389.383 172.058Z" fill="#00A873"/>
        <path opacity="0.25" d="M384.887 172.084C385.457 172.757 386.467 172.834 387.14 172.252C387.813 171.682 387.891 170.672 387.309 169.999C386.739 169.326 385.729 169.248 385.056 169.831C384.382 170.4 384.305 171.41 384.887 172.084Z" fill="#00A873"/>
        <path opacity="0.25" d="M444.282 0.703988L444.023 1.51965L444.062 2.38711L406.438 4.12201L431.594 -3.25781L431.736 -3.21897L444.282 0.703988ZM414.542 2.76257L443.337 1.42902L431.581 -2.24794L414.542 2.76257Z" fill="#00A873"/>
        <path opacity="0.68" d="M443.823 -0.306563C445.04 -0.358351 446.076 0.586784 446.128 1.80381C446.18 3.02083 445.248 4.0566 444.018 4.10838C442.801 4.16017 441.765 3.21504 441.713 1.99801C441.661 0.78099 442.606 -0.254775 443.823 -0.306563Z" fill="#00A873"/>
        <path opacity="0.4" d="M443.375 3.25499C444.54 3.6175 445.783 2.97015 446.146 1.80492C446.508 0.63968 445.861 -0.603238 444.696 -0.965756C443.53 -1.32827 442.287 -0.68092 441.925 0.484315C441.562 1.64955 442.21 2.89247 443.375 3.25499Z" fill="#00A873"/>
        <path opacity="0.35" d="M478.86 76.4172L473.202 70.7076L478.86 64.1952V62.6934L471.855 70.7594L478.86 77.8155V76.4172Z" fill="#00A873"/>
        <path opacity="0.64" d="M478.857 62.6931L472.694 69.801L447.033 2.76114L478.857 17.6762V16.5886L445.246 0.832031L472.072 70.9145L472.357 71.6654L478.857 64.195V62.6931Z" fill="#00A873"/>
        <path opacity="0.25" d="M446.223 0.638794L446.598 1.62277L472.233 68.5979L471.327 68.9475L446.054 2.95632L410.579 66.6688L470.459 70.1257L470.408 71.0967L408.961 67.5492L446.223 0.638794Z" fill="#00A873"/>
        <path opacity="0.01" d="M473.801 67.8855C474.241 69.0248 473.672 70.3066 472.532 70.7338C471.393 71.174 470.111 70.6044 469.684 69.465C469.244 68.3257 469.814 67.0439 470.953 66.6167C472.092 66.1635 473.374 66.7332 473.801 67.8855Z" fill="#00A873"/>
        <path opacity="0.6" d="M470.201 72.8187C471.418 72.8834 472.467 71.9642 472.531 70.7342C472.596 69.5172 471.677 68.4685 470.447 68.4037C469.23 68.339 468.181 69.2582 468.116 70.4882C468.052 71.6923 468.984 72.741 470.201 72.8187Z" fill="#00A873"/>
        <path opacity="0.25" d="M444.021 1.40234L444.072 2.38632L410.967 3.91407L410.281 65.1796L444.694 3.39619L445.548 3.87523L409.258 69.0378L410.009 2.96894L410.462 2.95599L444.021 1.40234Z" fill="#00A873"/>
        <path opacity="0.16" d="M443.823 -0.306563C445.04 -0.358351 446.076 0.586784 446.128 1.80381C446.18 3.02083 445.248 4.0566 444.018 4.10838C442.801 4.16017 441.765 3.21504 441.713 1.99801C441.661 0.78099 442.606 -0.254775 443.823 -0.306563Z" fill="#00A873"/>
        <path opacity="0.57" d="M446.997 4.80681C447.593 3.74515 447.204 2.39865 446.143 1.80309C445.081 1.20752 443.735 1.59594 443.139 2.65759C442.543 3.71925 442.932 5.06575 443.994 5.66131C445.055 6.25688 446.402 5.86847 446.997 4.80681Z" fill="#00A873"/>
        <path opacity="0.48" d="M242.319 11.2812L266.944 67.7434L256.289 64.416L256.574 63.4838L265.196 66.1638L243.665 16.8355L254.411 61.1663L253.453 61.3993L241.387 11.592L242.319 11.2812Z" fill="#00A873"/>
        <path opacity="0.03" d="M256.056 60.6476C256.34 61.8387 255.615 63.0298 254.424 63.3147C253.233 63.5995 252.042 62.8745 251.757 61.6833C251.472 60.4922 252.197 59.3011 253.389 59.0162C254.567 58.7314 255.771 59.4694 256.056 60.6476Z" fill="#00A873"/>
        <path opacity="0.32" d="M257.196 61.8663C256.03 61.5038 254.787 62.1511 254.425 63.3163C254.062 64.4816 254.71 65.7245 255.875 66.087C257.04 66.4495 258.283 65.8022 258.646 64.637C259.008 63.4717 258.361 62.2288 257.196 61.8663Z" fill="#00A873"/>
        <path opacity="0.3" d="M473.576 70.3056L415.742 134.277L415.017 133.617L471.479 71.1602L410.291 67.6256L414.33 133.371L413.346 133.436L409.242 66.5898L409.799 66.6157L473.576 70.3056Z" fill="#00A873"/>
        <path opacity="0.7" d="M417.088 135.353C416.273 136.259 414.875 136.324 413.968 135.508C413.062 134.693 412.997 133.294 413.813 132.388C414.629 131.482 416.027 131.417 416.933 132.233C417.839 133.048 417.904 134.447 417.088 135.353Z" fill="#00A873"/>
        <path opacity="0.09" d="M411.626 133.438C411.703 134.655 412.752 135.587 413.969 135.509C415.186 135.432 416.118 134.383 416.041 133.166C415.963 131.949 414.914 131.017 413.697 131.094C412.48 131.172 411.548 132.221 411.626 133.438Z" fill="#00A873"/>
        <path opacity="0.01" d="M478.864 134.822L478.061 135.353L473.129 72.0289L478.864 77.8162V76.4179L471.938 69.4395L477.22 137.088L478.864 136V134.822Z" fill="#00A873"/>
        <path opacity="0.4" d="M395.99 -7L409.895 3.60364L372.905 92.0191L358.871 -7H357.887L372.439 95.6831L410.944 3.62954L411.086 3.27997L397.608 -7H395.99Z" fill="#00A873"/>
        <path opacity="0.29" d="M357.879 -7L372.082 93.1973L266.926 66.6688L327.402 -7H326.133L265.191 67.2384L373.248 94.505L358.863 -7H357.879Z" fill="#00A873"/>
        <path opacity="0.11" d="M374.08 93.4168L305.914 144.092L281.457 92.886L282.337 92.4588L306.289 142.603L371.258 94.2972L283.075 91.3453L283.101 90.3613L374.08 93.4168Z" fill="#00A873"/>
        <path opacity="0.39" d="M283.126 93.0684C281.909 93.0296 280.951 92.0068 280.989 90.7898C281.028 89.5727 282.051 88.6146 283.268 88.6535C284.485 88.6923 285.443 89.7151 285.404 90.9322C285.365 92.1492 284.343 93.1073 283.126 93.0684Z" fill="#00A873"/>
        <path opacity="0.16" d="M283.93 91.8255C283.399 90.725 282.078 90.2589 280.978 90.7897C279.877 91.3205 279.411 92.6411 279.942 93.7416C280.473 94.8421 281.793 95.3082 282.894 94.7774C283.994 94.2466 284.461 92.926 283.93 91.8255Z" fill="#00A873"/>
        <path opacity="0.36" d="M377.212 94.5059L283.074 91.3468L283.1 90.3628L368.123 93.2112L267.123 67.7314L280.29 88.7445L279.462 89.2623L265 66.1777L377.212 94.5059Z" fill="#00A873"/>
        <path opacity="0.53" d="M283.126 93.0684C281.909 93.0296 280.951 92.0068 280.989 90.7898C281.028 89.5727 282.051 88.6146 283.268 88.6535C284.485 88.6923 285.443 89.7151 285.404 90.9322C285.365 92.1492 284.343 93.1073 283.126 93.0684Z" fill="#00A873"/>
        <path opacity="0.34" d="M277.932 90.0775C278.58 91.1132 279.939 91.424 280.975 90.7766C282.011 90.1293 282.321 88.7698 281.674 87.734C281.027 86.6983 279.667 86.3876 278.631 87.0349C277.609 87.6823 277.285 89.0417 277.932 90.0775Z" fill="#00A873"/>
        <path opacity="0.5" d="M147.297 -7L166.264 22.0144L167.093 21.4706L148.462 -7H147.297Z" fill="#00A873"/>
        <path opacity="0.5" d="M203.181 -7L169.117 21.7684L169.752 22.5193L204.696 -7H203.181Z" fill="#00A873"/>
        <path opacity="0.65" d="M170.941 23.7625C170.009 24.5523 168.611 24.4357 167.821 23.5035C167.031 22.5714 167.148 21.1731 168.08 20.3833C169.012 19.5935 170.41 19.7101 171.2 20.6422C171.99 21.5744 171.873 22.9727 170.941 23.7625Z" fill="#00A873"/>
        <path opacity="0.13" d="M164.762 22.8559C165.435 23.8787 166.795 24.1636 167.818 23.4903C168.841 22.8171 169.125 21.4576 168.452 20.4348C167.779 19.412 166.419 19.1272 165.397 19.8004C164.387 20.4737 164.102 21.8331 164.762 22.8559Z" fill="#00A873"/>
        <path opacity="0.26" d="M139 -7L146.328 15.2948L147.26 14.9971L140.036 -7H139Z" fill="#00A873"/>
        <path opacity="0.26" d="M147.297 -7L166.666 22.6229L149.601 17.3016L149.317 18.2338L168.983 24.3707L148.462 -7H147.297Z" fill="#00A873"/>
        <path opacity="0.6" d="M148.864 14.3506C149.239 15.5158 148.618 16.7588 147.453 17.1472C146.288 17.5226 145.045 16.9012 144.656 15.7359C144.281 14.5707 144.902 13.3278 146.067 12.9394C147.233 12.5639 148.489 13.1854 148.864 14.3506Z" fill="#00A873"/>
        <path opacity="0.67" d="M150.227 15.6827C149.062 15.3202 147.819 15.9675 147.456 17.1328C147.094 18.298 147.741 19.5409 148.906 19.9034C150.071 20.2659 151.314 19.6186 151.677 18.4534C152.039 17.2881 151.392 16.0452 150.227 15.6827Z" fill="#00A873"/>
        <path opacity="0.34" d="M19.2773 -7L23.8088 8.91194L24.741 8.64005L20.2872 -7H19.2773Z" fill="#00A873"/>
        <path opacity="0.34" d="M45.1599 -7L26.1406 9.0673L26.775 9.81823L46.6747 -7H45.1599Z" fill="#00A873"/>
        <path opacity="0.46" d="M26.3714 8.07094C26.708 9.24912 26.0218 10.4661 24.8566 10.8028C23.6784 11.1394 22.4614 10.4532 22.1248 9.28796C21.7881 8.10978 22.4743 6.89276 23.6396 6.55613C24.8177 6.20656 26.0348 6.89276 26.3714 8.07094Z" fill="#00A873"/>
        <path opacity="0.2" d="M25.1188 7.68213C24.1866 8.4719 24.0701 9.87018 24.8599 10.8024C25.6496 11.7346 27.0479 11.8511 27.9801 11.0613C28.9123 10.2715 29.0288 8.87326 28.239 7.94107C27.4363 7.00888 26.051 6.89236 25.1188 7.68213Z" fill="#00A873"/>
        <path opacity="0.02" d="M19.2782 -7L23.978 9.54634L1.64428 -7H0L25.7129 12.0451L20.288 -7H19.2782Z" fill="#00A873"/>
        <path opacity="0.3" d="M230.499 -7L231.509 1.68748L170.101 22.2215L204.696 -7H203.181L169.117 21.7684L169.7 22.4546L169.972 23.2961L232.571 2.36073L231.483 -7H230.499Z" fill="#00A873"/>
        <path opacity="0.28" d="M170.627 24.9022C169.475 25.2907 168.219 24.6692 167.83 23.504C167.442 22.3517 168.064 21.0958 169.229 20.7074C170.381 20.319 171.637 20.9404 172.025 22.1057C172.401 23.258 171.779 24.5138 170.627 24.9022Z" fill="#00A873"/>
        <path opacity="0.68" d="M168.091 20.3833C167.159 21.1731 167.043 22.5714 167.833 23.5035C168.622 24.4357 170.021 24.5523 170.953 23.7625C171.885 22.9727 172.001 21.5744 171.212 20.6422C170.422 19.7101 169.024 19.5935 168.091 20.3833Z" fill="#00A873"/>
        <path opacity="0.03" d="M110.452 -7L99.9648 6.46494L100.742 7.06051L111.682 -7H110.452Z" fill="#00A873"/>
        <path opacity="0.03" d="M120.459 -7L115.099 6.6721L101.129 7.75965L101.194 8.74363L115.785 7.60428L121.508 -7H120.459Z" fill="#00A873"/>
        <path opacity="0.14" d="M102.167 8.03067C101.416 8.98875 100.031 9.17001 99.0598 8.41908C98.1017 7.66815 97.9205 6.28281 98.6714 5.31178C99.4224 4.3537 100.808 4.17244 101.779 4.92337C102.75 5.6743 102.918 7.05964 102.167 8.03067Z" fill="#00A873"/>
        <path opacity="0.63" d="M101.105 6.0375C99.8883 6.12812 98.982 7.20273 99.0727 8.41975C99.1633 9.63678 100.225 10.5431 101.455 10.4524C102.672 10.3618 103.578 9.30016 103.488 8.07018C103.384 6.85316 102.322 5.94687 101.105 6.0375Z" fill="#00A873"/>
        <path opacity="0.06" d="M110.452 -7L100.03 6.37431L103.059 -7H102.062L99.0586 6.25779L99.9908 6.47789L100.742 7.06051L111.682 -7H110.452Z" fill="#00A873"/>
        <path opacity="0.63" d="M102.167 8.03067C101.416 8.98875 100.031 9.17001 99.0598 8.41908C98.1017 7.66815 97.9205 6.28281 98.6714 5.31178C99.4224 4.3537 100.808 4.17244 101.779 4.92337C102.75 5.6743 102.918 7.05964 102.167 8.03067Z" fill="#00A873"/>
        <path opacity="0.24" d="M97.4033 5.76619C97.1314 6.95732 97.8824 8.1355 99.0735 8.40739C100.265 8.67928 101.443 7.92835 101.715 6.73722C101.987 5.54609 101.236 4.36791 100.045 4.09602C98.8534 3.83708 97.6752 4.58801 97.4033 5.76619Z" fill="#00A873"/>
        <path opacity="0.13" d="M26.2446 10.2584L46.675 -7H45.1602L23.4609 11.333L96.9873 8.97667L96.9484 7.9927L26.2446 10.2584Z" fill="#00A873"/>
        <path opacity="0.13" d="M102.062 -7L99.0586 6.25779L100.004 6.47789L103.059 -7H102.062Z" fill="#00A873"/>
        <path opacity="0.44" d="M101.715 6.74971C101.443 7.94084 100.265 8.69177 99.0735 8.41989C97.8824 8.148 97.1314 6.96981 97.4033 5.77868C97.6752 4.58756 98.8534 3.83663 100.045 4.10851C101.236 4.3804 101.987 5.55858 101.715 6.74971Z" fill="#00A873"/>
        <path opacity="0.17" d="M96.9205 10.6993C98.1375 10.6605 99.0956 9.63763 99.0567 8.42061C99.0179 7.20358 97.9951 6.2455 96.7781 6.28434C95.561 6.32318 94.6029 7.346 94.6418 8.56303C94.6806 9.78005 95.7034 10.7381 96.9205 10.6993Z" fill="#00A873"/>
        <path opacity="0.43" d="M129.613 -7H128.629L127.477 8.16101L145.343 16.6802L145.771 15.7868L128.499 7.56544L129.613 -7Z" fill="#00A873"/>
        <path opacity="0.43" d="M139 -7L146.328 15.2948L147.26 14.9971L140.036 -7H139Z" fill="#00A873"/>
        <path opacity="0.47" d="M148.864 14.3506C149.239 15.5158 148.618 16.7588 147.453 17.1472C146.288 17.5226 145.045 16.9012 144.656 15.7359C144.281 14.5707 144.902 13.3278 146.067 12.9394C147.233 12.5639 148.489 13.1854 148.864 14.3506Z" fill="#00A873"/>
        <path opacity="0.05" d="M144.502 18.1824C145.603 18.7132 146.923 18.2342 147.454 17.1337C147.985 16.0332 147.506 14.7126 146.405 14.1818C145.305 13.6509 143.984 14.13 143.453 15.2305C142.936 16.3439 143.402 17.6645 144.502 18.1824Z" fill="#00A873"/>
        <path opacity="0.06" d="M128.631 -7L127.66 5.72696L128.644 5.80464L129.615 -7H128.631Z" fill="#00A873"/>
        <path opacity="0.06" d="M121.51 -7H120.461L114.738 7.59134L125.873 8.23869L125.925 7.25471L116.137 6.68504L121.51 -7Z" fill="#00A873"/>
        <path opacity="0.39" d="M130.365 5.83051C130.275 7.04754 129.213 7.95383 127.996 7.8632C126.779 7.77257 125.873 6.71091 125.963 5.49389C126.054 4.27687 127.116 3.37057 128.333 3.4612C129.537 3.55183 130.456 4.61349 130.365 5.83051Z" fill="#00A873"/>
        <path opacity="0.69" d="M125.65 9.94746C126.867 10.0122 127.916 9.09296 127.981 7.86299C128.045 6.64596 127.126 5.59725 125.896 5.53252C124.679 5.46778 123.63 6.38702 123.566 7.61699C123.501 8.83402 124.433 9.86978 125.65 9.94746Z" fill="#00A873"/>
        <path opacity="0.43" d="M478.862 136.466L476.402 134.783L478.862 139.923V136.466Z" fill="#00A873"/>
        <path opacity="0.23" d="M372.371 93.4688L373.018 94.1938L317.734 151.627L317.035 150.954L368.215 97.7801L306.859 143.393L314.756 150.993L314.07 151.705L305.344 143.302L305.81 142.952L372.371 93.4688Z" fill="#00A873"/>
        <path opacity="0.32" d="M319.057 152.74C318.215 153.62 316.804 153.646 315.936 152.805C315.056 151.963 315.03 150.565 315.872 149.684C316.713 148.804 318.124 148.778 318.992 149.62C319.872 150.461 319.898 151.86 319.057 152.74Z" fill="#00A873"/>
        <path opacity="0.11" d="M312.8 152.869C313.68 153.711 315.078 153.685 315.92 152.804C316.761 151.924 316.736 150.526 315.855 149.684C314.975 148.843 313.576 148.868 312.735 149.749C311.893 150.629 311.919 152.015 312.8 152.869Z" fill="#00A873"/>
        <path opacity="0.24" d="M265.919 65.7891L280.291 88.7442L279.462 89.2621L266.217 68.1195L262.113 81.2479L279.307 89.4433L278.879 90.3237L260.922 81.7657L265.919 65.7891Z" fill="#00A873"/>
        <path opacity="0.3" d="M281.689 87.734C282.336 88.7698 282.025 90.1293 280.99 90.7766C279.954 91.424 278.594 91.1132 277.947 90.0775C277.3 89.0417 277.61 87.6823 278.646 87.0349C279.669 86.3876 281.041 86.6983 281.689 87.734Z" fill="#00A873"/>
        <path opacity="0.03" d="M278.037 91.825C279.138 92.3558 280.458 91.8768 280.989 90.7763C281.52 89.6758 281.041 88.3552 279.941 87.8243C278.84 87.2935 277.519 87.7726 276.989 88.8731C276.471 89.9865 276.937 91.3071 278.037 91.825Z" fill="#00A873"/>
        <path opacity="0.12" d="M266.683 66.6291L262.618 79.6538L261.686 79.3561L265.453 67.2765L255.251 64.0915L261.22 79.369L260.3 79.7315L253.594 62.5508L266.683 66.6291Z" fill="#00A873"/>
        <path opacity="0.58" d="M264.29 80.0569C263.928 81.2221 262.685 81.8695 261.519 81.5069C260.354 81.1444 259.707 79.9015 260.069 78.7363C260.432 77.571 261.675 76.9237 262.84 77.2862C264.005 77.6487 264.653 78.8916 264.29 80.0569Z" fill="#00A873"/>
        <path opacity="0.32" d="M258.658 80.2503C259.099 81.3896 260.38 81.9463 261.52 81.5061C262.659 81.0659 263.216 79.7842 262.776 78.6448C262.335 77.5055 261.054 76.9488 259.914 77.389C258.775 77.8292 258.218 79.1109 258.658 80.2503Z" fill="#00A873"/>
        <path opacity="0.48" d="M326.135 -7L267.821 64.0535L297.664 -7H296.59L264.312 69.8667L327.404 -7H326.135Z" fill="#00A873"/>
        <path opacity="0.28" d="M296.605 -7L266.426 64.8303L267.332 65.2058L297.667 -7H296.605Z" fill="#00A873"/>
        <path opacity="0.28" d="M264.289 -7H262.775L241.541 11.1L241.27 11.346L264.781 65.2317L265.675 64.8303L242.461 11.6179L264.289 -7Z" fill="#00A873"/>
        <path opacity="0.25" d="M267.215 64.0406C267.707 65.154 267.189 66.4617 266.076 66.9536C264.962 67.4456 263.655 66.9278 263.163 65.8143C262.671 64.7009 263.189 63.3932 264.302 62.9012C265.416 62.4092 266.723 62.9271 267.215 64.0406Z" fill="#00A873"/>
        <path opacity="0.57" d="M264.883 64.0655C264.404 65.1919 264.935 66.4866 266.062 66.9657C267.188 67.4447 268.483 66.9139 268.962 65.7875C269.441 64.6611 268.91 63.3664 267.784 62.8873C266.657 62.4083 265.362 62.9391 264.883 64.0655Z" fill="#00A873"/>
        <path opacity="0.23" d="M444.961 -7L445.595 1.11781L432.169 -3.07704L433.114 -7H432.104L431.108 -2.85694L431.004 -2.41674L446.683 2.47725L445.945 -7H444.961Z" fill="#00A873"/>
        <path opacity="0.15" d="M432.109 -7L431.177 -3.14178L411.588 2.60672L417.608 -7H416.456L409.387 4.27689L431.72 -2.27432L431.992 -2.352L433.119 -7H432.109Z" fill="#00A873"/>
        <path opacity="0.43" d="M416.458 -7L410.36 2.72324L397.607 -7H395.988L410.191 3.83669L410.618 4.16037L417.61 -7H416.458Z" fill="#00A873"/>
        <path opacity="0.65" d="M478.863 175.178L435.723 151.601L477.387 136.828L478.863 139.923V137.644L477.892 135.611L433.328 151.407L478.863 176.291V175.178Z" fill="#00A873"/>
        <path opacity="0.03" d="M254.744 62.7969L261.217 79.3691L260.298 79.7316L254.096 63.8456L232.993 66.0077L259.884 80.1071L259.431 80.9745L229.652 65.3733L254.744 62.7969Z" fill="#00A873"/>
        <path opacity="0.28" d="M262.776 78.6448C263.216 79.7842 262.659 81.0659 261.52 81.5061C260.38 81.9463 259.099 81.3896 258.658 80.2503C258.218 79.1109 258.775 77.8292 259.914 77.389C261.054 76.9488 262.335 77.5055 262.776 78.6448Z" fill="#00A873"/>
        <path opacity="0.07" d="M258.539 82.4389C259.627 83.0086 260.96 82.5943 261.517 81.5067C262.087 80.4192 261.672 79.0856 260.585 78.5289C259.497 77.9592 258.164 78.3735 257.607 79.4611C257.037 80.5357 257.452 81.8822 258.539 82.4389Z" fill="#00A873"/>
        <path opacity="0.3" d="M241.811 9.18359L255.03 63.7555L233.46 65.9565L233.356 64.9854L253.813 62.888L241.914 13.7798L232.204 63.7166L231.246 63.5354L241.811 9.18359Z" fill="#00A873"/>
        <path opacity="0.6" d="M233.746 67.6652C232.529 67.7947 231.442 66.9013 231.325 65.6973C231.196 64.4802 232.089 63.3927 233.293 63.2762C234.51 63.1467 235.598 64.04 235.714 65.2441C235.844 66.4482 234.963 67.5357 233.746 67.6652Z" fill="#00A873"/>
        <path opacity="0.01" d="M229.58 63.0954C229.347 64.2995 230.124 65.4518 231.328 65.6848C232.532 65.9179 233.685 65.141 233.918 63.937C234.151 62.7329 233.374 61.5806 232.17 61.3476C230.966 61.1145 229.813 61.9043 229.58 63.0954Z" fill="#00A873"/>
        <path opacity="0.48" d="M231.555 0.884766L242.391 11.3071L242.34 11.5661L232.202 63.7169L231.529 63.5874L230.855 63.5744L231.555 0.884766ZM241.33 11.6438L232.513 3.16345L231.878 60.2988L241.33 11.6438Z" fill="#00A873"/>
        <path opacity="0.1" d="M233.918 63.9373C233.685 65.1414 232.519 65.9182 231.328 65.6852C230.124 65.4521 229.347 64.2869 229.58 63.0958C229.813 61.8917 230.979 61.1149 232.17 61.3479C233.361 61.581 234.151 62.7462 233.918 63.9373Z" fill="#00A873"/>
        <path opacity="0.22" d="M229.137 63.4578C229.124 64.6749 230.108 65.6847 231.325 65.6977C232.542 65.7106 233.552 64.7266 233.565 63.5096C233.578 62.2926 232.594 61.2827 231.377 61.2698C230.147 61.2568 229.15 62.2279 229.137 63.4578Z" fill="#00A873"/>
        <path opacity="0.04" d="M232.529 1.33777L231.83 63.6002L230.858 63.5872L231.545 2.71016L168.933 23.6456L229.849 64.1181L229.305 64.9337L166.719 23.3607L232.529 1.33777Z" fill="#00A873"/>
        <path opacity="0.24" d="M233.549 63.5096C233.536 64.7266 232.539 65.7106 231.309 65.6977C230.092 65.6847 229.108 64.6878 229.121 63.4578C229.134 62.2408 230.131 61.2568 231.361 61.2698C232.591 61.2827 233.575 62.2796 233.549 63.5096Z" fill="#00A873"/>
        <path opacity="0.08" d="M228.261 66.305C229.283 66.9782 230.656 66.7063 231.329 65.6835C232.002 64.6607 231.73 63.2883 230.708 62.6151C229.685 61.9418 228.312 62.2137 227.639 63.2365C226.966 64.2593 227.251 65.6317 228.261 66.305Z" fill="#00A873"/>
        <path opacity="0.54" d="M391.234 81.3516L414.643 135.82L395.028 141.568L394.743 140.636L413.296 135.185L392.309 86.3362L393.319 139.587L392.335 139.6L391.234 81.3516Z" fill="#00A873"/>
        <path opacity="0.69" d="M395.044 139.444C395.07 140.661 394.099 141.671 392.882 141.697C391.665 141.723 390.655 140.752 390.629 139.535C390.604 138.318 391.575 137.308 392.792 137.282C394.009 137.256 395.018 138.227 395.044 139.444Z" fill="#00A873"/>
        <path opacity="0.21" d="M394.366 138.952C393.201 139.301 392.527 140.518 392.864 141.697C393.214 142.862 394.431 143.535 395.609 143.198C396.774 142.849 397.447 141.632 397.111 140.454C396.774 139.275 395.544 138.602 394.366 138.952Z" fill="#00A873"/>
        <path opacity="0.19" d="M410.203 66.0469L414.333 133.385L413.478 133.436L412.689 133.773L391.184 83.7326L391.443 83.4995L410.203 66.0469ZM413.31 132.724L409.348 68.1702L392.362 83.9656L413.31 132.724Z" fill="#00A873"/>
        <path opacity="0.64" d="M416.041 133.166C416.118 134.383 415.186 135.432 413.969 135.509C412.752 135.587 411.703 134.655 411.626 133.438C411.548 132.221 412.48 131.172 413.697 131.094C414.914 131.017 415.963 131.949 416.041 133.166Z" fill="#00A873"/>
        <path opacity="0.02" d="M411.071 134.344C411.55 135.47 412.858 135.988 413.971 135.496C415.097 135.017 415.615 133.71 415.123 132.596C414.644 131.47 413.337 130.952 412.223 131.444C411.11 131.923 410.579 133.231 411.071 134.344Z" fill="#00A873"/>
        <path opacity="0.64" d="M392.244 83.0469L393.319 139.587L392.426 139.6L391.597 139.949L372.047 93.6376L392.244 83.0469ZM392.335 139.159L391.299 84.6523L373.303 94.0778L392.335 139.159Z" fill="#00A873"/>
        <path opacity="0.01" d="M394.044 138.796C394.523 139.922 393.992 141.217 392.866 141.696C391.739 142.175 390.445 141.644 389.965 140.518C389.486 139.392 390.017 138.097 391.144 137.618C392.27 137.139 393.565 137.67 394.044 138.796Z" fill="#00A873"/>
        <path opacity="0.26" d="M390.613 139.523C390.639 140.74 391.649 141.711 392.866 141.685C394.083 141.659 395.054 140.649 395.028 139.432C395.002 138.215 393.993 137.244 392.776 137.27C391.572 137.296 390.6 138.306 390.613 139.523Z" fill="#00A873"/>
        <path opacity="0.03" d="M411.033 -1.04492L410.295 65.011L409.311 64.998L409.945 7.92739L392.609 82.3989L407.899 68.183L408.573 68.8951L390.926 85.299L411.033 -1.04492Z" fill="#00A873"/>
        <path opacity="0.37" d="M409.658 70.2301C410.552 69.4015 410.604 68.0032 409.775 67.1098C408.946 66.2165 407.548 66.1647 406.655 66.9933C405.761 67.8219 405.71 69.2202 406.538 70.1136C407.367 71.0198 408.765 71.0587 409.658 70.2301Z" fill="#00A873"/>
        <path opacity="0.69" d="M410.486 5.5979L392.192 84.1736L371.684 94.9197L372.214 93.6638L409.217 5.18359L409.826 5.44253L410.486 5.5979ZM391.337 83.5133L408.686 9.01592L373.652 92.7834L391.337 83.5133Z" fill="#00A873"/>
        <path opacity="0.42" d="M407.598 4.62572C408.064 3.49932 409.359 2.96849 410.485 3.43459C411.612 3.90068 412.142 5.19539 411.676 6.32178C411.21 7.44818 409.916 7.97901 408.789 7.51291C407.65 7.04682 407.119 5.75211 407.598 4.62572Z" fill="#00A873"/>
        <path opacity="0.37" d="M412.145 6.10307C412.417 4.91194 411.679 3.72081 410.488 3.44892C409.297 3.17703 408.106 3.91501 407.834 5.10614C407.562 6.29727 408.3 7.4884 409.491 7.76029C410.669 8.01923 411.86 7.28125 412.145 6.10307Z" fill="#00A873"/>
        <path opacity="0.6" d="M472.92 69.3613L478.164 136.66L477.685 136.712L423.929 141.451L423.851 140.467L477.115 135.78L472.144 72.1061L423.424 139.729L422.621 139.146L472.92 69.3613Z" fill="#00A873"/>
        <path opacity="0.41" d="M424.185 143.146C422.968 143.25 421.893 142.357 421.789 141.14C421.686 139.923 422.579 138.848 423.796 138.744C425.013 138.641 426.088 139.534 426.191 140.751C426.295 141.968 425.402 143.043 424.185 143.146Z" fill="#00A873"/>
        <path opacity="0.15" d="M421.296 138.059C420.584 139.043 420.804 140.428 421.801 141.14C422.785 141.852 424.17 141.632 424.882 140.635C425.594 139.651 425.374 138.266 424.377 137.554C423.38 136.842 422.008 137.062 421.296 138.059Z" fill="#00A873"/>
        <path opacity="0.18" d="M478.859 135.625L423.847 140.467L423.925 141.451L473.836 137.049L434.619 150.954L423.731 142.085L423.109 142.849L434.425 152.055L478.859 136.311V135.625Z" fill="#00A873"/>
        <path opacity="0.68" d="M424.185 143.146C422.968 143.25 421.893 142.357 421.789 141.14C421.686 139.923 422.579 138.848 423.796 138.744C425.013 138.641 426.088 139.534 426.191 140.751C426.295 141.968 425.402 143.043 424.185 143.146Z" fill="#00A873"/>
        <path opacity="0.5" d="M424.901 140.817C423.955 140.04 422.557 140.195 421.793 141.14C421.016 142.085 421.172 143.484 422.117 144.248C423.062 145.024 424.46 144.869 425.224 143.924C426.001 142.992 425.859 141.593 424.901 140.817Z" fill="#00A873"/>
        <path opacity="0.37" d="M424.886 140.635C424.174 141.619 422.789 141.852 421.805 141.14C420.821 140.428 420.588 139.043 421.3 138.059C422.012 137.075 423.398 136.842 424.382 137.554C425.366 138.266 425.599 139.651 424.886 140.635Z" fill="#00A873"/>
        <path opacity="0.29" d="M418.707 141.644C419.691 142.356 421.076 142.136 421.789 141.139C422.501 140.142 422.281 138.77 421.284 138.058C420.3 137.346 418.914 137.566 418.202 138.563C417.49 139.547 417.71 140.932 418.707 141.644Z" fill="#00A873"/>
        <path opacity="0.49" d="M236.689 -7H235.614L231.445 2.12768L240.016 10.375L240.69 9.67582L232.636 1.90758L236.689 -7Z" fill="#00A873"/>
        <path opacity="0.49" d="M244.957 -7L241.785 9.32624L242.743 9.5075L245.954 -7H244.957Z" fill="#00A873"/>
        <path opacity="0.52" d="M241.797 8.356C242.677 9.19756 242.703 10.5958 241.861 11.4762C241.02 12.3566 239.609 12.3825 238.741 11.541C237.861 10.6994 237.835 9.30114 238.676 8.42074C239.518 7.54034 240.916 7.51444 241.797 8.356Z" fill="#00A873"/>
        <path opacity="0.48" d="M240.119 8.8863C239.886 10.0904 240.663 11.2427 241.867 11.4757C243.071 11.7088 244.224 10.9319 244.457 9.72786C244.69 8.52379 243.913 7.3715 242.709 7.13845C241.505 6.9054 240.352 7.69517 240.119 8.8863Z" fill="#00A873"/>
        <path opacity="0.22" d="M235.598 -7L232.465 -0.0862694L233.358 0.31509L236.686 -7H235.598Z" fill="#00A873"/>
        <path opacity="0.24" d="M233.979 -0.423497C234.121 0.793527 233.254 1.88108 232.036 2.0235C230.819 2.16592 229.732 1.29846 229.59 0.0814383C229.447 -1.13559 230.315 -2.22314 231.532 -2.36556C232.736 -2.50797 233.836 -1.64052 233.979 -0.423497Z" fill="#00A873"/>
        <path opacity="0.29" d="M230.933 -0.90228C230.428 0.211167 230.92 1.51882 232.033 2.02376C233.147 2.52869 234.454 2.0367 234.959 0.923255C235.464 -0.190192 234.972 -1.49785 233.859 -2.00278C232.758 -2.50772 231.438 -2.01573 230.933 -0.90228Z" fill="#00A873"/>
        <path opacity="0.49" d="M372.607 92.4335L373.125 93.6634L392.507 139.574L391.6 139.949L372.736 95.2818L349.911 168.407L390.836 142.409L391.367 143.238L348.176 170.66L372.607 92.4335Z" fill="#00A873"/>
        <path opacity="0.11" d="M394.044 138.796C394.523 139.922 393.992 141.217 392.866 141.696C391.739 142.175 390.445 141.644 389.965 140.518C389.486 139.392 390.017 138.097 391.144 137.618C392.27 137.139 393.565 137.67 394.044 138.796Z" fill="#00A873"/>
        <path opacity="0.65" d="M392.194 144.739C393.229 144.079 393.527 142.72 392.88 141.684C392.22 140.648 390.86 140.35 389.824 140.998C388.789 141.658 388.491 143.017 389.138 144.053C389.799 145.089 391.158 145.4 392.194 144.739Z" fill="#00A873"/>
        <path opacity="0.09" d="M373.758 92.0195L350.13 167.682L349.198 167.384L371.583 95.6965L316.739 152.664L347.385 168.148L346.945 169.029L315.121 152.948L315.574 152.469L373.758 92.0195Z" fill="#00A873"/>
        <path opacity="0.65" d="M351.81 168.082C351.447 169.247 350.204 169.895 349.039 169.532C347.874 169.17 347.226 167.927 347.589 166.762C347.951 165.596 349.194 164.949 350.36 165.312C351.525 165.674 352.172 166.917 351.81 168.082Z" fill="#00A873"/>
        <path opacity="0.25" d="M346.06 170.505C347.148 171.062 348.481 170.622 349.025 169.534C349.569 168.447 349.142 167.113 348.054 166.57C346.966 166.013 345.633 166.453 345.089 167.541C344.532 168.628 344.973 169.962 346.06 170.505Z" fill="#00A873"/>
        <path opacity="0.24" d="M449.405 -7H448.369L445.547 2.06294L478.86 17.6771V16.5895L446.738 1.53211L449.405 -7Z" fill="#00A873"/>
        <path opacity="0.37" d="M448.37 -7L446.428 -0.772464L445.949 -7H444.965L445.845 4.36752L449.406 -7H448.37Z" fill="#00A873"/>
    </g>
    <defs>
        <clipPath id="clip0_1012_7750">
            <rect width="479" height="222" fill="white"/>
        </clipPath>
    </defs>
</svg>
