<svg width="16" height="17" viewBox="0 0 16 17" fill="none" xmlns="http://www.w3.org/2000/svg">
<path fill-rule="evenodd" clip-rule="evenodd" d="M15 8.29688C15 12.1629 11.866 15.2969 8 15.2969C4.13401 15.2969 1 12.1629 1 8.29688C1 4.43088 4.13401 1.29688 8 1.29688C11.866 1.29688 15 4.43088 15 8.29688ZM16 8.29688C16 12.7152 12.4183 16.2969 8 16.2969C3.58172 16.2969 0 12.7152 0 8.29688C0 3.8786 3.58172 0.296875 8 0.296875C12.4183 0.296875 16 3.8786 16 8.29688ZM6.50971 4.36719C6.23356 4.36719 6.00971 4.59104 6.00971 4.86719C6.00971 5.14333 6.23356 5.36719 6.50971 5.36719H10.3935L4.21676 11.5439C4.0215 11.7392 4.0215 12.0558 4.21676 12.251C4.41202 12.4463 4.7286 12.4463 4.92387 12.251L11.1006 6.07429V10.2005C11.1006 10.4767 11.3245 10.7005 11.6006 10.7005C11.8768 10.7005 12.1006 10.4767 12.1006 10.2005V4.86719C12.1006 4.59104 11.8768 4.36719 11.6006 4.36719H6.50971Z" fill="#161717"/>
<path fill-rule="evenodd" clip-rule="evenodd" d="M15 8.29688C15 12.1629 11.866 15.2969 8 15.2969C4.13401 15.2969 1 12.1629 1 8.29688C1 4.43088 4.13401 1.29688 8 1.29688C11.866 1.29688 15 4.43088 15 8.29688ZM16 8.29688C16 12.7152 12.4183 16.2969 8 16.2969C3.58172 16.2969 0 12.7152 0 8.29688C0 3.8786 3.58172 0.296875 8 0.296875C12.4183 0.296875 16 3.8786 16 8.29688ZM6.50971 4.36719C6.23356 4.36719 6.00971 4.59104 6.00971 4.86719C6.00971 5.14333 6.23356 5.36719 6.50971 5.36719H10.3935L4.21676 11.5439C4.0215 11.7392 4.0215 12.0558 4.21676 12.251C4.41202 12.4463 4.7286 12.4463 4.92387 12.251L11.1006 6.07429V10.2005C11.1006 10.4767 11.3245 10.7005 11.6006 10.7005C11.8768 10.7005 12.1006 10.4767 12.1006 10.2005V4.86719C12.1006 4.59104 11.8768 4.36719 11.6006 4.36719H6.50971Z" fill="url(#paint0_linear_1005_16657)"/>
<defs>
<linearGradient id="paint0_linear_1005_16657" x1="9.10683" y1="4.66896" x2="-0.298258" y2="5.03185" gradientUnits="userSpaceOnUse">
<stop stop-color="#11CB79"/>
<stop offset="0.441316" stop-color="#11A692"/>
<stop offset="1" stop-color="#002366"/>
</linearGradient>
</defs>
</svg>
