<svg width="50" height="50" viewBox="0 0 50 50" fill="none" xmlns="http://www.w3.org/2000/svg">
<circle cx="25" cy="25" r="24" stroke="#161717" stroke-width="2"/>
<circle cx="25" cy="25" r="24" stroke="url(#paint0_linear_392_58288)" stroke-width="2"/>
<g clip-path="url(#clip0_392_58288)">
<path d="M31.9422 15C32.4544 15 32.9493 15.1849 33.3361 15.5207C33.7229 15.8565 33.9754 16.3206 34.0474 16.8277L34.0655 16.9936L34.9958 31.8789C35.0309 32.4374 34.8445 32.9873 34.4769 33.4093C34.1092 33.8312 33.5901 34.0913 33.032 34.133L32.8725 34.1383H18.1265C17.5669 34.1383 17.0298 33.9178 16.6318 33.5245C16.2337 33.1312 16.0067 32.5969 16 32.0373L16.0032 31.8789L16.9335 16.9936C16.9655 16.4822 17.1811 15.9996 17.5405 15.6345C17.8999 15.2694 18.3791 15.0464 18.8899 15.0064L19.0557 15H31.9422ZM28.6887 19.253C28.4283 19.253 28.1769 19.3486 27.9823 19.5216C27.7877 19.6947 27.6634 19.9332 27.6329 20.1918L27.6254 20.3162C27.6254 20.8802 27.4014 21.421 27.0026 21.8198C26.6038 22.2186 26.0629 22.4427 25.499 22.4427C24.935 22.4427 24.3941 22.2186 23.9953 21.8198C23.5965 21.421 23.3725 20.8802 23.3725 20.3162C23.3725 20.0342 23.2605 19.7638 23.0611 19.5644C22.8617 19.365 22.5912 19.253 22.3093 19.253C22.0273 19.253 21.7568 19.365 21.5574 19.5644C21.358 19.7638 21.246 20.0342 21.246 20.3162C21.246 21.4441 21.6941 22.5259 22.4917 23.3235C23.2893 24.1211 24.371 24.5691 25.499 24.5691C26.6269 24.5691 27.7087 24.1211 28.5063 23.3235C29.3038 22.5259 29.7519 21.4441 29.7519 20.3162C29.7519 20.0342 29.6399 19.7638 29.4405 19.5644C29.2411 19.365 28.9707 19.253 28.6887 19.253Z" fill="#161717"/>
<path d="M31.9422 15C32.4544 15 32.9493 15.1849 33.3361 15.5207C33.7229 15.8565 33.9754 16.3206 34.0474 16.8277L34.0655 16.9936L34.9958 31.8789C35.0309 32.4374 34.8445 32.9873 34.4769 33.4093C34.1092 33.8312 33.5901 34.0913 33.032 34.133L32.8725 34.1383H18.1265C17.5669 34.1383 17.0298 33.9178 16.6318 33.5245C16.2337 33.1312 16.0067 32.5969 16 32.0373L16.0032 31.8789L16.9335 16.9936C16.9655 16.4822 17.1811 15.9996 17.5405 15.6345C17.8999 15.2694 18.3791 15.0464 18.8899 15.0064L19.0557 15H31.9422ZM28.6887 19.253C28.4283 19.253 28.1769 19.3486 27.9823 19.5216C27.7877 19.6947 27.6634 19.9332 27.6329 20.1918L27.6254 20.3162C27.6254 20.8802 27.4014 21.421 27.0026 21.8198C26.6038 22.2186 26.0629 22.4427 25.499 22.4427C24.935 22.4427 24.3941 22.2186 23.9953 21.8198C23.5965 21.421 23.3725 20.8802 23.3725 20.3162C23.3725 20.0342 23.2605 19.7638 23.0611 19.5644C22.8617 19.365 22.5912 19.253 22.3093 19.253C22.0273 19.253 21.7568 19.365 21.5574 19.5644C21.358 19.7638 21.246 20.0342 21.246 20.3162C21.246 21.4441 21.6941 22.5259 22.4917 23.3235C23.2893 24.1211 24.371 24.5691 25.499 24.5691C26.6269 24.5691 27.7087 24.1211 28.5063 23.3235C29.3038 22.5259 29.7519 21.4441 29.7519 20.3162C29.7519 20.0342 29.6399 19.7638 29.4405 19.5644C29.2411 19.365 28.9707 19.253 28.6887 19.253Z" fill="url(#paint1_linear_392_58288)"/>
</g>
<defs>
<linearGradient id="paint0_linear_392_58288" x1="28.3205" y1="14.1163" x2="0.105225" y2="15.2049" gradientUnits="userSpaceOnUse">
<stop stop-color="#11CB79"/>
<stop offset="0.441316" stop-color="#11A692"/>
<stop offset="1" stop-color="#002366"/>
</linearGradient>
<linearGradient id="paint1_linear_392_58288" x1="26.8144" y1="20.2296" x2="15.6456" y2="20.6575" gradientUnits="userSpaceOnUse">
<stop stop-color="#11CB79"/>
<stop offset="0.441316" stop-color="#11A692"/>
<stop offset="1" stop-color="#002366"/>
</linearGradient>
<clipPath id="clip0_392_58288">
<rect width="24" height="24" fill="white" transform="translate(13 13)"/>
</clipPath>
</defs>
</svg>
