<svg width="50" height="50" viewBox="0 0 50 50" fill="none" xmlns="http://www.w3.org/2000/svg">
<circle cx="25" cy="25" r="24" stroke="#161717" stroke-width="2"/>
<circle cx="25" cy="25" r="24" stroke="url(#paint0_linear_1064_13036)" stroke-width="2"/>
<path fill-rule="evenodd" clip-rule="evenodd" d="M31.3369 12.4445C30.7538 11.856 29.8041 11.8516 29.2156 12.4346C28.6271 13.0177 28.6226 13.9674 29.2057 14.5559L31.4399 16.8111L15.8248 16.8109C14.9964 16.8109 14.3248 17.4825 14.3248 18.3109C14.3248 19.1393 14.9964 19.8109 15.8248 19.8109L31.3922 19.8111L28.9418 22.2387C28.3533 22.8218 28.3489 23.7715 28.9319 24.36C29.5149 24.9485 30.4647 24.9529 31.0532 24.3699L36.0932 19.3767C36.6817 18.7937 36.6861 17.8439 36.1031 17.2554L31.3369 12.4445ZM18.2006 36.9813C18.7837 37.5698 19.7334 37.5742 20.3219 36.9912C20.9104 36.4081 20.9149 35.4584 20.3318 34.8699L18.0976 32.6147L33.7127 32.6149C34.5411 32.6149 35.2127 31.9433 35.2127 31.1149C35.2127 30.2865 34.5411 29.6149 33.7127 29.6149L18.1453 29.6147L20.5957 27.1871C21.1842 26.604 21.1886 25.6543 20.6056 25.0658C20.0226 24.4773 19.0728 24.4728 18.4843 25.0559L13.4443 30.0491C12.8558 30.6321 12.8514 31.5819 13.4344 32.1704L18.2006 36.9813Z" fill="#161717"/>
<path fill-rule="evenodd" clip-rule="evenodd" d="M31.3369 12.4445C30.7538 11.856 29.8041 11.8516 29.2156 12.4346C28.6271 13.0177 28.6226 13.9674 29.2057 14.5559L31.4399 16.8111L15.8248 16.8109C14.9964 16.8109 14.3248 17.4825 14.3248 18.3109C14.3248 19.1393 14.9964 19.8109 15.8248 19.8109L31.3922 19.8111L28.9418 22.2387C28.3533 22.8218 28.3489 23.7715 28.9319 24.36C29.5149 24.9485 30.4647 24.9529 31.0532 24.3699L36.0932 19.3767C36.6817 18.7937 36.6861 17.8439 36.1031 17.2554L31.3369 12.4445ZM18.2006 36.9813C18.7837 37.5698 19.7334 37.5742 20.3219 36.9912C20.9104 36.4081 20.9149 35.4584 20.3318 34.8699L18.0976 32.6147L33.7127 32.6149C34.5411 32.6149 35.2127 31.9433 35.2127 31.1149C35.2127 30.2865 34.5411 29.6149 33.7127 29.6149L18.1453 29.6147L20.5957 27.1871C21.1842 26.604 21.1886 25.6543 20.6056 25.0658C20.0226 24.4773 19.0728 24.4728 18.4843 25.0559L13.4443 30.0491C12.8558 30.6321 12.8514 31.5819 13.4344 32.1704L18.2006 36.9813Z" fill="url(#paint1_linear_1064_13036)"/>
<defs>
<linearGradient id="paint0_linear_1064_13036" x1="28.3205" y1="14.1163" x2="0.105225" y2="15.2049" gradientUnits="userSpaceOnUse">
<stop stop-color="#11CB79"/>
<stop offset="0.441316" stop-color="#11A692"/>
<stop offset="1" stop-color="#002366"/>
</linearGradient>
<linearGradient id="paint1_linear_1064_13036" x1="26.397" y1="18.9478" x2="12.5583" y2="19.4421" gradientUnits="userSpaceOnUse">
<stop stop-color="#11CB79"/>
<stop offset="0.441316" stop-color="#11A692"/>
<stop offset="1" stop-color="#002366"/>
</linearGradient>
</defs>
</svg>
