<svg width="555" height="104" viewBox="0 0 555 104" fill="none" xmlns="http://www.w3.org/2000/svg">
<path d="M0 47L35.064 47L72 47" stroke="#CFD1D3" stroke-width="1.5" stroke-dasharray="2 2"/>
<path d="M52.5 47H296.637H508" stroke="#A5A9AE"/>
<path d="M31.2511 75.6H32.4751V84H31.2511V75.6ZM36.7213 84.144C36.2253 84.144 35.7853 84.06 35.4013 83.892C35.0253 83.724 34.7253 83.496 34.5013 83.208C34.2773 82.912 34.1453 82.576 34.1053 82.2H35.2573C35.2973 82.512 35.4533 82.752 35.7253 82.92C35.9973 83.08 36.3373 83.16 36.7453 83.16C37.1373 83.16 37.4373 83.084 37.6453 82.932C37.8613 82.78 37.9693 82.58 37.9693 82.332C37.9693 82.156 37.9013 82.008 37.7653 81.888C37.6293 81.768 37.3893 81.668 37.0453 81.588L36.0253 81.36C35.4733 81.232 35.0533 81.024 34.7653 80.736C34.4853 80.448 34.3453 80.096 34.3453 79.68C34.3453 79.328 34.4413 79.016 34.6333 78.744C34.8333 78.464 35.1053 78.248 35.4493 78.096C35.8013 77.936 36.2013 77.856 36.6493 77.856C37.3213 77.856 37.8613 78.024 38.2693 78.36C38.6853 78.696 38.9373 79.14 39.0253 79.692H37.8733C37.8413 79.436 37.7133 79.224 37.4893 79.056C37.2733 78.888 36.9773 78.804 36.6013 78.804C36.2413 78.804 35.9613 78.88 35.7613 79.032C35.5693 79.176 35.4733 79.364 35.4733 79.596C35.4733 79.788 35.5413 79.944 35.6773 80.064C35.8133 80.176 36.0493 80.264 36.3853 80.328L37.4173 80.532C37.9693 80.644 38.3853 80.852 38.6653 81.156C38.9453 81.46 39.0853 81.828 39.0853 82.26C39.0853 82.812 38.8693 83.264 38.4373 83.616C38.0133 83.968 37.4413 84.144 36.7213 84.144ZM42.7799 84.144C42.2839 84.144 41.8439 84.06 41.4599 83.892C41.0839 83.724 40.7839 83.496 40.5599 83.208C40.3359 82.912 40.2039 82.576 40.1639 82.2H41.3159C41.3559 82.512 41.5119 82.752 41.7839 82.92C42.0559 83.08 42.3959 83.16 42.8039 83.16C43.1959 83.16 43.4959 83.084 43.7039 82.932C43.9199 82.78 44.0279 82.58 44.0279 82.332C44.0279 82.156 43.9599 82.008 43.8239 81.888C43.6879 81.768 43.4479 81.668 43.1039 81.588L42.0839 81.36C41.5319 81.232 41.1119 81.024 40.8239 80.736C40.5439 80.448 40.4039 80.096 40.4039 79.68C40.4039 79.328 40.4999 79.016 40.6919 78.744C40.8919 78.464 41.1639 78.248 41.5079 78.096C41.8599 77.936 42.2599 77.856 42.7079 77.856C43.3799 77.856 43.9199 78.024 44.3279 78.36C44.7439 78.696 44.9959 79.14 45.0839 79.692H43.9319C43.8999 79.436 43.7719 79.224 43.5479 79.056C43.3319 78.888 43.0359 78.804 42.6599 78.804C42.2999 78.804 42.0199 78.88 41.8199 79.032C41.6279 79.176 41.5319 79.364 41.5319 79.596C41.5319 79.788 41.5999 79.944 41.7359 80.064C41.8719 80.176 42.1079 80.264 42.4439 80.328L43.4759 80.532C44.0279 80.644 44.4439 80.852 44.7239 81.156C45.0039 81.46 45.1439 81.828 45.1439 82.26C45.1439 82.812 44.9279 83.264 44.4959 83.616C44.0719 83.968 43.4999 84.144 42.7799 84.144ZM48.6345 84.144C48.2185 84.144 47.8625 84.052 47.5665 83.868C47.2785 83.684 47.0585 83.42 46.9065 83.076C46.7545 82.724 46.6785 82.304 46.6785 81.816V78H47.8305V81.42C47.8305 82.012 47.9225 82.44 48.1065 82.704C48.2985 82.968 48.5945 83.1 48.9945 83.1C49.2825 83.1 49.5585 83.016 49.8225 82.848C50.0865 82.672 50.2985 82.424 50.4585 82.104C50.6265 81.784 50.7105 81.416 50.7105 81V78H51.8625V84H50.7225V82.236L50.8905 82.464C50.6665 82.936 50.3545 83.336 49.9545 83.664C49.5545 83.984 49.1145 84.144 48.6345 84.144ZM55.5189 84.144C54.9269 84.144 54.4429 83.98 54.0669 83.652C53.6989 83.324 53.5149 82.88 53.5149 82.32C53.5149 81.712 53.7109 81.256 54.1029 80.952C54.5029 80.648 55.0629 80.488 55.7829 80.472L57.5469 80.448V80.268C57.5469 79.788 57.4269 79.428 57.1869 79.188C56.9469 78.948 56.6069 78.828 56.1669 78.828C55.7269 78.828 55.3869 78.928 55.1469 79.128C54.9149 79.32 54.7829 79.544 54.7509 79.8H53.5629C53.6029 79.472 53.7269 79.16 53.9349 78.864C54.1509 78.56 54.4509 78.316 54.8349 78.132C55.2189 77.948 55.6669 77.856 56.1789 77.856C56.7309 77.856 57.1909 77.964 57.5589 78.18C57.9269 78.388 58.1989 78.672 58.3749 79.032C58.5509 79.392 58.6389 79.804 58.6389 80.268V82.608C58.6469 82.896 58.6669 83.156 58.6989 83.388C58.7309 83.62 58.7829 83.824 58.8549 84H57.7269L57.7149 83.928C57.6669 83.656 57.6309 83.4 57.6069 83.16C57.5829 82.92 57.5789 82.632 57.5949 82.296L57.7269 82.716C57.5669 83.148 57.2989 83.496 56.9229 83.76C56.5469 84.016 56.0789 84.144 55.5189 84.144ZM55.7949 83.184C56.2029 83.184 56.5589 83.088 56.8629 82.896C57.1669 82.696 57.3949 82.42 57.5469 82.068V81.408L55.7949 81.432C55.4349 81.44 55.1549 81.512 54.9549 81.648C54.7549 81.776 54.6549 81.984 54.6549 82.272C54.6549 82.56 54.7589 82.784 54.9669 82.944C55.1829 83.104 55.4589 83.184 55.7949 83.184ZM60.5903 78H61.7303V79.764L61.5623 79.536C61.7863 79.064 62.0983 78.668 62.4983 78.348C62.8983 78.02 63.3383 77.856 63.8183 77.856C64.2343 77.856 64.5863 77.948 64.8743 78.132C65.1703 78.316 65.3943 78.584 65.5463 78.936C65.6983 79.28 65.7743 79.696 65.7743 80.184V84H64.6223V80.58C64.6223 79.988 64.5263 79.56 64.3343 79.296C64.1503 79.032 63.8583 78.9 63.4583 78.9C63.1703 78.9 62.8943 78.988 62.6303 79.164C62.3663 79.332 62.1503 79.576 61.9823 79.896C61.8223 80.216 61.7423 80.584 61.7423 81V84H60.5903V78ZM70.0788 84.144C69.5348 84.144 69.0548 84.012 68.6388 83.748C68.2228 83.484 67.8988 83.116 67.6668 82.644C67.4348 82.172 67.3188 81.628 67.3188 81.012C67.3188 80.396 67.4348 79.852 67.6668 79.38C67.9068 78.9 68.2348 78.528 68.6508 78.264C69.0748 77.992 69.5628 77.856 70.1148 77.856C70.5948 77.856 71.0228 77.956 71.3988 78.156C71.7748 78.348 72.0748 78.616 72.2988 78.96C72.5308 79.296 72.6668 79.676 72.7068 80.1H71.5548C71.5068 79.74 71.3548 79.444 71.0988 79.212C70.8428 78.972 70.5068 78.852 70.0908 78.852C69.7708 78.852 69.4908 78.94 69.2508 79.116C69.0108 79.284 68.8228 79.528 68.6868 79.848C68.5588 80.168 68.4948 80.552 68.4948 81C68.4948 81.688 68.6388 82.22 68.9268 82.596C69.2228 82.964 69.6228 83.148 70.1268 83.148C70.5508 83.148 70.8788 83.024 71.1108 82.776C71.3428 82.528 71.4868 82.212 71.5428 81.828H72.6948C72.6388 82.268 72.4948 82.664 72.2628 83.016C72.0388 83.368 71.7348 83.644 71.3508 83.844C70.9748 84.044 70.5508 84.144 70.0788 84.144ZM76.7384 84.144C76.1624 84.144 75.6544 84.016 75.2144 83.76C74.7744 83.496 74.4344 83.128 74.1944 82.656C73.9544 82.176 73.8344 81.628 73.8344 81.012C73.8344 80.396 73.9544 79.848 74.1944 79.368C74.4344 78.888 74.7664 78.516 75.1904 78.252C75.6224 77.988 76.1184 77.856 76.6784 77.856C77.2064 77.856 77.6704 77.976 78.0704 78.216C78.4784 78.456 78.7944 78.8 79.0184 79.248C79.2424 79.688 79.3544 80.204 79.3544 80.796C79.3544 80.82 79.3544 80.86 79.3544 80.916C79.3544 80.964 79.3504 81.024 79.3424 81.096H74.5544V80.136H78.6704L78.1304 80.616C78.1304 80.568 78.1304 80.52 78.1304 80.472C78.1304 80.424 78.1304 80.376 78.1304 80.328C78.1304 79.864 77.9944 79.496 77.7224 79.224C77.4584 78.952 77.1104 78.816 76.6784 78.816C76.3904 78.816 76.1264 78.88 75.8864 79.008C75.6544 79.136 75.4624 79.316 75.3104 79.548C75.1664 79.78 75.0864 80.04 75.0704 80.328C75.0624 80.376 75.0544 80.428 75.0464 80.484C75.0384 80.532 75.0304 80.584 75.0224 80.64C75.0144 80.696 75.0064 80.748 74.9984 80.796C74.9904 80.844 74.9824 80.896 74.9744 80.952C74.9744 81.64 75.1344 82.18 75.4544 82.572C75.7744 82.956 76.2064 83.148 76.7504 83.148C77.1104 83.148 77.4104 83.064 77.6504 82.896C77.8984 82.728 78.0704 82.496 78.1664 82.2H79.3064C79.1864 82.768 78.9024 83.236 78.4544 83.604C78.0064 83.964 77.4344 84.144 76.7384 84.144ZM45.3281 100.12C44.8721 100.12 44.4761 99.988 44.1401 99.724C43.8121 99.452 43.5601 99.08 43.3841 98.608C43.2161 98.128 43.1321 97.584 43.1321 96.976C43.1321 96.368 43.2161 95.832 43.3841 95.368C43.5601 94.896 43.8081 94.528 44.1281 94.264C44.4561 93.992 44.8481 93.856 45.3041 93.856C45.6161 93.856 45.9161 93.928 46.2041 94.072C46.4921 94.208 46.7561 94.408 46.9961 94.672C47.2361 94.928 47.4401 95.236 47.6081 95.596L47.4161 95.764V91.6H48.5681V100H47.4281V98.176L47.6201 98.332C47.3721 98.9 47.0441 99.34 46.6361 99.652C46.2361 99.964 45.8001 100.12 45.3281 100.12ZM45.6641 99.1C45.9201 99.1 46.1881 99.012 46.4681 98.836C46.7561 98.66 46.9921 98.412 47.1761 98.092C47.3681 97.764 47.4641 97.396 47.4641 96.988C47.4641 96.572 47.3641 96.204 47.1641 95.884C46.9721 95.564 46.7321 95.316 46.4441 95.14C46.1641 94.964 45.8961 94.876 45.6401 94.876C45.3681 94.876 45.1281 94.956 44.9201 95.116C44.7201 95.276 44.5641 95.512 44.4521 95.824C44.3481 96.136 44.2961 96.52 44.2961 96.976C44.2961 97.664 44.4201 98.192 44.6681 98.56C44.9161 98.92 45.2481 99.1 45.6641 99.1ZM52.2259 100.144C51.6339 100.144 51.1499 99.98 50.7739 99.652C50.4059 99.324 50.2219 98.88 50.2219 98.32C50.2219 97.712 50.4179 97.256 50.8099 96.952C51.2099 96.648 51.7699 96.488 52.4899 96.472L54.2539 96.448V96.268C54.2539 95.788 54.1339 95.428 53.8939 95.188C53.6539 94.948 53.3139 94.828 52.8739 94.828C52.4339 94.828 52.0939 94.928 51.8539 95.128C51.6219 95.32 51.4899 95.544 51.4579 95.8H50.2699C50.3099 95.472 50.4339 95.16 50.6419 94.864C50.8579 94.56 51.1579 94.316 51.5419 94.132C51.9259 93.948 52.3739 93.856 52.8859 93.856C53.4379 93.856 53.8979 93.964 54.2659 94.18C54.6339 94.388 54.9059 94.672 55.0819 95.032C55.2579 95.392 55.3459 95.804 55.3459 96.268V98.608C55.3539 98.896 55.3739 99.156 55.4059 99.388C55.4379 99.62 55.4899 99.824 55.5619 100H54.4339L54.4219 99.928C54.3739 99.656 54.3379 99.4 54.3139 99.16C54.2899 98.92 54.2859 98.632 54.3019 98.296L54.4339 98.716C54.2739 99.148 54.0059 99.496 53.6299 99.76C53.2539 100.016 52.7859 100.144 52.2259 100.144ZM52.5019 99.184C52.9099 99.184 53.2659 99.088 53.5699 98.896C53.8739 98.696 54.1019 98.42 54.2539 98.068V97.408L52.5019 97.432C52.1419 97.44 51.8619 97.512 51.6619 97.648C51.4619 97.776 51.3619 97.984 51.3619 98.272C51.3619 98.56 51.4659 98.784 51.6739 98.944C51.8899 99.104 52.1659 99.184 52.5019 99.184ZM59.363 100C58.811 100 58.395 99.888 58.115 99.664C57.843 99.432 57.707 99.076 57.707 98.596V92.608L58.859 91.84V98.344C58.859 98.576 58.911 98.744 59.015 98.848C59.127 98.952 59.331 99.004 59.627 99.004H60.551V100H59.363ZM56.531 94H60.215V94.96H56.531V94ZM64.2813 100.144C63.7053 100.144 63.1973 100.016 62.7573 99.76C62.3173 99.496 61.9773 99.128 61.7373 98.656C61.4973 98.176 61.3773 97.628 61.3773 97.012C61.3773 96.396 61.4973 95.848 61.7373 95.368C61.9773 94.888 62.3093 94.516 62.7333 94.252C63.1653 93.988 63.6613 93.856 64.2213 93.856C64.7493 93.856 65.2133 93.976 65.6133 94.216C66.0213 94.456 66.3373 94.8 66.5613 95.248C66.7853 95.688 66.8973 96.204 66.8973 96.796C66.8973 96.82 66.8973 96.86 66.8973 96.916C66.8973 96.964 66.8933 97.024 66.8853 97.096H62.0973V96.136H66.2133L65.6733 96.616C65.6733 96.568 65.6733 96.52 65.6733 96.472C65.6733 96.424 65.6733 96.376 65.6733 96.328C65.6733 95.864 65.5373 95.496 65.2653 95.224C65.0013 94.952 64.6533 94.816 64.2213 94.816C63.9333 94.816 63.6693 94.88 63.4293 95.008C63.1973 95.136 63.0053 95.316 62.8533 95.548C62.7093 95.78 62.6293 96.04 62.6133 96.328C62.6053 96.376 62.5973 96.428 62.5893 96.484C62.5813 96.532 62.5733 96.584 62.5653 96.64C62.5573 96.696 62.5493 96.748 62.5413 96.796C62.5333 96.844 62.5253 96.896 62.5173 96.952C62.5173 97.64 62.6773 98.18 62.9973 98.572C63.3173 98.956 63.7493 99.148 64.2933 99.148C64.6533 99.148 64.9533 99.064 65.1933 98.896C65.4413 98.728 65.6133 98.496 65.7093 98.2H66.8493C66.7293 98.768 66.4453 99.236 65.9973 99.604C65.5493 99.964 64.9773 100.144 64.2813 100.144Z" fill="#161717"/>
<path d="M489.648 10C489.704 9.528 489.82 9.112 489.996 8.752C490.172 8.392 490.428 8.048 490.764 7.72C491.1 7.384 491.552 7.02 492.12 6.628L492.708 6.22C493.244 5.844 493.652 5.496 493.932 5.176C494.212 4.856 494.352 4.48 494.352 4.048C494.352 3.584 494.204 3.216 493.908 2.944C493.612 2.664 493.196 2.524 492.66 2.524C492.092 2.524 491.648 2.696 491.328 3.04C491.008 3.376 490.836 3.804 490.812 4.324H489.636C489.644 3.78 489.78 3.292 490.044 2.86C490.308 2.42 490.668 2.076 491.124 1.828C491.58 1.58 492.092 1.456 492.66 1.456C493.244 1.456 493.756 1.568 494.196 1.792C494.636 2.008 494.976 2.316 495.216 2.716C495.456 3.108 495.576 3.564 495.576 4.084C495.576 4.444 495.504 4.784 495.36 5.104C495.216 5.424 494.992 5.736 494.688 6.04C494.384 6.344 493.988 6.66 493.5 6.988L492.912 7.384C492.896 7.392 492.88 7.404 492.864 7.42C492.848 7.428 492.832 7.436 492.816 7.444C492.296 7.788 491.916 8.076 491.676 8.308C491.436 8.54 491.28 8.82 491.208 9.148L490.8 8.92H495.708V10H489.648ZM497.019 10C497.075 9.528 497.191 9.112 497.367 8.752C497.543 8.392 497.799 8.048 498.135 7.72C498.471 7.384 498.923 7.02 499.491 6.628L500.079 6.22C500.615 5.844 501.023 5.496 501.303 5.176C501.583 4.856 501.723 4.48 501.723 4.048C501.723 3.584 501.575 3.216 501.279 2.944C500.983 2.664 500.567 2.524 500.031 2.524C499.463 2.524 499.019 2.696 498.699 3.04C498.379 3.376 498.207 3.804 498.183 4.324H497.007C497.015 3.78 497.151 3.292 497.415 2.86C497.679 2.42 498.039 2.076 498.495 1.828C498.951 1.58 499.463 1.456 500.031 1.456C500.615 1.456 501.127 1.568 501.567 1.792C502.007 2.008 502.347 2.316 502.587 2.716C502.827 3.108 502.947 3.564 502.947 4.084C502.947 4.444 502.875 4.784 502.731 5.104C502.587 5.424 502.363 5.736 502.059 6.04C501.755 6.344 501.359 6.66 500.871 6.988L500.283 7.384C500.267 7.392 500.251 7.404 500.235 7.42C500.219 7.428 500.203 7.436 500.187 7.444C499.667 7.788 499.287 8.076 499.047 8.308C498.807 8.54 498.651 8.82 498.579 9.148L498.171 8.92H503.079V10H497.019ZM508.118 1.6H511.442C512.178 1.6 512.838 1.76 513.422 2.08C514.014 2.4 514.482 2.876 514.826 3.508C515.17 4.132 515.342 4.888 515.342 5.776C515.342 6.672 515.166 7.44 514.814 8.08C514.462 8.712 513.978 9.192 513.362 9.52C512.746 9.84 512.046 10 511.262 10H508.118V1.6ZM511.022 8.896C511.622 8.896 512.15 8.784 512.606 8.56C513.062 8.336 513.418 7.996 513.674 7.54C513.938 7.076 514.07 6.5 514.07 5.812C514.07 5.164 513.954 4.604 513.722 4.132C513.498 3.66 513.178 3.3 512.762 3.052C512.346 2.804 511.862 2.68 511.31 2.68H509.342V8.896H511.022ZM517.247 1.6H523.535V2.68H518.471V4.96H521.915V6.064H518.471V8.896H523.799V10H517.247V1.6ZM528.696 10.168C527.888 10.168 527.18 9.988 526.572 9.628C525.972 9.268 525.504 8.76 525.168 8.104C524.84 7.448 524.676 6.684 524.676 5.812C524.676 4.972 524.844 4.22 525.18 3.556C525.516 2.892 525.992 2.372 526.608 1.996C527.224 1.62 527.932 1.432 528.732 1.432C529.268 1.432 529.772 1.536 530.244 1.744C530.724 1.944 531.136 2.228 531.48 2.596C531.824 2.956 532.08 3.368 532.248 3.832L531.084 4.264C530.916 3.776 530.636 3.372 530.244 3.052C529.86 2.724 529.356 2.56 528.732 2.56C528.172 2.56 527.68 2.692 527.256 2.956C526.84 3.22 526.516 3.596 526.284 4.084C526.06 4.564 525.948 5.124 525.948 5.764C525.948 6.404 526.056 6.972 526.272 7.468C526.488 7.964 526.804 8.352 527.22 8.632C527.644 8.904 528.148 9.04 528.732 9.04C529.34 9.04 529.848 8.88 530.256 8.56C530.664 8.232 530.952 7.796 531.12 7.252L532.236 7.648C532.084 8.128 531.836 8.56 531.492 8.944C531.148 9.328 530.732 9.628 530.244 9.844C529.764 10.06 529.248 10.168 528.696 10.168Z" fill="#161717"/>
<path d="M373.556 13.776L373.7 14.004C373.612 14.188 373.44 14.376 373.184 14.568C372.928 14.752 372.636 14.912 372.308 15.048C371.98 15.176 371.672 15.252 371.384 15.276V14.196C371.912 14.1 372.4 13.892 372.848 13.572C373.296 13.252 373.592 12.928 373.736 12.6H374.744V21H373.556V13.776ZM379.737 21.144C379.137 21.144 378.601 21.036 378.129 20.82C377.665 20.596 377.293 20.288 377.013 19.896C376.733 19.496 376.569 19.032 376.521 18.504H377.697C377.777 19.016 377.989 19.412 378.333 19.692C378.677 19.964 379.149 20.1 379.749 20.1C380.301 20.1 380.741 19.968 381.069 19.704C381.405 19.432 381.573 19.064 381.573 18.6C381.573 18.152 381.413 17.812 381.093 17.58C380.773 17.348 380.365 17.232 379.869 17.232H379.185V16.128H379.749C380.229 16.128 380.617 16.008 380.913 15.768C381.209 15.528 381.357 15.204 381.357 14.796C381.357 14.396 381.209 14.08 380.913 13.848C380.625 13.616 380.241 13.5 379.761 13.5C379.241 13.5 378.821 13.632 378.501 13.896C378.189 14.16 378.005 14.516 377.949 14.964H376.773C376.797 14.492 376.941 14.068 377.205 13.692C377.477 13.308 377.837 13.008 378.285 12.792C378.733 12.568 379.233 12.456 379.785 12.456C380.305 12.456 380.777 12.556 381.201 12.756C381.625 12.948 381.957 13.216 382.197 13.56C382.437 13.896 382.557 14.276 382.557 14.7C382.557 15.092 382.453 15.432 382.245 15.72C382.045 16 381.777 16.22 381.441 16.38C381.105 16.532 380.741 16.624 380.349 16.656L380.661 16.548C381.117 16.596 381.505 16.716 381.825 16.908C382.145 17.1 382.385 17.344 382.545 17.64C382.713 17.936 382.797 18.268 382.797 18.636C382.797 19.156 382.657 19.608 382.377 19.992C382.097 20.368 381.725 20.656 381.261 20.856C380.797 21.048 380.289 21.144 379.737 21.144ZM387.88 12.6H391.204C391.94 12.6 392.6 12.76 393.184 13.08C393.776 13.4 394.244 13.876 394.588 14.508C394.932 15.132 395.104 15.888 395.104 16.776C395.104 17.672 394.928 18.44 394.576 19.08C394.224 19.712 393.74 20.192 393.124 20.52C392.508 20.84 391.808 21 391.024 21H387.88V12.6ZM390.784 19.896C391.384 19.896 391.912 19.784 392.368 19.56C392.824 19.336 393.18 18.996 393.436 18.54C393.7 18.076 393.832 17.5 393.832 16.812C393.832 16.164 393.716 15.604 393.484 15.132C393.26 14.66 392.94 14.3 392.524 14.052C392.108 13.804 391.624 13.68 391.072 13.68H389.104V19.896H390.784ZM397.009 12.6H403.297V13.68H398.233V15.96H401.677V17.064H398.233V19.896H403.561V21H397.009V12.6ZM408.458 21.168C407.65 21.168 406.942 20.988 406.334 20.628C405.734 20.268 405.266 19.76 404.93 19.104C404.602 18.448 404.438 17.684 404.438 16.812C404.438 15.972 404.606 15.22 404.942 14.556C405.278 13.892 405.754 13.372 406.37 12.996C406.986 12.62 407.694 12.432 408.494 12.432C409.03 12.432 409.534 12.536 410.006 12.744C410.486 12.944 410.898 13.228 411.242 13.596C411.586 13.956 411.842 14.368 412.01 14.832L410.846 15.264C410.678 14.776 410.398 14.372 410.006 14.052C409.622 13.724 409.118 13.56 408.494 13.56C407.934 13.56 407.442 13.692 407.018 13.956C406.602 14.22 406.278 14.596 406.046 15.084C405.822 15.564 405.71 16.124 405.71 16.764C405.71 17.404 405.818 17.972 406.034 18.468C406.25 18.964 406.566 19.352 406.982 19.632C407.406 19.904 407.91 20.04 408.494 20.04C409.102 20.04 409.61 19.88 410.018 19.56C410.426 19.232 410.714 18.796 410.882 18.252L411.998 18.648C411.846 19.128 411.598 19.56 411.254 19.944C410.91 20.328 410.494 20.628 410.006 20.844C409.526 21.06 409.01 21.168 408.458 21.168Z" fill="#828A93"/>
<path d="M266.032 21.144C265.376 21.144 264.796 20.976 264.292 20.64C263.796 20.304 263.408 19.82 263.128 19.188C262.856 18.548 262.72 17.792 262.72 16.92C262.72 16.024 262.864 15.24 263.152 14.568C263.448 13.888 263.852 13.368 264.364 13.008C264.884 12.64 265.48 12.456 266.152 12.456C266.64 12.456 267.068 12.552 267.436 12.744C267.812 12.928 268.116 13.18 268.348 13.5C268.58 13.82 268.728 14.176 268.792 14.568H267.616C267.528 14.24 267.364 13.984 267.124 13.8C266.884 13.616 266.572 13.524 266.188 13.524C265.62 13.524 265.164 13.712 264.82 14.088C264.476 14.464 264.232 14.936 264.088 15.504C263.952 16.072 263.892 16.66 263.908 17.268L263.74 17.208C264.108 16.68 264.504 16.284 264.928 16.02C265.36 15.748 265.852 15.612 266.404 15.612C266.908 15.612 267.348 15.728 267.724 15.96C268.1 16.192 268.388 16.512 268.588 16.92C268.796 17.32 268.9 17.772 268.9 18.276C268.9 18.796 268.78 19.276 268.54 19.716C268.3 20.148 267.96 20.496 267.52 20.76C267.088 21.016 266.592 21.144 266.032 21.144ZM266.02 20.076C266.356 20.076 266.648 19.996 266.896 19.836C267.152 19.676 267.344 19.464 267.472 19.2C267.608 18.928 267.676 18.628 267.676 18.3C267.676 17.796 267.548 17.388 267.292 17.076C267.036 16.764 266.652 16.608 266.14 16.608C265.772 16.608 265.432 16.684 265.12 16.836C264.816 16.988 264.572 17.192 264.388 17.448C264.212 17.704 264.124 17.98 264.124 18.276C264.124 18.564 264.2 18.848 264.352 19.128C264.504 19.408 264.724 19.636 265.012 19.812C265.3 19.988 265.636 20.076 266.02 20.076ZM273.958 12.6H277.282C278.018 12.6 278.678 12.76 279.262 13.08C279.854 13.4 280.322 13.876 280.666 14.508C281.01 15.132 281.182 15.888 281.182 16.776C281.182 17.672 281.006 18.44 280.654 19.08C280.302 19.712 279.818 20.192 279.202 20.52C278.586 20.84 277.886 21 277.102 21H273.958V12.6ZM276.862 19.896C277.462 19.896 277.99 19.784 278.446 19.56C278.902 19.336 279.258 18.996 279.514 18.54C279.778 18.076 279.91 17.5 279.91 16.812C279.91 16.164 279.794 15.604 279.562 15.132C279.338 14.66 279.018 14.3 278.602 14.052C278.186 13.804 277.702 13.68 277.15 13.68H275.182V19.896H276.862ZM283.087 12.6H289.375V13.68H284.311V15.96H287.755V17.064H284.311V19.896H289.639V21H283.087V12.6ZM294.536 21.168C293.728 21.168 293.02 20.988 292.412 20.628C291.812 20.268 291.344 19.76 291.008 19.104C290.68 18.448 290.516 17.684 290.516 16.812C290.516 15.972 290.684 15.22 291.02 14.556C291.356 13.892 291.832 13.372 292.448 12.996C293.064 12.62 293.772 12.432 294.572 12.432C295.108 12.432 295.612 12.536 296.084 12.744C296.564 12.944 296.976 13.228 297.32 13.596C297.664 13.956 297.92 14.368 298.088 14.832L296.924 15.264C296.756 14.776 296.476 14.372 296.084 14.052C295.7 13.724 295.196 13.56 294.572 13.56C294.012 13.56 293.52 13.692 293.096 13.956C292.68 14.22 292.356 14.596 292.124 15.084C291.9 15.564 291.788 16.124 291.788 16.764C291.788 17.404 291.896 17.972 292.112 18.468C292.328 18.964 292.644 19.352 293.06 19.632C293.484 19.904 293.988 20.04 294.572 20.04C295.18 20.04 295.688 19.88 296.096 19.56C296.504 19.232 296.792 18.796 296.96 18.252L298.076 18.648C297.924 19.128 297.676 19.56 297.332 19.944C296.988 20.328 296.572 20.628 296.084 20.844C295.604 21.06 295.088 21.168 294.536 21.168Z" fill="#828A93"/>
<path d="M150.648 21C150.704 20.528 150.82 20.112 150.996 19.752C151.172 19.392 151.428 19.048 151.764 18.72C152.1 18.384 152.552 18.02 153.12 17.628L153.708 17.22C154.244 16.844 154.652 16.496 154.932 16.176C155.212 15.856 155.352 15.48 155.352 15.048C155.352 14.584 155.204 14.216 154.908 13.944C154.612 13.664 154.196 13.524 153.66 13.524C153.092 13.524 152.648 13.696 152.328 14.04C152.008 14.376 151.836 14.804 151.812 15.324H150.636C150.644 14.78 150.78 14.292 151.044 13.86C151.308 13.42 151.668 13.076 152.124 12.828C152.58 12.58 153.092 12.456 153.66 12.456C154.244 12.456 154.756 12.568 155.196 12.792C155.636 13.008 155.976 13.316 156.216 13.716C156.456 14.108 156.576 14.564 156.576 15.084C156.576 15.444 156.504 15.784 156.36 16.104C156.216 16.424 155.992 16.736 155.688 17.04C155.384 17.344 154.988 17.66 154.5 17.988L153.912 18.384C153.896 18.392 153.88 18.404 153.864 18.42C153.848 18.428 153.832 18.436 153.816 18.444C153.296 18.788 152.916 19.076 152.676 19.308C152.436 19.54 152.28 19.82 152.208 20.148L151.8 19.92H156.708V21H150.648ZM160.995 21.144C160.475 21.144 160.007 21.044 159.591 20.844C159.183 20.636 158.855 20.356 158.607 20.004C158.359 19.644 158.211 19.24 158.163 18.792H159.339C159.403 19.192 159.575 19.508 159.855 19.74C160.135 19.964 160.507 20.076 160.971 20.076C161.739 20.076 162.283 19.716 162.603 18.996C162.923 18.276 163.071 17.376 163.047 16.296L163.215 16.236C162.895 16.796 162.531 17.216 162.123 17.496C161.715 17.776 161.219 17.916 160.635 17.916C160.115 17.916 159.659 17.804 159.267 17.58C158.875 17.348 158.575 17.032 158.367 16.632C158.159 16.232 158.055 15.784 158.055 15.288C158.055 14.76 158.179 14.28 158.427 13.848C158.675 13.416 159.019 13.076 159.459 12.828C159.907 12.58 160.419 12.456 160.995 12.456C161.643 12.456 162.211 12.62 162.699 12.948C163.187 13.276 163.563 13.76 163.827 14.4C164.099 15.032 164.235 15.804 164.235 16.716C164.235 17.66 164.091 18.468 163.803 19.14C163.523 19.804 163.135 20.304 162.639 20.64C162.151 20.976 161.603 21.144 160.995 21.144ZM160.827 16.92C161.227 16.92 161.579 16.848 161.883 16.704C162.187 16.552 162.419 16.352 162.579 16.104C162.747 15.848 162.831 15.576 162.831 15.288C162.831 15 162.759 14.724 162.615 14.46C162.471 14.188 162.259 13.964 161.979 13.788C161.707 13.612 161.379 13.524 160.995 13.524C160.651 13.524 160.347 13.6 160.083 13.752C159.827 13.896 159.627 14.1 159.483 14.364C159.347 14.628 159.279 14.928 159.279 15.264C159.279 15.752 159.407 16.152 159.663 16.464C159.927 16.768 160.315 16.92 160.827 16.92ZM169.341 12.6H171.273L175.533 19.548L175.281 19.62V12.6H176.445V21H175.041L170.217 13.14L170.505 13.068V21H169.341V12.6ZM182.492 21.168C181.7 21.168 180.988 20.98 180.356 20.604C179.724 20.228 179.228 19.708 178.868 19.044C178.508 18.38 178.328 17.632 178.328 16.8C178.328 15.968 178.508 15.22 178.868 14.556C179.228 13.892 179.724 13.372 180.356 12.996C180.988 12.62 181.7 12.432 182.492 12.432C183.284 12.432 183.996 12.62 184.628 12.996C185.26 13.372 185.756 13.892 186.116 14.556C186.476 15.22 186.656 15.968 186.656 16.8C186.656 17.632 186.476 18.38 186.116 19.044C185.756 19.708 185.26 20.228 184.628 20.604C183.996 20.98 183.284 21.168 182.492 21.168ZM182.492 20.064C183.06 20.064 183.56 19.928 183.992 19.656C184.432 19.376 184.772 18.992 185.012 18.504C185.26 18.008 185.384 17.44 185.384 16.8C185.384 16.16 185.26 15.596 185.012 15.108C184.772 14.612 184.432 14.228 183.992 13.956C183.56 13.676 183.06 13.536 182.492 13.536C181.924 13.536 181.42 13.676 180.98 13.956C180.548 14.228 180.208 14.612 179.96 15.108C179.72 15.596 179.6 16.16 179.6 16.8C179.6 17.44 179.72 18.008 179.96 18.504C180.208 18.992 180.548 19.376 180.98 19.656C181.42 19.928 181.924 20.064 182.492 20.064ZM187.413 12.6H188.745L191.613 20.472L191.013 20.46L193.929 12.6H195.225L192.009 21H190.545L187.413 12.6Z" fill="#828A93"/>
<path d="M32.648 10C32.704 9.528 32.82 9.112 32.996 8.752C33.172 8.392 33.428 8.048 33.764 7.72C34.1 7.384 34.552 7.02 35.12 6.628L35.708 6.22C36.244 5.844 36.652 5.496 36.932 5.176C37.212 4.856 37.352 4.48 37.352 4.048C37.352 3.584 37.204 3.216 36.908 2.944C36.612 2.664 36.196 2.524 35.66 2.524C35.092 2.524 34.648 2.696 34.328 3.04C34.008 3.376 33.836 3.804 33.812 4.324H32.636C32.644 3.78 32.78 3.292 33.044 2.86C33.308 2.42 33.668 2.076 34.124 1.828C34.58 1.58 35.092 1.456 35.66 1.456C36.244 1.456 36.756 1.568 37.196 1.792C37.636 2.008 37.976 2.316 38.216 2.716C38.456 3.108 38.576 3.564 38.576 4.084C38.576 4.444 38.504 4.784 38.36 5.104C38.216 5.424 37.992 5.736 37.688 6.04C37.384 6.344 36.988 6.66 36.5 6.988L35.912 7.384C35.896 7.392 35.88 7.404 35.864 7.42C35.848 7.428 35.832 7.436 35.816 7.444C35.296 7.788 34.916 8.076 34.676 8.308C34.436 8.54 34.28 8.82 34.208 9.148L33.8 8.92H38.708V10H32.648ZM40.0191 10C40.0751 9.528 40.1911 9.112 40.3671 8.752C40.5431 8.392 40.7991 8.048 41.1351 7.72C41.4711 7.384 41.9231 7.02 42.4911 6.628L43.0791 6.22C43.6151 5.844 44.0231 5.496 44.3031 5.176C44.5831 4.856 44.7231 4.48 44.7231 4.048C44.7231 3.584 44.5751 3.216 44.2791 2.944C43.9831 2.664 43.5671 2.524 43.0311 2.524C42.4631 2.524 42.0191 2.696 41.6991 3.04C41.3791 3.376 41.2071 3.804 41.1831 4.324H40.0071C40.0151 3.78 40.1511 3.292 40.4151 2.86C40.6791 2.42 41.0391 2.076 41.4951 1.828C41.9511 1.58 42.4631 1.456 43.0311 1.456C43.6151 1.456 44.1271 1.568 44.5671 1.792C45.0071 2.008 45.3471 2.316 45.5871 2.716C45.8271 3.108 45.9471 3.564 45.9471 4.084C45.9471 4.444 45.8751 4.784 45.7311 5.104C45.5871 5.424 45.3631 5.736 45.0591 6.04C44.7551 6.344 44.3591 6.66 43.8711 6.988L43.2831 7.384C43.2671 7.392 43.2511 7.404 43.2351 7.42C43.2191 7.428 43.2031 7.436 43.1871 7.444C42.6671 7.788 42.2871 8.076 42.0471 8.308C41.8071 8.54 41.6511 8.82 41.5791 9.148L41.1711 8.92H46.0791V10H40.0191ZM51.1183 1.6H53.0503L57.3103 8.548L57.0583 8.62V1.6H58.2223V10H56.8183L51.9943 2.14L52.2823 2.068V10H51.1183V1.6ZM64.2696 10.168C63.4776 10.168 62.7656 9.98 62.1336 9.604C61.5016 9.228 61.0056 8.708 60.6456 8.044C60.2856 7.38 60.1056 6.632 60.1056 5.8C60.1056 4.968 60.2856 4.22 60.6456 3.556C61.0056 2.892 61.5016 2.372 62.1336 1.996C62.7656 1.62 63.4776 1.432 64.2696 1.432C65.0616 1.432 65.7736 1.62 66.4056 1.996C67.0376 2.372 67.5336 2.892 67.8936 3.556C68.2536 4.22 68.4336 4.968 68.4336 5.8C68.4336 6.632 68.2536 7.38 67.8936 8.044C67.5336 8.708 67.0376 9.228 66.4056 9.604C65.7736 9.98 65.0616 10.168 64.2696 10.168ZM64.2696 9.064C64.8376 9.064 65.3376 8.928 65.7696 8.656C66.2096 8.376 66.5496 7.992 66.7896 7.504C67.0376 7.008 67.1616 6.44 67.1616 5.8C67.1616 5.16 67.0376 4.596 66.7896 4.108C66.5496 3.612 66.2096 3.228 65.7696 2.956C65.3376 2.676 64.8376 2.536 64.2696 2.536C63.7016 2.536 63.1976 2.676 62.7576 2.956C62.3256 3.228 61.9856 3.612 61.7376 4.108C61.4976 4.596 61.3776 5.16 61.3776 5.8C61.3776 6.44 61.4976 7.008 61.7376 7.504C61.9856 7.992 62.3256 8.376 62.7576 8.656C63.1976 8.928 63.7016 9.064 64.2696 9.064ZM69.1903 1.6H70.5223L73.3903 9.472L72.7903 9.46L75.7063 1.6H77.0023L73.7863 10H72.3223L69.1903 1.6Z" fill="#161717"/>
<path d="M155.704 77.168C154.896 77.168 154.188 76.988 153.58 76.628C152.98 76.268 152.512 75.76 152.176 75.104C151.848 74.448 151.684 73.684 151.684 72.812C151.684 71.972 151.852 71.22 152.188 70.556C152.524 69.892 153 69.372 153.616 68.996C154.232 68.62 154.94 68.432 155.74 68.432C156.276 68.432 156.78 68.536 157.252 68.744C157.732 68.944 158.144 69.228 158.488 69.596C158.832 69.956 159.088 70.368 159.256 70.832L158.092 71.264C157.924 70.776 157.644 70.372 157.252 70.052C156.868 69.724 156.364 69.56 155.74 69.56C155.18 69.56 154.688 69.692 154.264 69.956C153.848 70.22 153.524 70.596 153.292 71.084C153.068 71.564 152.956 72.124 152.956 72.764C152.956 73.404 153.064 73.972 153.28 74.468C153.496 74.964 153.812 75.352 154.228 75.632C154.652 75.904 155.156 76.04 155.74 76.04C156.348 76.04 156.856 75.88 157.264 75.56C157.672 75.232 157.96 74.796 158.128 74.252L159.244 74.648C159.092 75.128 158.844 75.56 158.5 75.944C158.156 76.328 157.74 76.628 157.252 76.844C156.772 77.06 156.256 77.168 155.704 77.168ZM163.162 77.144C162.618 77.144 162.13 77.012 161.698 76.748C161.274 76.484 160.942 76.116 160.702 75.644C160.47 75.164 160.354 74.62 160.354 74.012C160.354 73.396 160.47 72.852 160.702 72.38C160.942 71.9 161.274 71.528 161.698 71.264C162.13 70.992 162.618 70.856 163.162 70.856C163.714 70.856 164.202 70.992 164.626 71.264C165.058 71.528 165.39 71.9 165.622 72.38C165.862 72.852 165.982 73.396 165.982 74.012C165.982 74.62 165.862 75.164 165.622 75.644C165.39 76.116 165.058 76.484 164.626 76.748C164.202 77.012 163.714 77.144 163.162 77.144ZM163.162 76.148C163.498 76.148 163.79 76.064 164.038 75.896C164.286 75.72 164.474 75.472 164.602 75.152C164.738 74.832 164.806 74.452 164.806 74.012C164.806 73.34 164.658 72.812 164.362 72.428C164.074 72.044 163.674 71.852 163.162 71.852C162.826 71.852 162.534 71.94 162.286 72.116C162.046 72.284 161.858 72.532 161.722 72.86C161.594 73.18 161.53 73.564 161.53 74.012C161.53 74.676 161.674 75.2 161.962 75.584C162.25 75.96 162.65 76.148 163.162 76.148ZM169.49 77.144C169.074 77.144 168.718 77.052 168.422 76.868C168.134 76.684 167.914 76.42 167.762 76.076C167.61 75.724 167.534 75.304 167.534 74.816V71H168.686V74.42C168.686 75.012 168.778 75.44 168.962 75.704C169.154 75.968 169.45 76.1 169.85 76.1C170.138 76.1 170.414 76.016 170.678 75.848C170.942 75.672 171.154 75.424 171.314 75.104C171.482 74.784 171.566 74.416 171.566 74V71H172.718V77H171.578V75.236L171.746 75.464C171.522 75.936 171.21 76.336 170.81 76.664C170.41 76.984 169.97 77.144 169.49 77.144ZM174.754 71H175.894V72.776L175.702 72.608C175.95 72.064 176.278 71.636 176.686 71.324C177.102 71.012 177.546 70.856 178.018 70.856C178.474 70.856 178.862 70.992 179.182 71.264C179.51 71.528 179.758 71.896 179.926 72.368C180.102 72.832 180.19 73.368 180.19 73.976C180.19 74.584 180.102 75.128 179.926 75.608C179.758 76.08 179.506 76.452 179.17 76.724C178.842 76.988 178.45 77.12 177.994 77.12C177.682 77.12 177.382 77.052 177.094 76.916C176.814 76.772 176.554 76.568 176.314 76.304C176.074 76.04 175.87 75.72 175.702 75.344L175.906 75.188V79.04H174.754V71ZM177.658 76.1C177.93 76.1 178.17 76.02 178.378 75.86C178.586 75.7 178.746 75.46 178.858 75.14C178.97 74.82 179.026 74.432 179.026 73.976C179.026 73.296 178.906 72.776 178.666 72.416C178.426 72.056 178.098 71.876 177.682 71.876C177.426 71.876 177.154 71.964 176.866 72.14C176.586 72.316 176.346 72.564 176.146 72.884C175.954 73.204 175.858 73.572 175.858 73.988C175.858 74.396 175.95 74.764 176.134 75.092C176.326 75.412 176.562 75.66 176.842 75.836C177.13 76.012 177.402 76.1 177.658 76.1ZM184.232 77.144C183.688 77.144 183.2 77.012 182.768 76.748C182.344 76.484 182.012 76.116 181.772 75.644C181.54 75.164 181.424 74.62 181.424 74.012C181.424 73.396 181.54 72.852 181.772 72.38C182.012 71.9 182.344 71.528 182.768 71.264C183.2 70.992 183.688 70.856 184.232 70.856C184.784 70.856 185.272 70.992 185.696 71.264C186.128 71.528 186.46 71.9 186.692 72.38C186.932 72.852 187.052 73.396 187.052 74.012C187.052 74.62 186.932 75.164 186.692 75.644C186.46 76.116 186.128 76.484 185.696 76.748C185.272 77.012 184.784 77.144 184.232 77.144ZM184.232 76.148C184.568 76.148 184.86 76.064 185.108 75.896C185.356 75.72 185.544 75.472 185.672 75.152C185.808 74.832 185.876 74.452 185.876 74.012C185.876 73.34 185.728 72.812 185.432 72.428C185.144 72.044 184.744 71.852 184.232 71.852C183.896 71.852 183.604 71.94 183.356 72.116C183.116 72.284 182.928 72.532 182.792 72.86C182.664 73.18 182.6 73.564 182.6 74.012C182.6 74.676 182.744 75.2 183.032 75.584C183.32 75.96 183.72 76.148 184.232 76.148ZM188.676 71H189.816V72.764L189.648 72.536C189.872 72.064 190.184 71.668 190.584 71.348C190.984 71.02 191.424 70.856 191.904 70.856C192.32 70.856 192.672 70.948 192.96 71.132C193.256 71.316 193.48 71.584 193.632 71.936C193.784 72.28 193.86 72.696 193.86 73.184V77H192.708V73.58C192.708 72.988 192.612 72.56 192.42 72.296C192.236 72.032 191.944 71.9 191.544 71.9C191.256 71.9 190.98 71.988 190.716 72.164C190.452 72.332 190.236 72.576 190.068 72.896C189.908 73.216 189.828 73.584 189.828 74V77H188.676V71Z" fill="#828A93"/>
<path d="M263.704 77.168C262.896 77.168 262.188 76.988 261.58 76.628C260.98 76.268 260.512 75.76 260.176 75.104C259.848 74.448 259.684 73.684 259.684 72.812C259.684 71.972 259.852 71.22 260.188 70.556C260.524 69.892 261 69.372 261.616 68.996C262.232 68.62 262.94 68.432 263.74 68.432C264.276 68.432 264.78 68.536 265.252 68.744C265.732 68.944 266.144 69.228 266.488 69.596C266.832 69.956 267.088 70.368 267.256 70.832L266.092 71.264C265.924 70.776 265.644 70.372 265.252 70.052C264.868 69.724 264.364 69.56 263.74 69.56C263.18 69.56 262.688 69.692 262.264 69.956C261.848 70.22 261.524 70.596 261.292 71.084C261.068 71.564 260.956 72.124 260.956 72.764C260.956 73.404 261.064 73.972 261.28 74.468C261.496 74.964 261.812 75.352 262.228 75.632C262.652 75.904 263.156 76.04 263.74 76.04C264.348 76.04 264.856 75.88 265.264 75.56C265.672 75.232 265.96 74.796 266.128 74.252L267.244 74.648C267.092 75.128 266.844 75.56 266.5 75.944C266.156 76.328 265.74 76.628 265.252 76.844C264.772 77.06 264.256 77.168 263.704 77.168ZM271.162 77.144C270.618 77.144 270.13 77.012 269.698 76.748C269.274 76.484 268.942 76.116 268.702 75.644C268.47 75.164 268.354 74.62 268.354 74.012C268.354 73.396 268.47 72.852 268.702 72.38C268.942 71.9 269.274 71.528 269.698 71.264C270.13 70.992 270.618 70.856 271.162 70.856C271.714 70.856 272.202 70.992 272.626 71.264C273.058 71.528 273.39 71.9 273.622 72.38C273.862 72.852 273.982 73.396 273.982 74.012C273.982 74.62 273.862 75.164 273.622 75.644C273.39 76.116 273.058 76.484 272.626 76.748C272.202 77.012 271.714 77.144 271.162 77.144ZM271.162 76.148C271.498 76.148 271.79 76.064 272.038 75.896C272.286 75.72 272.474 75.472 272.602 75.152C272.738 74.832 272.806 74.452 272.806 74.012C272.806 73.34 272.658 72.812 272.362 72.428C272.074 72.044 271.674 71.852 271.162 71.852C270.826 71.852 270.534 71.94 270.286 72.116C270.046 72.284 269.858 72.532 269.722 72.86C269.594 73.18 269.53 73.564 269.53 74.012C269.53 74.676 269.674 75.2 269.962 75.584C270.25 75.96 270.65 76.148 271.162 76.148ZM277.49 77.144C277.074 77.144 276.718 77.052 276.422 76.868C276.134 76.684 275.914 76.42 275.762 76.076C275.61 75.724 275.534 75.304 275.534 74.816V71H276.686V74.42C276.686 75.012 276.778 75.44 276.962 75.704C277.154 75.968 277.45 76.1 277.85 76.1C278.138 76.1 278.414 76.016 278.678 75.848C278.942 75.672 279.154 75.424 279.314 75.104C279.482 74.784 279.566 74.416 279.566 74V71H280.718V77H279.578V75.236L279.746 75.464C279.522 75.936 279.21 76.336 278.81 76.664C278.41 76.984 277.97 77.144 277.49 77.144ZM282.754 71H283.894V72.776L283.702 72.608C283.95 72.064 284.278 71.636 284.686 71.324C285.102 71.012 285.546 70.856 286.018 70.856C286.474 70.856 286.862 70.992 287.182 71.264C287.51 71.528 287.758 71.896 287.926 72.368C288.102 72.832 288.19 73.368 288.19 73.976C288.19 74.584 288.102 75.128 287.926 75.608C287.758 76.08 287.506 76.452 287.17 76.724C286.842 76.988 286.45 77.12 285.994 77.12C285.682 77.12 285.382 77.052 285.094 76.916C284.814 76.772 284.554 76.568 284.314 76.304C284.074 76.04 283.87 75.72 283.702 75.344L283.906 75.188V79.04H282.754V71ZM285.658 76.1C285.93 76.1 286.17 76.02 286.378 75.86C286.586 75.7 286.746 75.46 286.858 75.14C286.97 74.82 287.026 74.432 287.026 73.976C287.026 73.296 286.906 72.776 286.666 72.416C286.426 72.056 286.098 71.876 285.682 71.876C285.426 71.876 285.154 71.964 284.866 72.14C284.586 72.316 284.346 72.564 284.146 72.884C283.954 73.204 283.858 73.572 283.858 73.988C283.858 74.396 283.95 74.764 284.134 75.092C284.326 75.412 284.562 75.66 284.842 75.836C285.13 76.012 285.402 76.1 285.658 76.1ZM292.232 77.144C291.688 77.144 291.2 77.012 290.768 76.748C290.344 76.484 290.012 76.116 289.772 75.644C289.54 75.164 289.424 74.62 289.424 74.012C289.424 73.396 289.54 72.852 289.772 72.38C290.012 71.9 290.344 71.528 290.768 71.264C291.2 70.992 291.688 70.856 292.232 70.856C292.784 70.856 293.272 70.992 293.696 71.264C294.128 71.528 294.46 71.9 294.692 72.38C294.932 72.852 295.052 73.396 295.052 74.012C295.052 74.62 294.932 75.164 294.692 75.644C294.46 76.116 294.128 76.484 293.696 76.748C293.272 77.012 292.784 77.144 292.232 77.144ZM292.232 76.148C292.568 76.148 292.86 76.064 293.108 75.896C293.356 75.72 293.544 75.472 293.672 75.152C293.808 74.832 293.876 74.452 293.876 74.012C293.876 73.34 293.728 72.812 293.432 72.428C293.144 72.044 292.744 71.852 292.232 71.852C291.896 71.852 291.604 71.94 291.356 72.116C291.116 72.284 290.928 72.532 290.792 72.86C290.664 73.18 290.6 73.564 290.6 74.012C290.6 74.676 290.744 75.2 291.032 75.584C291.32 75.96 291.72 76.148 292.232 76.148ZM296.676 71H297.816V72.764L297.648 72.536C297.872 72.064 298.184 71.668 298.584 71.348C298.984 71.02 299.424 70.856 299.904 70.856C300.32 70.856 300.672 70.948 300.96 71.132C301.256 71.316 301.48 71.584 301.632 71.936C301.784 72.28 301.86 72.696 301.86 73.184V77H300.708V73.58C300.708 72.988 300.612 72.56 300.42 72.296C300.236 72.032 299.944 71.9 299.544 71.9C299.256 71.9 298.98 71.988 298.716 72.164C298.452 72.332 298.236 72.576 298.068 72.896C297.908 73.216 297.828 73.584 297.828 74V77H296.676V71Z" fill="#828A93"/>
<path d="M372.704 77.168C371.896 77.168 371.188 76.988 370.58 76.628C369.98 76.268 369.512 75.76 369.176 75.104C368.848 74.448 368.684 73.684 368.684 72.812C368.684 71.972 368.852 71.22 369.188 70.556C369.524 69.892 370 69.372 370.616 68.996C371.232 68.62 371.94 68.432 372.74 68.432C373.276 68.432 373.78 68.536 374.252 68.744C374.732 68.944 375.144 69.228 375.488 69.596C375.832 69.956 376.088 70.368 376.256 70.832L375.092 71.264C374.924 70.776 374.644 70.372 374.252 70.052C373.868 69.724 373.364 69.56 372.74 69.56C372.18 69.56 371.688 69.692 371.264 69.956C370.848 70.22 370.524 70.596 370.292 71.084C370.068 71.564 369.956 72.124 369.956 72.764C369.956 73.404 370.064 73.972 370.28 74.468C370.496 74.964 370.812 75.352 371.228 75.632C371.652 75.904 372.156 76.04 372.74 76.04C373.348 76.04 373.856 75.88 374.264 75.56C374.672 75.232 374.96 74.796 375.128 74.252L376.244 74.648C376.092 75.128 375.844 75.56 375.5 75.944C375.156 76.328 374.74 76.628 374.252 76.844C373.772 77.06 373.256 77.168 372.704 77.168ZM380.162 77.144C379.618 77.144 379.13 77.012 378.698 76.748C378.274 76.484 377.942 76.116 377.702 75.644C377.47 75.164 377.354 74.62 377.354 74.012C377.354 73.396 377.47 72.852 377.702 72.38C377.942 71.9 378.274 71.528 378.698 71.264C379.13 70.992 379.618 70.856 380.162 70.856C380.714 70.856 381.202 70.992 381.626 71.264C382.058 71.528 382.39 71.9 382.622 72.38C382.862 72.852 382.982 73.396 382.982 74.012C382.982 74.62 382.862 75.164 382.622 75.644C382.39 76.116 382.058 76.484 381.626 76.748C381.202 77.012 380.714 77.144 380.162 77.144ZM380.162 76.148C380.498 76.148 380.79 76.064 381.038 75.896C381.286 75.72 381.474 75.472 381.602 75.152C381.738 74.832 381.806 74.452 381.806 74.012C381.806 73.34 381.658 72.812 381.362 72.428C381.074 72.044 380.674 71.852 380.162 71.852C379.826 71.852 379.534 71.94 379.286 72.116C379.046 72.284 378.858 72.532 378.722 72.86C378.594 73.18 378.53 73.564 378.53 74.012C378.53 74.676 378.674 75.2 378.962 75.584C379.25 75.96 379.65 76.148 380.162 76.148ZM386.49 77.144C386.074 77.144 385.718 77.052 385.422 76.868C385.134 76.684 384.914 76.42 384.762 76.076C384.61 75.724 384.534 75.304 384.534 74.816V71H385.686V74.42C385.686 75.012 385.778 75.44 385.962 75.704C386.154 75.968 386.45 76.1 386.85 76.1C387.138 76.1 387.414 76.016 387.678 75.848C387.942 75.672 388.154 75.424 388.314 75.104C388.482 74.784 388.566 74.416 388.566 74V71H389.718V77H388.578V75.236L388.746 75.464C388.522 75.936 388.21 76.336 387.81 76.664C387.41 76.984 386.97 77.144 386.49 77.144ZM391.754 71H392.894V72.776L392.702 72.608C392.95 72.064 393.278 71.636 393.686 71.324C394.102 71.012 394.546 70.856 395.018 70.856C395.474 70.856 395.862 70.992 396.182 71.264C396.51 71.528 396.758 71.896 396.926 72.368C397.102 72.832 397.19 73.368 397.19 73.976C397.19 74.584 397.102 75.128 396.926 75.608C396.758 76.08 396.506 76.452 396.17 76.724C395.842 76.988 395.45 77.12 394.994 77.12C394.682 77.12 394.382 77.052 394.094 76.916C393.814 76.772 393.554 76.568 393.314 76.304C393.074 76.04 392.87 75.72 392.702 75.344L392.906 75.188V79.04H391.754V71ZM394.658 76.1C394.93 76.1 395.17 76.02 395.378 75.86C395.586 75.7 395.746 75.46 395.858 75.14C395.97 74.82 396.026 74.432 396.026 73.976C396.026 73.296 395.906 72.776 395.666 72.416C395.426 72.056 395.098 71.876 394.682 71.876C394.426 71.876 394.154 71.964 393.866 72.14C393.586 72.316 393.346 72.564 393.146 72.884C392.954 73.204 392.858 73.572 392.858 73.988C392.858 74.396 392.95 74.764 393.134 75.092C393.326 75.412 393.562 75.66 393.842 75.836C394.13 76.012 394.402 76.1 394.658 76.1ZM401.232 77.144C400.688 77.144 400.2 77.012 399.768 76.748C399.344 76.484 399.012 76.116 398.772 75.644C398.54 75.164 398.424 74.62 398.424 74.012C398.424 73.396 398.54 72.852 398.772 72.38C399.012 71.9 399.344 71.528 399.768 71.264C400.2 70.992 400.688 70.856 401.232 70.856C401.784 70.856 402.272 70.992 402.696 71.264C403.128 71.528 403.46 71.9 403.692 72.38C403.932 72.852 404.052 73.396 404.052 74.012C404.052 74.62 403.932 75.164 403.692 75.644C403.46 76.116 403.128 76.484 402.696 76.748C402.272 77.012 401.784 77.144 401.232 77.144ZM401.232 76.148C401.568 76.148 401.86 76.064 402.108 75.896C402.356 75.72 402.544 75.472 402.672 75.152C402.808 74.832 402.876 74.452 402.876 74.012C402.876 73.34 402.728 72.812 402.432 72.428C402.144 72.044 401.744 71.852 401.232 71.852C400.896 71.852 400.604 71.94 400.356 72.116C400.116 72.284 399.928 72.532 399.792 72.86C399.664 73.18 399.6 73.564 399.6 74.012C399.6 74.676 399.744 75.2 400.032 75.584C400.32 75.96 400.72 76.148 401.232 76.148ZM405.676 71H406.816V72.764L406.648 72.536C406.872 72.064 407.184 71.668 407.584 71.348C407.984 71.02 408.424 70.856 408.904 70.856C409.32 70.856 409.672 70.948 409.96 71.132C410.256 71.316 410.48 71.584 410.632 71.936C410.784 72.28 410.86 72.696 410.86 73.184V77H409.708V73.58C409.708 72.988 409.612 72.56 409.42 72.296C409.236 72.032 408.944 71.9 408.544 71.9C408.256 71.9 407.98 71.988 407.716 72.164C407.452 72.332 407.236 72.576 407.068 72.896C406.908 73.216 406.828 73.584 406.828 74V77H405.676V71Z" fill="#828A93"/>
<path d="M487.855 75.6H489.847L492.403 82.92H491.935L494.455 75.6H496.507V84H495.307V76.176L495.415 76.2L492.703 84H491.587L488.887 76.164L489.019 76.14V84H487.855V75.6ZM500.263 84.144C499.671 84.144 499.187 83.98 498.811 83.652C498.443 83.324 498.259 82.88 498.259 82.32C498.259 81.712 498.455 81.256 498.847 80.952C499.247 80.648 499.807 80.488 500.527 80.472L502.291 80.448V80.268C502.291 79.788 502.171 79.428 501.931 79.188C501.691 78.948 501.351 78.828 500.911 78.828C500.471 78.828 500.131 78.928 499.891 79.128C499.659 79.32 499.527 79.544 499.495 79.8H498.307C498.347 79.472 498.471 79.16 498.679 78.864C498.895 78.56 499.195 78.316 499.579 78.132C499.963 77.948 500.411 77.856 500.923 77.856C501.475 77.856 501.935 77.964 502.303 78.18C502.671 78.388 502.943 78.672 503.119 79.032C503.295 79.392 503.383 79.804 503.383 80.268V82.608C503.391 82.896 503.411 83.156 503.443 83.388C503.475 83.62 503.527 83.824 503.599 84H502.471L502.459 83.928C502.411 83.656 502.375 83.4 502.351 83.16C502.327 82.92 502.323 82.632 502.339 82.296L502.471 82.716C502.311 83.148 502.043 83.496 501.667 83.76C501.291 84.016 500.823 84.144 500.263 84.144ZM500.539 83.184C500.947 83.184 501.303 83.088 501.607 82.896C501.911 82.696 502.139 82.42 502.291 82.068V81.408L500.539 81.432C500.179 81.44 499.899 81.512 499.699 81.648C499.499 81.776 499.399 81.984 499.399 82.272C499.399 82.56 499.503 82.784 499.711 82.944C499.927 83.104 500.203 83.184 500.539 83.184ZM507.4 84C506.848 84 506.432 83.888 506.152 83.664C505.88 83.432 505.744 83.076 505.744 82.596V76.608L506.896 75.84V82.344C506.896 82.576 506.948 82.744 507.052 82.848C507.164 82.952 507.368 83.004 507.664 83.004H508.588V84H507.4ZM504.568 78H508.252V78.96H504.568V78ZM511.8 84.144C511.384 84.144 511.028 84.052 510.732 83.868C510.444 83.684 510.224 83.42 510.072 83.076C509.92 82.724 509.844 82.304 509.844 81.816V78H510.996V81.42C510.996 82.012 511.088 82.44 511.272 82.704C511.464 82.968 511.76 83.1 512.16 83.1C512.448 83.1 512.724 83.016 512.988 82.848C513.252 82.672 513.464 82.424 513.624 82.104C513.792 81.784 513.876 81.416 513.876 81V78H515.028V84H513.888V82.236L514.056 82.464C513.832 82.936 513.52 83.336 513.12 83.664C512.72 83.984 512.28 84.144 511.8 84.144ZM517.065 78H518.205V80.136L518.049 80.004C518.217 79.396 518.469 78.888 518.805 78.48C519.141 78.064 519.537 77.856 519.993 77.856C520.409 77.856 520.709 78.028 520.893 78.372C521.077 78.708 521.169 79.148 521.169 79.692C521.169 79.716 521.169 79.756 521.169 79.812C521.169 79.86 521.165 79.92 521.157 79.992H520.173V79.836C520.173 79.556 520.121 79.344 520.017 79.2C519.913 79.048 519.761 78.972 519.561 78.972C519.329 78.972 519.109 79.072 518.901 79.272C518.693 79.464 518.525 79.728 518.397 80.064C518.277 80.4 518.217 80.772 518.217 81.18V84H517.065V78ZM522.417 75.6H523.845V77.04H522.417V75.6ZM522.549 78H523.701V84H522.549V78ZM527.873 84C527.321 84 526.905 83.888 526.625 83.664C526.353 83.432 526.217 83.076 526.217 82.596V76.608L527.369 75.84V82.344C527.369 82.576 527.421 82.744 527.525 82.848C527.637 82.952 527.841 83.004 528.137 83.004H529.061V84H527.873ZM525.041 78H528.725V78.96H525.041V78ZM529.573 85.008H530.701C531.029 85.008 531.265 84.968 531.409 84.888C531.561 84.816 531.685 84.652 531.781 84.396L531.985 83.88L532.045 84.468L529.669 78H530.905L532.681 83.34H532.261L534.037 78H535.249L532.729 84.876C532.617 85.172 532.485 85.404 532.333 85.572C532.181 85.74 531.989 85.86 531.757 85.932C531.533 86.004 531.253 86.04 530.917 86.04H529.573V85.008ZM501.328 100.12C500.872 100.12 500.476 99.988 500.14 99.724C499.812 99.452 499.56 99.08 499.384 98.608C499.216 98.128 499.132 97.584 499.132 96.976C499.132 96.368 499.216 95.832 499.384 95.368C499.56 94.896 499.808 94.528 500.128 94.264C500.456 93.992 500.848 93.856 501.304 93.856C501.616 93.856 501.916 93.928 502.204 94.072C502.492 94.208 502.756 94.408 502.996 94.672C503.236 94.928 503.44 95.236 503.608 95.596L503.416 95.764V91.6H504.568V100H503.428V98.176L503.62 98.332C503.372 98.9 503.044 99.34 502.636 99.652C502.236 99.964 501.8 100.12 501.328 100.12ZM501.664 99.1C501.92 99.1 502.188 99.012 502.468 98.836C502.756 98.66 502.992 98.412 503.176 98.092C503.368 97.764 503.464 97.396 503.464 96.988C503.464 96.572 503.364 96.204 503.164 95.884C502.972 95.564 502.732 95.316 502.444 95.14C502.164 94.964 501.896 94.876 501.64 94.876C501.368 94.876 501.128 94.956 500.92 95.116C500.72 95.276 500.564 95.512 500.452 95.824C500.348 96.136 500.296 96.52 500.296 96.976C500.296 97.664 500.42 98.192 500.668 98.56C500.916 98.92 501.248 99.1 501.664 99.1ZM508.226 100.144C507.634 100.144 507.15 99.98 506.774 99.652C506.406 99.324 506.222 98.88 506.222 98.32C506.222 97.712 506.418 97.256 506.81 96.952C507.21 96.648 507.77 96.488 508.49 96.472L510.254 96.448V96.268C510.254 95.788 510.134 95.428 509.894 95.188C509.654 94.948 509.314 94.828 508.874 94.828C508.434 94.828 508.094 94.928 507.854 95.128C507.622 95.32 507.49 95.544 507.458 95.8H506.27C506.31 95.472 506.434 95.16 506.642 94.864C506.858 94.56 507.158 94.316 507.542 94.132C507.926 93.948 508.374 93.856 508.886 93.856C509.438 93.856 509.898 93.964 510.266 94.18C510.634 94.388 510.906 94.672 511.082 95.032C511.258 95.392 511.346 95.804 511.346 96.268V98.608C511.354 98.896 511.374 99.156 511.406 99.388C511.438 99.62 511.49 99.824 511.562 100H510.434L510.422 99.928C510.374 99.656 510.338 99.4 510.314 99.16C510.29 98.92 510.286 98.632 510.302 98.296L510.434 98.716C510.274 99.148 510.006 99.496 509.63 99.76C509.254 100.016 508.786 100.144 508.226 100.144ZM508.502 99.184C508.91 99.184 509.266 99.088 509.57 98.896C509.874 98.696 510.102 98.42 510.254 98.068V97.408L508.502 97.432C508.142 97.44 507.862 97.512 507.662 97.648C507.462 97.776 507.362 97.984 507.362 98.272C507.362 98.56 507.466 98.784 507.674 98.944C507.89 99.104 508.166 99.184 508.502 99.184ZM515.363 100C514.811 100 514.395 99.888 514.115 99.664C513.843 99.432 513.707 99.076 513.707 98.596V92.608L514.859 91.84V98.344C514.859 98.576 514.911 98.744 515.015 98.848C515.127 98.952 515.331 99.004 515.627 99.004H516.551V100H515.363ZM512.531 94H516.215V94.96H512.531V94ZM520.281 100.144C519.705 100.144 519.197 100.016 518.757 99.76C518.317 99.496 517.977 99.128 517.737 98.656C517.497 98.176 517.377 97.628 517.377 97.012C517.377 96.396 517.497 95.848 517.737 95.368C517.977 94.888 518.309 94.516 518.733 94.252C519.165 93.988 519.661 93.856 520.221 93.856C520.749 93.856 521.213 93.976 521.613 94.216C522.021 94.456 522.337 94.8 522.561 95.248C522.785 95.688 522.897 96.204 522.897 96.796C522.897 96.82 522.897 96.86 522.897 96.916C522.897 96.964 522.893 97.024 522.885 97.096H518.097V96.136H522.213L521.673 96.616C521.673 96.568 521.673 96.52 521.673 96.472C521.673 96.424 521.673 96.376 521.673 96.328C521.673 95.864 521.537 95.496 521.265 95.224C521.001 94.952 520.653 94.816 520.221 94.816C519.933 94.816 519.669 94.88 519.429 95.008C519.197 95.136 519.005 95.316 518.853 95.548C518.709 95.78 518.629 96.04 518.613 96.328C518.605 96.376 518.597 96.428 518.589 96.484C518.581 96.532 518.573 96.584 518.565 96.64C518.557 96.696 518.549 96.748 518.541 96.796C518.533 96.844 518.525 96.896 518.517 96.952C518.517 97.64 518.677 98.18 518.997 98.572C519.317 98.956 519.749 99.148 520.293 99.148C520.653 99.148 520.953 99.064 521.193 98.896C521.441 98.728 521.613 98.496 521.709 98.2H522.849C522.729 98.768 522.445 99.236 521.997 99.604C521.549 99.964 520.977 100.144 520.281 100.144Z" fill="#161717"/>
<circle cx="55" cy="47" r="17.4375" fill="white"/>
<circle cx="55" cy="47" r="17.4375" stroke="#161717" stroke-width="1.125"/>
<circle cx="55" cy="47" r="17.4375" stroke="url(#paint0_linear_1005_16139)" stroke-width="1.125"/>
<g clip-path="url(#clip0_1005_16139)">
<path d="M59.6898 49.7214C62.2852 46.8054 63.3775 44.4519 63.7859 42.7261C64.0222 41.7283 64.0267 40.9486 63.9659 40.403C63.9424 40.189 63.9018 39.9772 63.8444 39.7696C63.8199 39.6818 63.7906 39.5955 63.7567 39.5109V39.5098C63.6745 39.3253 63.5677 39.2465 63.3607 39.1779C63.3013 39.1589 63.2412 39.142 63.1807 39.1273C62.9699 39.0761 62.7555 39.0412 62.5394 39.0226C61.9882 38.9731 61.2007 38.9889 60.1994 39.2341C58.4714 39.6549 56.1292 40.745 53.2683 43.2886L50.5683 43.5564H50.5615C49.9128 43.6287 49.308 43.92 48.847 44.3821L46.1673 47.0664C46.0824 47.1519 46.0265 47.2618 46.0073 47.3807C45.9882 47.4996 46.0068 47.6216 46.0606 47.7294C46.1143 47.8371 46.2006 47.9254 46.3071 47.9816C46.4136 48.0378 46.5351 48.0593 46.6544 48.0429L48.7874 47.738C49.1024 47.693 49.4534 47.7526 49.8618 47.8865C50.1228 47.972 50.3534 48.0665 50.5987 48.1655L50.827 48.2589C51.0475 49.1769 51.5695 50.0364 52.2614 50.7283C52.951 51.419 53.8094 51.9433 54.7263 52.1649L54.8185 52.3921C54.9187 52.6374 55.0132 52.8691 55.0987 53.1313C55.2314 53.5396 55.2922 53.8918 55.2472 54.2068L54.9423 56.3443C54.9262 56.4634 54.9478 56.5845 55.004 56.6908C55.0602 56.797 55.1482 56.883 55.2557 56.9367C55.3633 56.9904 55.4849 57.0091 55.6036 56.9902C55.7223 56.9713 55.8321 56.9158 55.9177 56.8314L58.5974 54.1471C59.0587 53.6859 59.3489 53.0795 59.4209 52.4304L59.6909 49.7214H59.6898ZM59.8135 45.56C58.9169 46.46 57.6423 46.6411 56.9695 45.9673C56.2968 45.2923 56.479 44.0176 57.3757 43.1188C58.2734 42.2199 59.5469 42.0388 60.2197 42.7126C60.8935 43.3865 60.7113 44.6611 59.8147 45.56H59.8135Z" fill="#161717"/>
<path d="M59.6898 49.7214C62.2852 46.8054 63.3775 44.4519 63.7859 42.7261C64.0222 41.7283 64.0267 40.9486 63.9659 40.403C63.9424 40.189 63.9018 39.9772 63.8444 39.7696C63.8199 39.6818 63.7906 39.5955 63.7567 39.5109V39.5098C63.6745 39.3253 63.5677 39.2465 63.3607 39.1779C63.3013 39.1589 63.2412 39.142 63.1807 39.1273C62.9699 39.0761 62.7555 39.0412 62.5394 39.0226C61.9882 38.9731 61.2007 38.9889 60.1994 39.2341C58.4714 39.6549 56.1292 40.745 53.2683 43.2886L50.5683 43.5564H50.5615C49.9128 43.6287 49.308 43.92 48.847 44.3821L46.1673 47.0664C46.0824 47.1519 46.0265 47.2618 46.0073 47.3807C45.9882 47.4996 46.0068 47.6216 46.0606 47.7294C46.1143 47.8371 46.2006 47.9254 46.3071 47.9816C46.4136 48.0378 46.5351 48.0593 46.6544 48.0429L48.7874 47.738C49.1024 47.693 49.4534 47.7526 49.8618 47.8865C50.1228 47.972 50.3534 48.0665 50.5987 48.1655L50.827 48.2589C51.0475 49.1769 51.5695 50.0364 52.2614 50.7283C52.951 51.419 53.8094 51.9433 54.7263 52.1649L54.8185 52.3921C54.9187 52.6374 55.0132 52.8691 55.0987 53.1313C55.2314 53.5396 55.2922 53.8918 55.2472 54.2068L54.9423 56.3443C54.9262 56.4634 54.9478 56.5845 55.004 56.6908C55.0602 56.797 55.1482 56.883 55.2557 56.9367C55.3633 56.9904 55.4849 57.0091 55.6036 56.9902C55.7223 56.9713 55.8321 56.9158 55.9177 56.8314L58.5974 54.1471C59.0587 53.6859 59.3489 53.0795 59.4209 52.4304L59.6909 49.7214H59.6898ZM59.8135 45.56C58.9169 46.46 57.6423 46.6411 56.9695 45.9673C56.2968 45.2923 56.479 44.0176 57.3757 43.1188C58.2734 42.2199 59.5469 42.0388 60.2197 42.7126C60.8935 43.3865 60.7113 44.6611 59.8147 45.56H59.8135Z" fill="url(#paint1_linear_1005_16139)"/>
<path d="M51.8575 51.1344C52.455 51.739 53.139 52.2516 53.887 52.6554C52.6293 53.7882 48.3419 54.9369 48.2013 54.7962C48.0595 54.6534 49.0304 50.0836 50.2701 48.9688C50.6594 49.745 51.2118 50.4875 51.8575 51.1344Z" fill="#161717"/>
<path d="M51.8575 51.1344C52.455 51.739 53.139 52.2516 53.887 52.6554C52.6293 53.7882 48.3419 54.9369 48.2013 54.7962C48.0595 54.6534 49.0304 50.0836 50.2701 48.9688C50.6594 49.745 51.2118 50.4875 51.8575 51.1344Z" fill="url(#paint2_linear_1005_16139)"/>
</g>
<circle cx="511" cy="47" r="17.4375" fill="white"/>
<circle cx="511" cy="47" r="17.4375" stroke="#161717" stroke-width="1.125"/>
<circle cx="511" cy="47" r="17.4375" stroke="url(#paint3_linear_1005_16139)" stroke-width="1.125"/>
<path d="M515.003 41.25L514.753 40C514.659 39.5209 514.232 39.1667 513.732 39.1667H506.253C505.68 39.1667 505.211 39.6354 505.211 40.2084V55.8334C505.211 56.4063 505.68 56.875 506.253 56.875C506.826 56.875 507.294 56.4063 507.294 55.8334V49.5834H513.128L513.378 50.8334C513.471 51.3229 513.898 51.6667 514.398 51.6667H519.794C520.367 51.6667 520.836 51.1979 520.836 50.625V42.2917C520.836 41.7188 520.367 41.25 519.794 41.25H515.003Z" fill="#161717"/>
<path d="M515.003 41.25L514.753 40C514.659 39.5209 514.232 39.1667 513.732 39.1667H506.253C505.68 39.1667 505.211 39.6354 505.211 40.2084V55.8334C505.211 56.4063 505.68 56.875 506.253 56.875C506.826 56.875 507.294 56.4063 507.294 55.8334V49.5834H513.128L513.378 50.8334C513.471 51.3229 513.898 51.6667 514.398 51.6667H519.794C520.367 51.6667 520.836 51.1979 520.836 50.625V42.2917C520.836 41.7188 520.367 41.25 519.794 41.25H515.003Z" fill="url(#paint4_linear_1005_16139)"/>
<rect x="283" y="39.7528" width="10.9354" height="10.9354" rx="1.59688" transform="rotate(45 283 39.7528)" fill="white" stroke="#A5A9AE" stroke-width="1.06459"/>
<rect x="283" y="41.7528" width="6.93542" height="6.93542" rx="1.59688" transform="rotate(45 283 41.7528)" fill="#A5A9AE" stroke="#A5A9AE" stroke-width="1.06459"/>
<rect x="174" y="39.7528" width="10.9354" height="10.9354" rx="1.59688" transform="rotate(45 174 39.7528)" fill="white" stroke="#A5A9AE" stroke-width="1.06459"/>
<rect x="174" y="41.7528" width="6.93542" height="6.93542" rx="1.59688" transform="rotate(45 174 41.7528)" fill="#A5A9AE" stroke="#A5A9AE" stroke-width="1.06459"/>
<rect x="392" y="39.7528" width="10.9354" height="10.9354" rx="1.59688" transform="rotate(45 392 39.7528)" fill="white" stroke="#A5A9AE" stroke-width="1.06459"/>
<rect x="392" y="41.7528" width="6.93542" height="6.93542" rx="1.59688" transform="rotate(45 392 41.7528)" fill="#A5A9AE" stroke="#A5A9AE" stroke-width="1.06459"/>
<path d="M71.5 47H131" stroke="#11CB79"/>
<path d="M116.48 92.728H113.264V91.6H120.92V92.728H117.704V100H116.48V92.728ZM122.994 100.144C122.45 100.144 121.962 100.012 121.53 99.748C121.106 99.484 120.774 99.116 120.534 98.644C120.302 98.164 120.186 97.62 120.186 97.012C120.186 96.396 120.302 95.852 120.534 95.38C120.774 94.9 121.106 94.528 121.53 94.264C121.962 93.992 122.45 93.856 122.994 93.856C123.546 93.856 124.034 93.992 124.458 94.264C124.89 94.528 125.222 94.9 125.454 95.38C125.694 95.852 125.814 96.396 125.814 97.012C125.814 97.62 125.694 98.164 125.454 98.644C125.222 99.116 124.89 99.484 124.458 99.748C124.034 100.012 123.546 100.144 122.994 100.144ZM122.994 99.148C123.33 99.148 123.622 99.064 123.87 98.896C124.118 98.72 124.306 98.472 124.434 98.152C124.57 97.832 124.638 97.452 124.638 97.012C124.638 96.34 124.49 95.812 124.194 95.428C123.906 95.044 123.506 94.852 122.994 94.852C122.658 94.852 122.366 94.94 122.118 95.116C121.878 95.284 121.69 95.532 121.554 95.86C121.426 96.18 121.362 96.564 121.362 97.012C121.362 97.676 121.506 98.2 121.794 98.584C122.082 98.96 122.482 99.148 122.994 99.148ZM129.25 100.12C128.794 100.12 128.398 99.988 128.062 99.724C127.734 99.452 127.482 99.08 127.306 98.608C127.138 98.128 127.054 97.584 127.054 96.976C127.054 96.368 127.138 95.832 127.306 95.368C127.482 94.896 127.73 94.528 128.05 94.264C128.378 93.992 128.77 93.856 129.226 93.856C129.538 93.856 129.838 93.928 130.126 94.072C130.414 94.208 130.678 94.408 130.918 94.672C131.158 94.928 131.362 95.236 131.53 95.596L131.338 95.764V91.6H132.49V100H131.35V98.176L131.542 98.332C131.294 98.9 130.966 99.34 130.558 99.652C130.158 99.964 129.722 100.12 129.25 100.12ZM129.586 99.1C129.842 99.1 130.11 99.012 130.39 98.836C130.678 98.66 130.914 98.412 131.098 98.092C131.29 97.764 131.386 97.396 131.386 96.988C131.386 96.572 131.286 96.204 131.086 95.884C130.894 95.564 130.654 95.316 130.366 95.14C130.086 94.964 129.818 94.876 129.562 94.876C129.29 94.876 129.05 94.956 128.842 95.116C128.642 95.276 128.486 95.512 128.374 95.824C128.27 96.136 128.218 96.52 128.218 96.976C128.218 97.664 128.342 98.192 128.59 98.56C128.838 98.92 129.17 99.1 129.586 99.1ZM136.148 100.144C135.556 100.144 135.072 99.98 134.696 99.652C134.328 99.324 134.144 98.88 134.144 98.32C134.144 97.712 134.34 97.256 134.732 96.952C135.132 96.648 135.692 96.488 136.412 96.472L138.176 96.448V96.268C138.176 95.788 138.056 95.428 137.816 95.188C137.576 94.948 137.236 94.828 136.796 94.828C136.356 94.828 136.016 94.928 135.776 95.128C135.544 95.32 135.412 95.544 135.38 95.8H134.192C134.232 95.472 134.356 95.16 134.564 94.864C134.78 94.56 135.08 94.316 135.464 94.132C135.848 93.948 136.296 93.856 136.808 93.856C137.36 93.856 137.82 93.964 138.188 94.18C138.556 94.388 138.828 94.672 139.004 95.032C139.18 95.392 139.268 95.804 139.268 96.268V98.608C139.276 98.896 139.296 99.156 139.328 99.388C139.36 99.62 139.412 99.824 139.484 100H138.356L138.344 99.928C138.296 99.656 138.26 99.4 138.236 99.16C138.212 98.92 138.208 98.632 138.224 98.296L138.356 98.716C138.196 99.148 137.928 99.496 137.552 99.76C137.176 100.016 136.708 100.144 136.148 100.144ZM136.424 99.184C136.832 99.184 137.188 99.088 137.492 98.896C137.796 98.696 138.024 98.42 138.176 98.068V97.408L136.424 97.432C136.064 97.44 135.784 97.512 135.584 97.648C135.384 97.776 135.284 97.984 135.284 98.272C135.284 98.56 135.388 98.784 135.596 98.944C135.812 99.104 136.088 99.184 136.424 99.184ZM140.345 101.008H141.473C141.801 101.008 142.037 100.968 142.181 100.888C142.333 100.816 142.457 100.652 142.553 100.396L142.757 99.88L142.817 100.468L140.441 94H141.677L143.453 99.34H143.033L144.809 94H146.021L143.501 100.876C143.389 101.172 143.257 101.404 143.105 101.572C142.953 101.74 142.761 101.86 142.529 101.932C142.305 102.004 142.025 102.04 141.689 102.04H140.345V101.008Z" fill="#161717"/>
<path d="M130.5 16.5V83" stroke="#CFD1D3" stroke-width="1.5" stroke-dasharray="2 2"/>
<defs>
<linearGradient id="paint0_linear_1005_16139" x1="57.4904" y1="38.8372" x2="36.3289" y2="39.6537" gradientUnits="userSpaceOnUse">
<stop stop-color="#11CB79"/>
<stop offset="0.441316" stop-color="#11A692"/>
<stop offset="1" stop-color="#002366"/>
</linearGradient>
<linearGradient id="paint1_linear_1005_16139" x1="56.2445" y1="43.9179" x2="45.6645" y2="44.3261" gradientUnits="userSpaceOnUse">
<stop stop-color="#11CB79"/>
<stop offset="0.441316" stop-color="#11A692"/>
<stop offset="1" stop-color="#002366"/>
</linearGradient>
<linearGradient id="paint2_linear_1005_16139" x1="51.4315" y1="50.5644" x2="48.081" y2="50.6905" gradientUnits="userSpaceOnUse">
<stop stop-color="#11CB79"/>
<stop offset="0.441316" stop-color="#11A692"/>
<stop offset="1" stop-color="#002366"/>
</linearGradient>
<linearGradient id="paint3_linear_1005_16139" x1="513.49" y1="38.8372" x2="492.329" y2="39.6537" gradientUnits="userSpaceOnUse">
<stop stop-color="#11CB79"/>
<stop offset="0.441316" stop-color="#11A692"/>
<stop offset="1" stop-color="#002366"/>
</linearGradient>
<linearGradient id="paint4_linear_1005_16139" x1="519.794" y1="40.7292" x2="500.962" y2="39.1562" gradientUnits="userSpaceOnUse">
<stop stop-color="#11CB79"/>
<stop offset="0.441316" stop-color="#11A692"/>
<stop offset="1" stop-color="#002366"/>
</linearGradient>
<clipPath id="clip0_1005_16139">
<rect width="18" height="18" fill="white" transform="translate(46 39)"/>
</clipPath>
</defs>
</svg>
