<svg width="568" height="162" viewBox="0 0 568 162" fill="none" xmlns="http://www.w3.org/2000/svg">
<rect width="568" height="162" rx="8" fill="white"/>
<path d="M20 82L55.064 82H92" stroke="#CFD1D3" stroke-width="1.5" stroke-dasharray="2 2"/>
<path d="M72.5 82H316.637H528" stroke="#A5A9AE"/>
<path d="M72.5 82H247" stroke="#11CB79"/>
<path d="M51.2511 110.6H52.4751V119H51.2511V110.6ZM56.7213 119.144C56.2253 119.144 55.7853 119.06 55.4013 118.892C55.0253 118.724 54.7253 118.496 54.5013 118.208C54.2773 117.912 54.1453 117.576 54.1053 117.2H55.2573C55.2973 117.512 55.4533 117.752 55.7253 117.92C55.9973 118.08 56.3373 118.16 56.7453 118.16C57.1373 118.16 57.4373 118.084 57.6453 117.932C57.8613 117.78 57.9693 117.58 57.9693 117.332C57.9693 117.156 57.9013 117.008 57.7653 116.888C57.6293 116.768 57.3893 116.668 57.0453 116.588L56.0253 116.36C55.4733 116.232 55.0533 116.024 54.7653 115.736C54.4853 115.448 54.3453 115.096 54.3453 114.68C54.3453 114.328 54.4413 114.016 54.6333 113.744C54.8333 113.464 55.1053 113.248 55.4493 113.096C55.8013 112.936 56.2013 112.856 56.6493 112.856C57.3213 112.856 57.8613 113.024 58.2693 113.36C58.6853 113.696 58.9373 114.14 59.0253 114.692H57.8733C57.8413 114.436 57.7133 114.224 57.4893 114.056C57.2733 113.888 56.9773 113.804 56.6013 113.804C56.2413 113.804 55.9613 113.88 55.7613 114.032C55.5693 114.176 55.4733 114.364 55.4733 114.596C55.4733 114.788 55.5413 114.944 55.6773 115.064C55.8133 115.176 56.0493 115.264 56.3853 115.328L57.4173 115.532C57.9693 115.644 58.3853 115.852 58.6653 116.156C58.9453 116.46 59.0853 116.828 59.0853 117.26C59.0853 117.812 58.8693 118.264 58.4373 118.616C58.0133 118.968 57.4413 119.144 56.7213 119.144ZM62.7799 119.144C62.2839 119.144 61.8439 119.06 61.4599 118.892C61.0839 118.724 60.7839 118.496 60.5599 118.208C60.3359 117.912 60.2039 117.576 60.1639 117.2H61.3159C61.3559 117.512 61.5119 117.752 61.7839 117.92C62.0559 118.08 62.3959 118.16 62.8039 118.16C63.1959 118.16 63.4959 118.084 63.7039 117.932C63.9199 117.78 64.0279 117.58 64.0279 117.332C64.0279 117.156 63.9599 117.008 63.8239 116.888C63.6879 116.768 63.4479 116.668 63.1039 116.588L62.0839 116.36C61.5319 116.232 61.1119 116.024 60.8239 115.736C60.5439 115.448 60.4039 115.096 60.4039 114.68C60.4039 114.328 60.4999 114.016 60.6919 113.744C60.8919 113.464 61.1639 113.248 61.5079 113.096C61.8599 112.936 62.2599 112.856 62.7079 112.856C63.3799 112.856 63.9199 113.024 64.3279 113.36C64.7439 113.696 64.9959 114.14 65.0839 114.692H63.9319C63.8999 114.436 63.7719 114.224 63.5479 114.056C63.3319 113.888 63.0359 113.804 62.6599 113.804C62.2999 113.804 62.0199 113.88 61.8199 114.032C61.6279 114.176 61.5319 114.364 61.5319 114.596C61.5319 114.788 61.5999 114.944 61.7359 115.064C61.8719 115.176 62.1079 115.264 62.4439 115.328L63.4759 115.532C64.0279 115.644 64.4439 115.852 64.7239 116.156C65.0039 116.46 65.1439 116.828 65.1439 117.26C65.1439 117.812 64.9279 118.264 64.4959 118.616C64.0719 118.968 63.4999 119.144 62.7799 119.144ZM68.6345 119.144C68.2185 119.144 67.8625 119.052 67.5665 118.868C67.2785 118.684 67.0585 118.42 66.9065 118.076C66.7545 117.724 66.6785 117.304 66.6785 116.816V113H67.8305V116.42C67.8305 117.012 67.9225 117.44 68.1065 117.704C68.2985 117.968 68.5945 118.1 68.9945 118.1C69.2825 118.1 69.5585 118.016 69.8225 117.848C70.0865 117.672 70.2985 117.424 70.4585 117.104C70.6265 116.784 70.7105 116.416 70.7105 116V113H71.8625V119H70.7225V117.236L70.8905 117.464C70.6665 117.936 70.3545 118.336 69.9545 118.664C69.5545 118.984 69.1145 119.144 68.6345 119.144ZM75.5189 119.144C74.9269 119.144 74.4429 118.98 74.0669 118.652C73.6989 118.324 73.5149 117.88 73.5149 117.32C73.5149 116.712 73.7109 116.256 74.1029 115.952C74.5029 115.648 75.0629 115.488 75.7829 115.472L77.5469 115.448V115.268C77.5469 114.788 77.4269 114.428 77.1869 114.188C76.9469 113.948 76.6069 113.828 76.1669 113.828C75.7269 113.828 75.3869 113.928 75.1469 114.128C74.9149 114.32 74.7829 114.544 74.7509 114.8H73.5629C73.6029 114.472 73.7269 114.16 73.9349 113.864C74.1509 113.56 74.4509 113.316 74.8349 113.132C75.2189 112.948 75.6669 112.856 76.1789 112.856C76.7309 112.856 77.1909 112.964 77.5589 113.18C77.9269 113.388 78.1989 113.672 78.3749 114.032C78.5509 114.392 78.6389 114.804 78.6389 115.268V117.608C78.6469 117.896 78.6669 118.156 78.6989 118.388C78.7309 118.62 78.7829 118.824 78.8549 119H77.7269L77.7149 118.928C77.6669 118.656 77.6309 118.4 77.6069 118.16C77.5829 117.92 77.5789 117.632 77.5949 117.296L77.7269 117.716C77.5669 118.148 77.2989 118.496 76.9229 118.76C76.5469 119.016 76.0789 119.144 75.5189 119.144ZM75.7949 118.184C76.2029 118.184 76.5589 118.088 76.8629 117.896C77.1669 117.696 77.3949 117.42 77.5469 117.068V116.408L75.7949 116.432C75.4349 116.44 75.1549 116.512 74.9549 116.648C74.7549 116.776 74.6549 116.984 74.6549 117.272C74.6549 117.56 74.7589 117.784 74.9669 117.944C75.1829 118.104 75.4589 118.184 75.7949 118.184ZM80.5903 113H81.7303V114.764L81.5623 114.536C81.7863 114.064 82.0983 113.668 82.4983 113.348C82.8983 113.02 83.3383 112.856 83.8183 112.856C84.2343 112.856 84.5863 112.948 84.8743 113.132C85.1703 113.316 85.3943 113.584 85.5463 113.936C85.6983 114.28 85.7743 114.696 85.7743 115.184V119H84.6223V115.58C84.6223 114.988 84.5263 114.56 84.3343 114.296C84.1503 114.032 83.8583 113.9 83.4583 113.9C83.1703 113.9 82.8943 113.988 82.6303 114.164C82.3663 114.332 82.1503 114.576 81.9823 114.896C81.8223 115.216 81.7423 115.584 81.7423 116V119H80.5903V113ZM90.0788 119.144C89.5348 119.144 89.0548 119.012 88.6388 118.748C88.2228 118.484 87.8988 118.116 87.6668 117.644C87.4348 117.172 87.3188 116.628 87.3188 116.012C87.3188 115.396 87.4348 114.852 87.6668 114.38C87.9068 113.9 88.2348 113.528 88.6508 113.264C89.0748 112.992 89.5628 112.856 90.1148 112.856C90.5948 112.856 91.0228 112.956 91.3988 113.156C91.7748 113.348 92.0748 113.616 92.2988 113.96C92.5308 114.296 92.6668 114.676 92.7068 115.1H91.5548C91.5068 114.74 91.3548 114.444 91.0988 114.212C90.8428 113.972 90.5068 113.852 90.0908 113.852C89.7708 113.852 89.4908 113.94 89.2508 114.116C89.0108 114.284 88.8228 114.528 88.6868 114.848C88.5588 115.168 88.4948 115.552 88.4948 116C88.4948 116.688 88.6388 117.22 88.9268 117.596C89.2228 117.964 89.6228 118.148 90.1268 118.148C90.5508 118.148 90.8788 118.024 91.1108 117.776C91.3428 117.528 91.4868 117.212 91.5428 116.828H92.6948C92.6388 117.268 92.4948 117.664 92.2628 118.016C92.0388 118.368 91.7348 118.644 91.3508 118.844C90.9748 119.044 90.5508 119.144 90.0788 119.144ZM96.7384 119.144C96.1624 119.144 95.6544 119.016 95.2144 118.76C94.7744 118.496 94.4344 118.128 94.1944 117.656C93.9544 117.176 93.8344 116.628 93.8344 116.012C93.8344 115.396 93.9544 114.848 94.1944 114.368C94.4344 113.888 94.7664 113.516 95.1904 113.252C95.6224 112.988 96.1184 112.856 96.6784 112.856C97.2064 112.856 97.6704 112.976 98.0704 113.216C98.4784 113.456 98.7944 113.8 99.0184 114.248C99.2424 114.688 99.3544 115.204 99.3544 115.796C99.3544 115.82 99.3544 115.86 99.3544 115.916C99.3544 115.964 99.3504 116.024 99.3424 116.096H94.5544V115.136H98.6704L98.1304 115.616C98.1304 115.568 98.1304 115.52 98.1304 115.472C98.1304 115.424 98.1304 115.376 98.1304 115.328C98.1304 114.864 97.9944 114.496 97.7224 114.224C97.4584 113.952 97.1104 113.816 96.6784 113.816C96.3904 113.816 96.1264 113.88 95.8864 114.008C95.6544 114.136 95.4624 114.316 95.3104 114.548C95.1664 114.78 95.0864 115.04 95.0704 115.328C95.0624 115.376 95.0544 115.428 95.0464 115.484C95.0384 115.532 95.0304 115.584 95.0224 115.64C95.0144 115.696 95.0064 115.748 94.9984 115.796C94.9904 115.844 94.9824 115.896 94.9744 115.952C94.9744 116.64 95.1344 117.18 95.4544 117.572C95.7744 117.956 96.2064 118.148 96.7504 118.148C97.1104 118.148 97.4104 118.064 97.6504 117.896C97.8984 117.728 98.0704 117.496 98.1664 117.2H99.3064C99.1864 117.768 98.9024 118.236 98.4544 118.604C98.0064 118.964 97.4344 119.144 96.7384 119.144ZM65.3281 135.12C64.8721 135.12 64.4761 134.988 64.1401 134.724C63.8121 134.452 63.5601 134.08 63.3841 133.608C63.2161 133.128 63.1321 132.584 63.1321 131.976C63.1321 131.368 63.2161 130.832 63.3841 130.368C63.5601 129.896 63.8081 129.528 64.1281 129.264C64.4561 128.992 64.8481 128.856 65.3041 128.856C65.6161 128.856 65.9161 128.928 66.2041 129.072C66.4921 129.208 66.7561 129.408 66.9961 129.672C67.2361 129.928 67.4401 130.236 67.6081 130.596L67.4161 130.764V126.6H68.5681V135H67.4281V133.176L67.6201 133.332C67.3721 133.9 67.0441 134.34 66.6361 134.652C66.2361 134.964 65.8001 135.12 65.3281 135.12ZM65.6641 134.1C65.9201 134.1 66.1881 134.012 66.4681 133.836C66.7561 133.66 66.9921 133.412 67.1761 133.092C67.3681 132.764 67.4641 132.396 67.4641 131.988C67.4641 131.572 67.3641 131.204 67.1641 130.884C66.9721 130.564 66.7321 130.316 66.4441 130.14C66.1641 129.964 65.8961 129.876 65.6401 129.876C65.3681 129.876 65.1281 129.956 64.9201 130.116C64.7201 130.276 64.5641 130.512 64.4521 130.824C64.3481 131.136 64.2961 131.52 64.2961 131.976C64.2961 132.664 64.4201 133.192 64.6681 133.56C64.9161 133.92 65.2481 134.1 65.6641 134.1ZM72.2259 135.144C71.6339 135.144 71.1499 134.98 70.7739 134.652C70.4059 134.324 70.2219 133.88 70.2219 133.32C70.2219 132.712 70.4179 132.256 70.8099 131.952C71.2099 131.648 71.7699 131.488 72.4899 131.472L74.2539 131.448V131.268C74.2539 130.788 74.1339 130.428 73.8939 130.188C73.6539 129.948 73.3139 129.828 72.8739 129.828C72.4339 129.828 72.0939 129.928 71.8539 130.128C71.6219 130.32 71.4899 130.544 71.4579 130.8H70.2699C70.3099 130.472 70.4339 130.16 70.6419 129.864C70.8579 129.56 71.1579 129.316 71.5419 129.132C71.9259 128.948 72.3739 128.856 72.8859 128.856C73.4379 128.856 73.8979 128.964 74.2659 129.18C74.6339 129.388 74.9059 129.672 75.0819 130.032C75.2579 130.392 75.3459 130.804 75.3459 131.268V133.608C75.3539 133.896 75.3739 134.156 75.4059 134.388C75.4379 134.62 75.4899 134.824 75.5619 135H74.4339L74.4219 134.928C74.3739 134.656 74.3379 134.4 74.3139 134.16C74.2899 133.92 74.2859 133.632 74.3019 133.296L74.4339 133.716C74.2739 134.148 74.0059 134.496 73.6299 134.76C73.2539 135.016 72.7859 135.144 72.2259 135.144ZM72.5019 134.184C72.9099 134.184 73.2659 134.088 73.5699 133.896C73.8739 133.696 74.1019 133.42 74.2539 133.068V132.408L72.5019 132.432C72.1419 132.44 71.8619 132.512 71.6619 132.648C71.4619 132.776 71.3619 132.984 71.3619 133.272C71.3619 133.56 71.4659 133.784 71.6739 133.944C71.8899 134.104 72.1659 134.184 72.5019 134.184ZM79.363 135C78.811 135 78.395 134.888 78.115 134.664C77.843 134.432 77.707 134.076 77.707 133.596V127.608L78.859 126.84V133.344C78.859 133.576 78.911 133.744 79.015 133.848C79.127 133.952 79.331 134.004 79.627 134.004H80.551V135H79.363ZM76.531 129H80.215V129.96H76.531V129ZM84.2813 135.144C83.7053 135.144 83.1973 135.016 82.7573 134.76C82.3173 134.496 81.9773 134.128 81.7373 133.656C81.4973 133.176 81.3773 132.628 81.3773 132.012C81.3773 131.396 81.4973 130.848 81.7373 130.368C81.9773 129.888 82.3093 129.516 82.7333 129.252C83.1653 128.988 83.6613 128.856 84.2213 128.856C84.7493 128.856 85.2133 128.976 85.6133 129.216C86.0213 129.456 86.3373 129.8 86.5613 130.248C86.7853 130.688 86.8973 131.204 86.8973 131.796C86.8973 131.82 86.8973 131.86 86.8973 131.916C86.8973 131.964 86.8933 132.024 86.8853 132.096H82.0973V131.136H86.2133L85.6733 131.616C85.6733 131.568 85.6733 131.52 85.6733 131.472C85.6733 131.424 85.6733 131.376 85.6733 131.328C85.6733 130.864 85.5373 130.496 85.2653 130.224C85.0013 129.952 84.6533 129.816 84.2213 129.816C83.9333 129.816 83.6693 129.88 83.4293 130.008C83.1973 130.136 83.0053 130.316 82.8533 130.548C82.7093 130.78 82.6293 131.04 82.6133 131.328C82.6053 131.376 82.5973 131.428 82.5893 131.484C82.5813 131.532 82.5733 131.584 82.5653 131.64C82.5573 131.696 82.5493 131.748 82.5413 131.796C82.5333 131.844 82.5253 131.896 82.5173 131.952C82.5173 132.64 82.6773 133.18 82.9973 133.572C83.3173 133.956 83.7493 134.148 84.2933 134.148C84.6533 134.148 84.9533 134.064 85.1933 133.896C85.4413 133.728 85.6133 133.496 85.7093 133.2H86.8493C86.7293 133.768 86.4453 134.236 85.9973 134.604C85.5493 134.964 84.9773 135.144 84.2813 135.144Z" fill="#161717"/>
<path d="M488.648 45C488.704 44.528 488.82 44.112 488.996 43.752C489.172 43.392 489.428 43.048 489.764 42.72C490.1 42.384 490.552 42.02 491.12 41.628L491.708 41.22C492.244 40.844 492.652 40.496 492.932 40.176C493.212 39.856 493.352 39.48 493.352 39.048C493.352 38.584 493.204 38.216 492.908 37.944C492.612 37.664 492.196 37.524 491.66 37.524C491.092 37.524 490.648 37.696 490.328 38.04C490.008 38.376 489.836 38.804 489.812 39.324H488.636C488.644 38.78 488.78 38.292 489.044 37.86C489.308 37.42 489.668 37.076 490.124 36.828C490.58 36.58 491.092 36.456 491.66 36.456C492.244 36.456 492.756 36.568 493.196 36.792C493.636 37.008 493.976 37.316 494.216 37.716C494.456 38.108 494.576 38.564 494.576 39.084C494.576 39.444 494.504 39.784 494.36 40.104C494.216 40.424 493.992 40.736 493.688 41.04C493.384 41.344 492.988 41.66 492.5 41.988L491.912 42.384C491.896 42.392 491.88 42.404 491.864 42.42C491.848 42.428 491.832 42.436 491.816 42.444C491.296 42.788 490.916 43.076 490.676 43.308C490.436 43.54 490.28 43.82 490.208 44.148L489.8 43.92H494.708V45H488.648ZM496.019 45C496.075 44.528 496.191 44.112 496.367 43.752C496.543 43.392 496.799 43.048 497.135 42.72C497.471 42.384 497.923 42.02 498.491 41.628L499.079 41.22C499.615 40.844 500.023 40.496 500.303 40.176C500.583 39.856 500.723 39.48 500.723 39.048C500.723 38.584 500.575 38.216 500.279 37.944C499.983 37.664 499.567 37.524 499.031 37.524C498.463 37.524 498.019 37.696 497.699 38.04C497.379 38.376 497.207 38.804 497.183 39.324H496.007C496.015 38.78 496.151 38.292 496.415 37.86C496.679 37.42 497.039 37.076 497.495 36.828C497.951 36.58 498.463 36.456 499.031 36.456C499.615 36.456 500.127 36.568 500.567 36.792C501.007 37.008 501.347 37.316 501.587 37.716C501.827 38.108 501.947 38.564 501.947 39.084C501.947 39.444 501.875 39.784 501.731 40.104C501.587 40.424 501.363 40.736 501.059 41.04C500.755 41.344 500.359 41.66 499.871 41.988L499.283 42.384C499.267 42.392 499.251 42.404 499.235 42.42C499.219 42.428 499.203 42.436 499.187 42.444C498.667 42.788 498.287 43.076 498.047 43.308C497.807 43.54 497.651 43.82 497.579 44.148L497.171 43.92H502.079V45H496.019ZM507.118 36.6H510.442C511.178 36.6 511.838 36.76 512.422 37.08C513.014 37.4 513.482 37.876 513.826 38.508C514.17 39.132 514.342 39.888 514.342 40.776C514.342 41.672 514.166 42.44 513.814 43.08C513.462 43.712 512.978 44.192 512.362 44.52C511.746 44.84 511.046 45 510.262 45H507.118V36.6ZM510.022 43.896C510.622 43.896 511.15 43.784 511.606 43.56C512.062 43.336 512.418 42.996 512.674 42.54C512.938 42.076 513.07 41.5 513.07 40.812C513.07 40.164 512.954 39.604 512.722 39.132C512.498 38.66 512.178 38.3 511.762 38.052C511.346 37.804 510.862 37.68 510.31 37.68H508.342V43.896H510.022ZM516.247 36.6H522.535V37.68H517.471V39.96H520.915V41.064H517.471V43.896H522.799V45H516.247V36.6ZM527.696 45.168C526.888 45.168 526.18 44.988 525.572 44.628C524.972 44.268 524.504 43.76 524.168 43.104C523.84 42.448 523.676 41.684 523.676 40.812C523.676 39.972 523.844 39.22 524.18 38.556C524.516 37.892 524.992 37.372 525.608 36.996C526.224 36.62 526.932 36.432 527.732 36.432C528.268 36.432 528.772 36.536 529.244 36.744C529.724 36.944 530.136 37.228 530.48 37.596C530.824 37.956 531.08 38.368 531.248 38.832L530.084 39.264C529.916 38.776 529.636 38.372 529.244 38.052C528.86 37.724 528.356 37.56 527.732 37.56C527.172 37.56 526.68 37.692 526.256 37.956C525.84 38.22 525.516 38.596 525.284 39.084C525.06 39.564 524.948 40.124 524.948 40.764C524.948 41.404 525.056 41.972 525.272 42.468C525.488 42.964 525.804 43.352 526.22 43.632C526.644 43.904 527.148 44.04 527.732 44.04C528.34 44.04 528.848 43.88 529.256 43.56C529.664 43.232 529.952 42.796 530.12 42.252L531.236 42.648C531.084 43.128 530.836 43.56 530.492 43.944C530.148 44.328 529.732 44.628 529.244 44.844C528.764 45.06 528.248 45.168 527.696 45.168Z" fill="#161717"/>
<path d="M381.648 56C381.704 55.528 381.82 55.112 381.996 54.752C382.172 54.392 382.428 54.048 382.764 53.72C383.1 53.384 383.552 53.02 384.12 52.628L384.708 52.22C385.244 51.844 385.652 51.496 385.932 51.176C386.212 50.856 386.352 50.48 386.352 50.048C386.352 49.584 386.204 49.216 385.908 48.944C385.612 48.664 385.196 48.524 384.66 48.524C384.092 48.524 383.648 48.696 383.328 49.04C383.008 49.376 382.836 49.804 382.812 50.324H381.636C381.644 49.78 381.78 49.292 382.044 48.86C382.308 48.42 382.668 48.076 383.124 47.828C383.58 47.58 384.092 47.456 384.66 47.456C385.244 47.456 385.756 47.568 386.196 47.792C386.636 48.008 386.976 48.316 387.216 48.716C387.456 49.108 387.576 49.564 387.576 50.084C387.576 50.444 387.504 50.784 387.36 51.104C387.216 51.424 386.992 51.736 386.688 52.04C386.384 52.344 385.988 52.66 385.5 52.988L384.912 53.384C384.896 53.392 384.88 53.404 384.864 53.42C384.848 53.428 384.832 53.436 384.816 53.444C384.296 53.788 383.916 54.076 383.676 54.308C383.436 54.54 383.28 54.82 383.208 55.148L382.8 54.92H387.708V56H381.648ZM391.995 56.144C391.475 56.144 391.007 56.044 390.591 55.844C390.183 55.636 389.855 55.356 389.607 55.004C389.359 54.644 389.211 54.24 389.163 53.792H390.339C390.403 54.192 390.575 54.508 390.855 54.74C391.135 54.964 391.507 55.076 391.971 55.076C392.739 55.076 393.283 54.716 393.603 53.996C393.923 53.276 394.071 52.376 394.047 51.296L394.215 51.236C393.895 51.796 393.531 52.216 393.123 52.496C392.715 52.776 392.219 52.916 391.635 52.916C391.115 52.916 390.659 52.804 390.267 52.58C389.875 52.348 389.575 52.032 389.367 51.632C389.159 51.232 389.055 50.784 389.055 50.288C389.055 49.76 389.179 49.28 389.427 48.848C389.675 48.416 390.019 48.076 390.459 47.828C390.907 47.58 391.419 47.456 391.995 47.456C392.643 47.456 393.211 47.62 393.699 47.948C394.187 48.276 394.563 48.76 394.827 49.4C395.099 50.032 395.235 50.804 395.235 51.716C395.235 52.66 395.091 53.468 394.803 54.14C394.523 54.804 394.135 55.304 393.639 55.64C393.151 55.976 392.603 56.144 391.995 56.144ZM391.827 51.92C392.227 51.92 392.579 51.848 392.883 51.704C393.187 51.552 393.419 51.352 393.579 51.104C393.747 50.848 393.831 50.576 393.831 50.288C393.831 50 393.759 49.724 393.615 49.46C393.471 49.188 393.259 48.964 392.979 48.788C392.707 48.612 392.379 48.524 391.995 48.524C391.651 48.524 391.347 48.6 391.083 48.752C390.827 48.896 390.627 49.1 390.483 49.364C390.347 49.628 390.279 49.928 390.279 50.264C390.279 50.752 390.407 51.152 390.663 51.464C390.927 51.768 391.315 51.92 391.827 51.92ZM400.341 47.6H402.273L406.533 54.548L406.281 54.62V47.6H407.445V56H406.041L401.217 48.14L401.505 48.068V56H400.341V47.6ZM413.492 56.168C412.7 56.168 411.988 55.98 411.356 55.604C410.724 55.228 410.228 54.708 409.868 54.044C409.508 53.38 409.328 52.632 409.328 51.8C409.328 50.968 409.508 50.22 409.868 49.556C410.228 48.892 410.724 48.372 411.356 47.996C411.988 47.62 412.7 47.432 413.492 47.432C414.284 47.432 414.996 47.62 415.628 47.996C416.26 48.372 416.756 48.892 417.116 49.556C417.476 50.22 417.656 50.968 417.656 51.8C417.656 52.632 417.476 53.38 417.116 54.044C416.756 54.708 416.26 55.228 415.628 55.604C414.996 55.98 414.284 56.168 413.492 56.168ZM413.492 55.064C414.06 55.064 414.56 54.928 414.992 54.656C415.432 54.376 415.772 53.992 416.012 53.504C416.26 53.008 416.384 52.44 416.384 51.8C416.384 51.16 416.26 50.596 416.012 50.108C415.772 49.612 415.432 49.228 414.992 48.956C414.56 48.676 414.06 48.536 413.492 48.536C412.924 48.536 412.42 48.676 411.98 48.956C411.548 49.228 411.208 49.612 410.96 50.108C410.72 50.596 410.6 51.16 410.6 51.8C410.6 52.44 410.72 53.008 410.96 53.504C411.208 53.992 411.548 54.376 411.98 54.656C412.42 54.928 412.924 55.064 413.492 55.064ZM418.413 47.6H419.745L422.613 55.472L422.013 55.46L424.929 47.6H426.225L423.009 56H421.545L418.413 47.6Z" fill="#828A93"/>
<path d="M273.648 56C273.704 55.528 273.82 55.112 273.996 54.752C274.172 54.392 274.428 54.048 274.764 53.72C275.1 53.384 275.552 53.02 276.12 52.628L276.708 52.22C277.244 51.844 277.652 51.496 277.932 51.176C278.212 50.856 278.352 50.48 278.352 50.048C278.352 49.584 278.204 49.216 277.908 48.944C277.612 48.664 277.196 48.524 276.66 48.524C276.092 48.524 275.648 48.696 275.328 49.04C275.008 49.376 274.836 49.804 274.812 50.324H273.636C273.644 49.78 273.78 49.292 274.044 48.86C274.308 48.42 274.668 48.076 275.124 47.828C275.58 47.58 276.092 47.456 276.66 47.456C277.244 47.456 277.756 47.568 278.196 47.792C278.636 48.008 278.976 48.316 279.216 48.716C279.456 49.108 279.576 49.564 279.576 50.084C279.576 50.444 279.504 50.784 279.36 51.104C279.216 51.424 278.992 51.736 278.688 52.04C278.384 52.344 277.988 52.66 277.5 52.988L276.912 53.384C276.896 53.392 276.88 53.404 276.864 53.42C276.848 53.428 276.832 53.436 276.816 53.444C276.296 53.788 275.916 54.076 275.676 54.308C275.436 54.54 275.28 54.82 275.208 55.148L274.8 54.92H279.708V56H273.648ZM283.995 56.144C283.475 56.144 283.007 56.044 282.591 55.844C282.183 55.636 281.855 55.356 281.607 55.004C281.359 54.644 281.211 54.24 281.163 53.792H282.339C282.403 54.192 282.575 54.508 282.855 54.74C283.135 54.964 283.507 55.076 283.971 55.076C284.739 55.076 285.283 54.716 285.603 53.996C285.923 53.276 286.071 52.376 286.047 51.296L286.215 51.236C285.895 51.796 285.531 52.216 285.123 52.496C284.715 52.776 284.219 52.916 283.635 52.916C283.115 52.916 282.659 52.804 282.267 52.58C281.875 52.348 281.575 52.032 281.367 51.632C281.159 51.232 281.055 50.784 281.055 50.288C281.055 49.76 281.179 49.28 281.427 48.848C281.675 48.416 282.019 48.076 282.459 47.828C282.907 47.58 283.419 47.456 283.995 47.456C284.643 47.456 285.211 47.62 285.699 47.948C286.187 48.276 286.563 48.76 286.827 49.4C287.099 50.032 287.235 50.804 287.235 51.716C287.235 52.66 287.091 53.468 286.803 54.14C286.523 54.804 286.135 55.304 285.639 55.64C285.151 55.976 284.603 56.144 283.995 56.144ZM283.827 51.92C284.227 51.92 284.579 51.848 284.883 51.704C285.187 51.552 285.419 51.352 285.579 51.104C285.747 50.848 285.831 50.576 285.831 50.288C285.831 50 285.759 49.724 285.615 49.46C285.471 49.188 285.259 48.964 284.979 48.788C284.707 48.612 284.379 48.524 283.995 48.524C283.651 48.524 283.347 48.6 283.083 48.752C282.827 48.896 282.627 49.1 282.483 49.364C282.347 49.628 282.279 49.928 282.279 50.264C282.279 50.752 282.407 51.152 282.663 51.464C282.927 51.768 283.315 51.92 283.827 51.92ZM292.341 47.6H294.273L298.533 54.548L298.281 54.62V47.6H299.445V56H298.041L293.217 48.14L293.505 48.068V56H292.341V47.6ZM305.492 56.168C304.7 56.168 303.988 55.98 303.356 55.604C302.724 55.228 302.228 54.708 301.868 54.044C301.508 53.38 301.328 52.632 301.328 51.8C301.328 50.968 301.508 50.22 301.868 49.556C302.228 48.892 302.724 48.372 303.356 47.996C303.988 47.62 304.7 47.432 305.492 47.432C306.284 47.432 306.996 47.62 307.628 47.996C308.26 48.372 308.756 48.892 309.116 49.556C309.476 50.22 309.656 50.968 309.656 51.8C309.656 52.632 309.476 53.38 309.116 54.044C308.756 54.708 308.26 55.228 307.628 55.604C306.996 55.98 306.284 56.168 305.492 56.168ZM305.492 55.064C306.06 55.064 306.56 54.928 306.992 54.656C307.432 54.376 307.772 53.992 308.012 53.504C308.26 53.008 308.384 52.44 308.384 51.8C308.384 51.16 308.26 50.596 308.012 50.108C307.772 49.612 307.432 49.228 306.992 48.956C306.56 48.676 306.06 48.536 305.492 48.536C304.924 48.536 304.42 48.676 303.98 48.956C303.548 49.228 303.208 49.612 302.96 50.108C302.72 50.596 302.6 51.16 302.6 51.8C302.6 52.44 302.72 53.008 302.96 53.504C303.208 53.992 303.548 54.376 303.98 54.656C304.42 54.928 304.924 55.064 305.492 55.064ZM310.413 47.6H311.745L314.613 55.472L314.013 55.46L316.929 47.6H318.225L315.009 56H313.545L310.413 47.6Z" fill="#828A93"/>
<path d="M165.648 56C165.704 55.528 165.82 55.112 165.996 54.752C166.172 54.392 166.428 54.048 166.764 53.72C167.1 53.384 167.552 53.02 168.12 52.628L168.708 52.22C169.244 51.844 169.652 51.496 169.932 51.176C170.212 50.856 170.352 50.48 170.352 50.048C170.352 49.584 170.204 49.216 169.908 48.944C169.612 48.664 169.196 48.524 168.66 48.524C168.092 48.524 167.648 48.696 167.328 49.04C167.008 49.376 166.836 49.804 166.812 50.324H165.636C165.644 49.78 165.78 49.292 166.044 48.86C166.308 48.42 166.668 48.076 167.124 47.828C167.58 47.58 168.092 47.456 168.66 47.456C169.244 47.456 169.756 47.568 170.196 47.792C170.636 48.008 170.976 48.316 171.216 48.716C171.456 49.108 171.576 49.564 171.576 50.084C171.576 50.444 171.504 50.784 171.36 51.104C171.216 51.424 170.992 51.736 170.688 52.04C170.384 52.344 169.988 52.66 169.5 52.988L168.912 53.384C168.896 53.392 168.88 53.404 168.864 53.42C168.848 53.428 168.832 53.436 168.816 53.444C168.296 53.788 167.916 54.076 167.676 54.308C167.436 54.54 167.28 54.82 167.208 55.148L166.8 54.92H171.708V56H165.648ZM175.995 56.144C175.475 56.144 175.007 56.044 174.591 55.844C174.183 55.636 173.855 55.356 173.607 55.004C173.359 54.644 173.211 54.24 173.163 53.792H174.339C174.403 54.192 174.575 54.508 174.855 54.74C175.135 54.964 175.507 55.076 175.971 55.076C176.739 55.076 177.283 54.716 177.603 53.996C177.923 53.276 178.071 52.376 178.047 51.296L178.215 51.236C177.895 51.796 177.531 52.216 177.123 52.496C176.715 52.776 176.219 52.916 175.635 52.916C175.115 52.916 174.659 52.804 174.267 52.58C173.875 52.348 173.575 52.032 173.367 51.632C173.159 51.232 173.055 50.784 173.055 50.288C173.055 49.76 173.179 49.28 173.427 48.848C173.675 48.416 174.019 48.076 174.459 47.828C174.907 47.58 175.419 47.456 175.995 47.456C176.643 47.456 177.211 47.62 177.699 47.948C178.187 48.276 178.563 48.76 178.827 49.4C179.099 50.032 179.235 50.804 179.235 51.716C179.235 52.66 179.091 53.468 178.803 54.14C178.523 54.804 178.135 55.304 177.639 55.64C177.151 55.976 176.603 56.144 175.995 56.144ZM175.827 51.92C176.227 51.92 176.579 51.848 176.883 51.704C177.187 51.552 177.419 51.352 177.579 51.104C177.747 50.848 177.831 50.576 177.831 50.288C177.831 50 177.759 49.724 177.615 49.46C177.471 49.188 177.259 48.964 176.979 48.788C176.707 48.612 176.379 48.524 175.995 48.524C175.651 48.524 175.347 48.6 175.083 48.752C174.827 48.896 174.627 49.1 174.483 49.364C174.347 49.628 174.279 49.928 174.279 50.264C174.279 50.752 174.407 51.152 174.663 51.464C174.927 51.768 175.315 51.92 175.827 51.92ZM184.341 47.6H186.273L190.533 54.548L190.281 54.62V47.6H191.445V56H190.041L185.217 48.14L185.505 48.068V56H184.341V47.6ZM197.492 56.168C196.7 56.168 195.988 55.98 195.356 55.604C194.724 55.228 194.228 54.708 193.868 54.044C193.508 53.38 193.328 52.632 193.328 51.8C193.328 50.968 193.508 50.22 193.868 49.556C194.228 48.892 194.724 48.372 195.356 47.996C195.988 47.62 196.7 47.432 197.492 47.432C198.284 47.432 198.996 47.62 199.628 47.996C200.26 48.372 200.756 48.892 201.116 49.556C201.476 50.22 201.656 50.968 201.656 51.8C201.656 52.632 201.476 53.38 201.116 54.044C200.756 54.708 200.26 55.228 199.628 55.604C198.996 55.98 198.284 56.168 197.492 56.168ZM197.492 55.064C198.06 55.064 198.56 54.928 198.992 54.656C199.432 54.376 199.772 53.992 200.012 53.504C200.26 53.008 200.384 52.44 200.384 51.8C200.384 51.16 200.26 50.596 200.012 50.108C199.772 49.612 199.432 49.228 198.992 48.956C198.56 48.676 198.06 48.536 197.492 48.536C196.924 48.536 196.42 48.676 195.98 48.956C195.548 49.228 195.208 49.612 194.96 50.108C194.72 50.596 194.6 51.16 194.6 51.8C194.6 52.44 194.72 53.008 194.96 53.504C195.208 53.992 195.548 54.376 195.98 54.656C196.42 54.928 196.924 55.064 197.492 55.064ZM202.413 47.6H203.745L206.613 55.472L206.013 55.46L208.929 47.6H210.225L207.009 56H205.545L202.413 47.6Z" fill="#828A93"/>
<path d="M52.648 45C52.704 44.528 52.82 44.112 52.996 43.752C53.172 43.392 53.428 43.048 53.764 42.72C54.1 42.384 54.552 42.02 55.12 41.628L55.708 41.22C56.244 40.844 56.652 40.496 56.932 40.176C57.212 39.856 57.352 39.48 57.352 39.048C57.352 38.584 57.204 38.216 56.908 37.944C56.612 37.664 56.196 37.524 55.66 37.524C55.092 37.524 54.648 37.696 54.328 38.04C54.008 38.376 53.836 38.804 53.812 39.324H52.636C52.644 38.78 52.78 38.292 53.044 37.86C53.308 37.42 53.668 37.076 54.124 36.828C54.58 36.58 55.092 36.456 55.66 36.456C56.244 36.456 56.756 36.568 57.196 36.792C57.636 37.008 57.976 37.316 58.216 37.716C58.456 38.108 58.576 38.564 58.576 39.084C58.576 39.444 58.504 39.784 58.36 40.104C58.216 40.424 57.992 40.736 57.688 41.04C57.384 41.344 56.988 41.66 56.5 41.988L55.912 42.384C55.896 42.392 55.88 42.404 55.864 42.42C55.848 42.428 55.832 42.436 55.816 42.444C55.296 42.788 54.916 43.076 54.676 43.308C54.436 43.54 54.28 43.82 54.208 44.148L53.8 43.92H58.708V45H52.648ZM60.0191 45C60.0751 44.528 60.1911 44.112 60.3671 43.752C60.5431 43.392 60.7991 43.048 61.1351 42.72C61.4711 42.384 61.9231 42.02 62.4911 41.628L63.0791 41.22C63.6151 40.844 64.0231 40.496 64.3031 40.176C64.5831 39.856 64.7231 39.48 64.7231 39.048C64.7231 38.584 64.5751 38.216 64.2791 37.944C63.9831 37.664 63.5671 37.524 63.0311 37.524C62.4631 37.524 62.0191 37.696 61.6991 38.04C61.3791 38.376 61.2071 38.804 61.1831 39.324H60.0071C60.0151 38.78 60.1511 38.292 60.4151 37.86C60.6791 37.42 61.0391 37.076 61.4951 36.828C61.9511 36.58 62.4631 36.456 63.0311 36.456C63.6151 36.456 64.1271 36.568 64.5671 36.792C65.0071 37.008 65.3471 37.316 65.5871 37.716C65.8271 38.108 65.9471 38.564 65.9471 39.084C65.9471 39.444 65.8751 39.784 65.7311 40.104C65.5871 40.424 65.3631 40.736 65.0591 41.04C64.7551 41.344 64.3591 41.66 63.8711 41.988L63.2831 42.384C63.2671 42.392 63.2511 42.404 63.2351 42.42C63.2191 42.428 63.2031 42.436 63.1871 42.444C62.6671 42.788 62.2871 43.076 62.0471 43.308C61.8071 43.54 61.6511 43.82 61.5791 44.148L61.1711 43.92H66.0791V45H60.0191ZM71.1183 36.6H73.0503L77.3103 43.548L77.0583 43.62V36.6H78.2223V45H76.8183L71.9943 37.14L72.2823 37.068V45H71.1183V36.6ZM84.2696 45.168C83.4776 45.168 82.7656 44.98 82.1336 44.604C81.5016 44.228 81.0056 43.708 80.6456 43.044C80.2856 42.38 80.1056 41.632 80.1056 40.8C80.1056 39.968 80.2856 39.22 80.6456 38.556C81.0056 37.892 81.5016 37.372 82.1336 36.996C82.7656 36.62 83.4776 36.432 84.2696 36.432C85.0616 36.432 85.7736 36.62 86.4056 36.996C87.0376 37.372 87.5336 37.892 87.8936 38.556C88.2536 39.22 88.4336 39.968 88.4336 40.8C88.4336 41.632 88.2536 42.38 87.8936 43.044C87.5336 43.708 87.0376 44.228 86.4056 44.604C85.7736 44.98 85.0616 45.168 84.2696 45.168ZM84.2696 44.064C84.8376 44.064 85.3376 43.928 85.7696 43.656C86.2096 43.376 86.5496 42.992 86.7896 42.504C87.0376 42.008 87.1616 41.44 87.1616 40.8C87.1616 40.16 87.0376 39.596 86.7896 39.108C86.5496 38.612 86.2096 38.228 85.7696 37.956C85.3376 37.676 84.8376 37.536 84.2696 37.536C83.7016 37.536 83.1976 37.676 82.7576 37.956C82.3256 38.228 81.9856 38.612 81.7376 39.108C81.4976 39.596 81.3776 40.16 81.3776 40.8C81.3776 41.44 81.4976 42.008 81.7376 42.504C81.9856 42.992 82.3256 43.376 82.7576 43.656C83.1976 43.928 83.7016 44.064 84.2696 44.064ZM89.1903 36.6H90.5223L93.3903 44.472L92.7903 44.46L95.7063 36.6H97.0023L93.7863 45H92.3223L89.1903 36.6Z" fill="#161717"/>
<path d="M170.704 112.168C169.896 112.168 169.188 111.988 168.58 111.628C167.98 111.268 167.512 110.76 167.176 110.104C166.848 109.448 166.684 108.684 166.684 107.812C166.684 106.972 166.852 106.22 167.188 105.556C167.524 104.892 168 104.372 168.616 103.996C169.232 103.62 169.94 103.432 170.74 103.432C171.276 103.432 171.78 103.536 172.252 103.744C172.732 103.944 173.144 104.228 173.488 104.596C173.832 104.956 174.088 105.368 174.256 105.832L173.092 106.264C172.924 105.776 172.644 105.372 172.252 105.052C171.868 104.724 171.364 104.56 170.74 104.56C170.18 104.56 169.688 104.692 169.264 104.956C168.848 105.22 168.524 105.596 168.292 106.084C168.068 106.564 167.956 107.124 167.956 107.764C167.956 108.404 168.064 108.972 168.28 109.468C168.496 109.964 168.812 110.352 169.228 110.632C169.652 110.904 170.156 111.04 170.74 111.04C171.348 111.04 171.856 110.88 172.264 110.56C172.672 110.232 172.96 109.796 173.128 109.252L174.244 109.648C174.092 110.128 173.844 110.56 173.5 110.944C173.156 111.328 172.74 111.628 172.252 111.844C171.772 112.06 171.256 112.168 170.704 112.168ZM178.162 112.144C177.618 112.144 177.13 112.012 176.698 111.748C176.274 111.484 175.942 111.116 175.702 110.644C175.47 110.164 175.354 109.62 175.354 109.012C175.354 108.396 175.47 107.852 175.702 107.38C175.942 106.9 176.274 106.528 176.698 106.264C177.13 105.992 177.618 105.856 178.162 105.856C178.714 105.856 179.202 105.992 179.626 106.264C180.058 106.528 180.39 106.9 180.622 107.38C180.862 107.852 180.982 108.396 180.982 109.012C180.982 109.62 180.862 110.164 180.622 110.644C180.39 111.116 180.058 111.484 179.626 111.748C179.202 112.012 178.714 112.144 178.162 112.144ZM178.162 111.148C178.498 111.148 178.79 111.064 179.038 110.896C179.286 110.72 179.474 110.472 179.602 110.152C179.738 109.832 179.806 109.452 179.806 109.012C179.806 108.34 179.658 107.812 179.362 107.428C179.074 107.044 178.674 106.852 178.162 106.852C177.826 106.852 177.534 106.94 177.286 107.116C177.046 107.284 176.858 107.532 176.722 107.86C176.594 108.18 176.53 108.564 176.53 109.012C176.53 109.676 176.674 110.2 176.962 110.584C177.25 110.96 177.65 111.148 178.162 111.148ZM184.49 112.144C184.074 112.144 183.718 112.052 183.422 111.868C183.134 111.684 182.914 111.42 182.762 111.076C182.61 110.724 182.534 110.304 182.534 109.816V106H183.686V109.42C183.686 110.012 183.778 110.44 183.962 110.704C184.154 110.968 184.45 111.1 184.85 111.1C185.138 111.1 185.414 111.016 185.678 110.848C185.942 110.672 186.154 110.424 186.314 110.104C186.482 109.784 186.566 109.416 186.566 109V106H187.718V112H186.578V110.236L186.746 110.464C186.522 110.936 186.21 111.336 185.81 111.664C185.41 111.984 184.97 112.144 184.49 112.144ZM189.754 106H190.894V107.776L190.702 107.608C190.95 107.064 191.278 106.636 191.686 106.324C192.102 106.012 192.546 105.856 193.018 105.856C193.474 105.856 193.862 105.992 194.182 106.264C194.51 106.528 194.758 106.896 194.926 107.368C195.102 107.832 195.19 108.368 195.19 108.976C195.19 109.584 195.102 110.128 194.926 110.608C194.758 111.08 194.506 111.452 194.17 111.724C193.842 111.988 193.45 112.12 192.994 112.12C192.682 112.12 192.382 112.052 192.094 111.916C191.814 111.772 191.554 111.568 191.314 111.304C191.074 111.04 190.87 110.72 190.702 110.344L190.906 110.188V114.04H189.754V106ZM192.658 111.1C192.93 111.1 193.17 111.02 193.378 110.86C193.586 110.7 193.746 110.46 193.858 110.14C193.97 109.82 194.026 109.432 194.026 108.976C194.026 108.296 193.906 107.776 193.666 107.416C193.426 107.056 193.098 106.876 192.682 106.876C192.426 106.876 192.154 106.964 191.866 107.14C191.586 107.316 191.346 107.564 191.146 107.884C190.954 108.204 190.858 108.572 190.858 108.988C190.858 109.396 190.95 109.764 191.134 110.092C191.326 110.412 191.562 110.66 191.842 110.836C192.13 111.012 192.402 111.1 192.658 111.1ZM199.232 112.144C198.688 112.144 198.2 112.012 197.768 111.748C197.344 111.484 197.012 111.116 196.772 110.644C196.54 110.164 196.424 109.62 196.424 109.012C196.424 108.396 196.54 107.852 196.772 107.38C197.012 106.9 197.344 106.528 197.768 106.264C198.2 105.992 198.688 105.856 199.232 105.856C199.784 105.856 200.272 105.992 200.696 106.264C201.128 106.528 201.46 106.9 201.692 107.38C201.932 107.852 202.052 108.396 202.052 109.012C202.052 109.62 201.932 110.164 201.692 110.644C201.46 111.116 201.128 111.484 200.696 111.748C200.272 112.012 199.784 112.144 199.232 112.144ZM199.232 111.148C199.568 111.148 199.86 111.064 200.108 110.896C200.356 110.72 200.544 110.472 200.672 110.152C200.808 109.832 200.876 109.452 200.876 109.012C200.876 108.34 200.728 107.812 200.432 107.428C200.144 107.044 199.744 106.852 199.232 106.852C198.896 106.852 198.604 106.94 198.356 107.116C198.116 107.284 197.928 107.532 197.792 107.86C197.664 108.18 197.6 108.564 197.6 109.012C197.6 109.676 197.744 110.2 198.032 110.584C198.32 110.96 198.72 111.148 199.232 111.148ZM203.676 106H204.816V107.764L204.648 107.536C204.872 107.064 205.184 106.668 205.584 106.348C205.984 106.02 206.424 105.856 206.904 105.856C207.32 105.856 207.672 105.948 207.96 106.132C208.256 106.316 208.48 106.584 208.632 106.936C208.784 107.28 208.86 107.696 208.86 108.184V112H207.708V108.58C207.708 107.988 207.612 107.56 207.42 107.296C207.236 107.032 206.944 106.9 206.544 106.9C206.256 106.9 205.98 106.988 205.716 107.164C205.452 107.332 205.236 107.576 205.068 107.896C204.908 108.216 204.828 108.584 204.828 109V112H203.676V106Z" fill="#828A93"/>
<path d="M278.704 112.168C277.896 112.168 277.188 111.988 276.58 111.628C275.98 111.268 275.512 110.76 275.176 110.104C274.848 109.448 274.684 108.684 274.684 107.812C274.684 106.972 274.852 106.22 275.188 105.556C275.524 104.892 276 104.372 276.616 103.996C277.232 103.62 277.94 103.432 278.74 103.432C279.276 103.432 279.78 103.536 280.252 103.744C280.732 103.944 281.144 104.228 281.488 104.596C281.832 104.956 282.088 105.368 282.256 105.832L281.092 106.264C280.924 105.776 280.644 105.372 280.252 105.052C279.868 104.724 279.364 104.56 278.74 104.56C278.18 104.56 277.688 104.692 277.264 104.956C276.848 105.22 276.524 105.596 276.292 106.084C276.068 106.564 275.956 107.124 275.956 107.764C275.956 108.404 276.064 108.972 276.28 109.468C276.496 109.964 276.812 110.352 277.228 110.632C277.652 110.904 278.156 111.04 278.74 111.04C279.348 111.04 279.856 110.88 280.264 110.56C280.672 110.232 280.96 109.796 281.128 109.252L282.244 109.648C282.092 110.128 281.844 110.56 281.5 110.944C281.156 111.328 280.74 111.628 280.252 111.844C279.772 112.06 279.256 112.168 278.704 112.168ZM286.162 112.144C285.618 112.144 285.13 112.012 284.698 111.748C284.274 111.484 283.942 111.116 283.702 110.644C283.47 110.164 283.354 109.62 283.354 109.012C283.354 108.396 283.47 107.852 283.702 107.38C283.942 106.9 284.274 106.528 284.698 106.264C285.13 105.992 285.618 105.856 286.162 105.856C286.714 105.856 287.202 105.992 287.626 106.264C288.058 106.528 288.39 106.9 288.622 107.38C288.862 107.852 288.982 108.396 288.982 109.012C288.982 109.62 288.862 110.164 288.622 110.644C288.39 111.116 288.058 111.484 287.626 111.748C287.202 112.012 286.714 112.144 286.162 112.144ZM286.162 111.148C286.498 111.148 286.79 111.064 287.038 110.896C287.286 110.72 287.474 110.472 287.602 110.152C287.738 109.832 287.806 109.452 287.806 109.012C287.806 108.34 287.658 107.812 287.362 107.428C287.074 107.044 286.674 106.852 286.162 106.852C285.826 106.852 285.534 106.94 285.286 107.116C285.046 107.284 284.858 107.532 284.722 107.86C284.594 108.18 284.53 108.564 284.53 109.012C284.53 109.676 284.674 110.2 284.962 110.584C285.25 110.96 285.65 111.148 286.162 111.148ZM292.49 112.144C292.074 112.144 291.718 112.052 291.422 111.868C291.134 111.684 290.914 111.42 290.762 111.076C290.61 110.724 290.534 110.304 290.534 109.816V106H291.686V109.42C291.686 110.012 291.778 110.44 291.962 110.704C292.154 110.968 292.45 111.1 292.85 111.1C293.138 111.1 293.414 111.016 293.678 110.848C293.942 110.672 294.154 110.424 294.314 110.104C294.482 109.784 294.566 109.416 294.566 109V106H295.718V112H294.578V110.236L294.746 110.464C294.522 110.936 294.21 111.336 293.81 111.664C293.41 111.984 292.97 112.144 292.49 112.144ZM297.754 106H298.894V107.776L298.702 107.608C298.95 107.064 299.278 106.636 299.686 106.324C300.102 106.012 300.546 105.856 301.018 105.856C301.474 105.856 301.862 105.992 302.182 106.264C302.51 106.528 302.758 106.896 302.926 107.368C303.102 107.832 303.19 108.368 303.19 108.976C303.19 109.584 303.102 110.128 302.926 110.608C302.758 111.08 302.506 111.452 302.17 111.724C301.842 111.988 301.45 112.12 300.994 112.12C300.682 112.12 300.382 112.052 300.094 111.916C299.814 111.772 299.554 111.568 299.314 111.304C299.074 111.04 298.87 110.72 298.702 110.344L298.906 110.188V114.04H297.754V106ZM300.658 111.1C300.93 111.1 301.17 111.02 301.378 110.86C301.586 110.7 301.746 110.46 301.858 110.14C301.97 109.82 302.026 109.432 302.026 108.976C302.026 108.296 301.906 107.776 301.666 107.416C301.426 107.056 301.098 106.876 300.682 106.876C300.426 106.876 300.154 106.964 299.866 107.14C299.586 107.316 299.346 107.564 299.146 107.884C298.954 108.204 298.858 108.572 298.858 108.988C298.858 109.396 298.95 109.764 299.134 110.092C299.326 110.412 299.562 110.66 299.842 110.836C300.13 111.012 300.402 111.1 300.658 111.1ZM307.232 112.144C306.688 112.144 306.2 112.012 305.768 111.748C305.344 111.484 305.012 111.116 304.772 110.644C304.54 110.164 304.424 109.62 304.424 109.012C304.424 108.396 304.54 107.852 304.772 107.38C305.012 106.9 305.344 106.528 305.768 106.264C306.2 105.992 306.688 105.856 307.232 105.856C307.784 105.856 308.272 105.992 308.696 106.264C309.128 106.528 309.46 106.9 309.692 107.38C309.932 107.852 310.052 108.396 310.052 109.012C310.052 109.62 309.932 110.164 309.692 110.644C309.46 111.116 309.128 111.484 308.696 111.748C308.272 112.012 307.784 112.144 307.232 112.144ZM307.232 111.148C307.568 111.148 307.86 111.064 308.108 110.896C308.356 110.72 308.544 110.472 308.672 110.152C308.808 109.832 308.876 109.452 308.876 109.012C308.876 108.34 308.728 107.812 308.432 107.428C308.144 107.044 307.744 106.852 307.232 106.852C306.896 106.852 306.604 106.94 306.356 107.116C306.116 107.284 305.928 107.532 305.792 107.86C305.664 108.18 305.6 108.564 305.6 109.012C305.6 109.676 305.744 110.2 306.032 110.584C306.32 110.96 306.72 111.148 307.232 111.148ZM311.676 106H312.816V107.764L312.648 107.536C312.872 107.064 313.184 106.668 313.584 106.348C313.984 106.02 314.424 105.856 314.904 105.856C315.32 105.856 315.672 105.948 315.96 106.132C316.256 106.316 316.48 106.584 316.632 106.936C316.784 107.28 316.86 107.696 316.86 108.184V112H315.708V108.58C315.708 107.988 315.612 107.56 315.42 107.296C315.236 107.032 314.944 106.9 314.544 106.9C314.256 106.9 313.98 106.988 313.716 107.164C313.452 107.332 313.236 107.576 313.068 107.896C312.908 108.216 312.828 108.584 312.828 109V112H311.676V106Z" fill="#828A93"/>
<path d="M233.48 23.728H230.264V22.6H237.92V23.728H234.704V31H233.48V23.728ZM239.994 31.144C239.45 31.144 238.962 31.012 238.53 30.748C238.106 30.484 237.774 30.116 237.534 29.644C237.302 29.164 237.186 28.62 237.186 28.012C237.186 27.396 237.302 26.852 237.534 26.38C237.774 25.9 238.106 25.528 238.53 25.264C238.962 24.992 239.45 24.856 239.994 24.856C240.546 24.856 241.034 24.992 241.458 25.264C241.89 25.528 242.222 25.9 242.454 26.38C242.694 26.852 242.814 27.396 242.814 28.012C242.814 28.62 242.694 29.164 242.454 29.644C242.222 30.116 241.89 30.484 241.458 30.748C241.034 31.012 240.546 31.144 239.994 31.144ZM239.994 30.148C240.33 30.148 240.622 30.064 240.87 29.896C241.118 29.72 241.306 29.472 241.434 29.152C241.57 28.832 241.638 28.452 241.638 28.012C241.638 27.34 241.49 26.812 241.194 26.428C240.906 26.044 240.506 25.852 239.994 25.852C239.658 25.852 239.366 25.94 239.118 26.116C238.878 26.284 238.69 26.532 238.554 26.86C238.426 27.18 238.362 27.564 238.362 28.012C238.362 28.676 238.506 29.2 238.794 29.584C239.082 29.96 239.482 30.148 239.994 30.148ZM246.25 31.12C245.794 31.12 245.398 30.988 245.062 30.724C244.734 30.452 244.482 30.08 244.306 29.608C244.138 29.128 244.054 28.584 244.054 27.976C244.054 27.368 244.138 26.832 244.306 26.368C244.482 25.896 244.73 25.528 245.05 25.264C245.378 24.992 245.77 24.856 246.226 24.856C246.538 24.856 246.838 24.928 247.126 25.072C247.414 25.208 247.678 25.408 247.918 25.672C248.158 25.928 248.362 26.236 248.53 26.596L248.338 26.764V22.6H249.49V31H248.35V29.176L248.542 29.332C248.294 29.9 247.966 30.34 247.558 30.652C247.158 30.964 246.722 31.12 246.25 31.12ZM246.586 30.1C246.842 30.1 247.11 30.012 247.39 29.836C247.678 29.66 247.914 29.412 248.098 29.092C248.29 28.764 248.386 28.396 248.386 27.988C248.386 27.572 248.286 27.204 248.086 26.884C247.894 26.564 247.654 26.316 247.366 26.14C247.086 25.964 246.818 25.876 246.562 25.876C246.29 25.876 246.05 25.956 245.842 26.116C245.642 26.276 245.486 26.512 245.374 26.824C245.27 27.136 245.218 27.52 245.218 27.976C245.218 28.664 245.342 29.192 245.59 29.56C245.838 29.92 246.17 30.1 246.586 30.1ZM253.148 31.144C252.556 31.144 252.072 30.98 251.696 30.652C251.328 30.324 251.144 29.88 251.144 29.32C251.144 28.712 251.34 28.256 251.732 27.952C252.132 27.648 252.692 27.488 253.412 27.472L255.176 27.448V27.268C255.176 26.788 255.056 26.428 254.816 26.188C254.576 25.948 254.236 25.828 253.796 25.828C253.356 25.828 253.016 25.928 252.776 26.128C252.544 26.32 252.412 26.544 252.38 26.8H251.192C251.232 26.472 251.356 26.16 251.564 25.864C251.78 25.56 252.08 25.316 252.464 25.132C252.848 24.948 253.296 24.856 253.808 24.856C254.36 24.856 254.82 24.964 255.188 25.18C255.556 25.388 255.828 25.672 256.004 26.032C256.18 26.392 256.268 26.804 256.268 27.268V29.608C256.276 29.896 256.296 30.156 256.328 30.388C256.36 30.62 256.412 30.824 256.484 31H255.356L255.344 30.928C255.296 30.656 255.26 30.4 255.236 30.16C255.212 29.92 255.208 29.632 255.224 29.296L255.356 29.716C255.196 30.148 254.928 30.496 254.552 30.76C254.176 31.016 253.708 31.144 253.148 31.144ZM253.424 30.184C253.832 30.184 254.188 30.088 254.492 29.896C254.796 29.696 255.024 29.42 255.176 29.068V28.408L253.424 28.432C253.064 28.44 252.784 28.512 252.584 28.648C252.384 28.776 252.284 28.984 252.284 29.272C252.284 29.56 252.388 29.784 252.596 29.944C252.812 30.104 253.088 30.184 253.424 30.184ZM257.345 32.008H258.473C258.801 32.008 259.037 31.968 259.181 31.888C259.333 31.816 259.457 31.652 259.553 31.396L259.757 30.88L259.817 31.468L257.441 25H258.677L260.453 30.34H260.033L261.809 25H263.021L260.501 31.876C260.389 32.172 260.257 32.404 260.105 32.572C259.953 32.74 259.761 32.86 259.529 32.932C259.305 33.004 259.025 33.04 258.689 33.04H257.345V32.008Z" fill="#161717"/>
<path d="M246.5 39V126.5" stroke="#CFD1D3" stroke-width="1.5" stroke-dasharray="2 2"/>
<path d="M386.704 112.168C385.896 112.168 385.188 111.988 384.58 111.628C383.98 111.268 383.512 110.76 383.176 110.104C382.848 109.448 382.684 108.684 382.684 107.812C382.684 106.972 382.852 106.22 383.188 105.556C383.524 104.892 384 104.372 384.616 103.996C385.232 103.62 385.94 103.432 386.74 103.432C387.276 103.432 387.78 103.536 388.252 103.744C388.732 103.944 389.144 104.228 389.488 104.596C389.832 104.956 390.088 105.368 390.256 105.832L389.092 106.264C388.924 105.776 388.644 105.372 388.252 105.052C387.868 104.724 387.364 104.56 386.74 104.56C386.18 104.56 385.688 104.692 385.264 104.956C384.848 105.22 384.524 105.596 384.292 106.084C384.068 106.564 383.956 107.124 383.956 107.764C383.956 108.404 384.064 108.972 384.28 109.468C384.496 109.964 384.812 110.352 385.228 110.632C385.652 110.904 386.156 111.04 386.74 111.04C387.348 111.04 387.856 110.88 388.264 110.56C388.672 110.232 388.96 109.796 389.128 109.252L390.244 109.648C390.092 110.128 389.844 110.56 389.5 110.944C389.156 111.328 388.74 111.628 388.252 111.844C387.772 112.06 387.256 112.168 386.704 112.168ZM394.162 112.144C393.618 112.144 393.13 112.012 392.698 111.748C392.274 111.484 391.942 111.116 391.702 110.644C391.47 110.164 391.354 109.62 391.354 109.012C391.354 108.396 391.47 107.852 391.702 107.38C391.942 106.9 392.274 106.528 392.698 106.264C393.13 105.992 393.618 105.856 394.162 105.856C394.714 105.856 395.202 105.992 395.626 106.264C396.058 106.528 396.39 106.9 396.622 107.38C396.862 107.852 396.982 108.396 396.982 109.012C396.982 109.62 396.862 110.164 396.622 110.644C396.39 111.116 396.058 111.484 395.626 111.748C395.202 112.012 394.714 112.144 394.162 112.144ZM394.162 111.148C394.498 111.148 394.79 111.064 395.038 110.896C395.286 110.72 395.474 110.472 395.602 110.152C395.738 109.832 395.806 109.452 395.806 109.012C395.806 108.34 395.658 107.812 395.362 107.428C395.074 107.044 394.674 106.852 394.162 106.852C393.826 106.852 393.534 106.94 393.286 107.116C393.046 107.284 392.858 107.532 392.722 107.86C392.594 108.18 392.53 108.564 392.53 109.012C392.53 109.676 392.674 110.2 392.962 110.584C393.25 110.96 393.65 111.148 394.162 111.148ZM400.49 112.144C400.074 112.144 399.718 112.052 399.422 111.868C399.134 111.684 398.914 111.42 398.762 111.076C398.61 110.724 398.534 110.304 398.534 109.816V106H399.686V109.42C399.686 110.012 399.778 110.44 399.962 110.704C400.154 110.968 400.45 111.1 400.85 111.1C401.138 111.1 401.414 111.016 401.678 110.848C401.942 110.672 402.154 110.424 402.314 110.104C402.482 109.784 402.566 109.416 402.566 109V106H403.718V112H402.578V110.236L402.746 110.464C402.522 110.936 402.21 111.336 401.81 111.664C401.41 111.984 400.97 112.144 400.49 112.144ZM405.754 106H406.894V107.776L406.702 107.608C406.95 107.064 407.278 106.636 407.686 106.324C408.102 106.012 408.546 105.856 409.018 105.856C409.474 105.856 409.862 105.992 410.182 106.264C410.51 106.528 410.758 106.896 410.926 107.368C411.102 107.832 411.19 108.368 411.19 108.976C411.19 109.584 411.102 110.128 410.926 110.608C410.758 111.08 410.506 111.452 410.17 111.724C409.842 111.988 409.45 112.12 408.994 112.12C408.682 112.12 408.382 112.052 408.094 111.916C407.814 111.772 407.554 111.568 407.314 111.304C407.074 111.04 406.87 110.72 406.702 110.344L406.906 110.188V114.04H405.754V106ZM408.658 111.1C408.93 111.1 409.17 111.02 409.378 110.86C409.586 110.7 409.746 110.46 409.858 110.14C409.97 109.82 410.026 109.432 410.026 108.976C410.026 108.296 409.906 107.776 409.666 107.416C409.426 107.056 409.098 106.876 408.682 106.876C408.426 106.876 408.154 106.964 407.866 107.14C407.586 107.316 407.346 107.564 407.146 107.884C406.954 108.204 406.858 108.572 406.858 108.988C406.858 109.396 406.95 109.764 407.134 110.092C407.326 110.412 407.562 110.66 407.842 110.836C408.13 111.012 408.402 111.1 408.658 111.1ZM415.232 112.144C414.688 112.144 414.2 112.012 413.768 111.748C413.344 111.484 413.012 111.116 412.772 110.644C412.54 110.164 412.424 109.62 412.424 109.012C412.424 108.396 412.54 107.852 412.772 107.38C413.012 106.9 413.344 106.528 413.768 106.264C414.2 105.992 414.688 105.856 415.232 105.856C415.784 105.856 416.272 105.992 416.696 106.264C417.128 106.528 417.46 106.9 417.692 107.38C417.932 107.852 418.052 108.396 418.052 109.012C418.052 109.62 417.932 110.164 417.692 110.644C417.46 111.116 417.128 111.484 416.696 111.748C416.272 112.012 415.784 112.144 415.232 112.144ZM415.232 111.148C415.568 111.148 415.86 111.064 416.108 110.896C416.356 110.72 416.544 110.472 416.672 110.152C416.808 109.832 416.876 109.452 416.876 109.012C416.876 108.34 416.728 107.812 416.432 107.428C416.144 107.044 415.744 106.852 415.232 106.852C414.896 106.852 414.604 106.94 414.356 107.116C414.116 107.284 413.928 107.532 413.792 107.86C413.664 108.18 413.6 108.564 413.6 109.012C413.6 109.676 413.744 110.2 414.032 110.584C414.32 110.96 414.72 111.148 415.232 111.148ZM419.676 106H420.816V107.764L420.648 107.536C420.872 107.064 421.184 106.668 421.584 106.348C421.984 106.02 422.424 105.856 422.904 105.856C423.32 105.856 423.672 105.948 423.96 106.132C424.256 106.316 424.48 106.584 424.632 106.936C424.784 107.28 424.86 107.696 424.86 108.184V112H423.708V108.58C423.708 107.988 423.612 107.56 423.42 107.296C423.236 107.032 422.944 106.9 422.544 106.9C422.256 106.9 421.98 106.988 421.716 107.164C421.452 107.332 421.236 107.576 421.068 107.896C420.908 108.216 420.828 108.584 420.828 109V112H419.676V106Z" fill="#828A93"/>
<path d="M486.855 110.6H488.847L491.403 117.92H490.935L493.455 110.6H495.507V119H494.307V111.176L494.415 111.2L491.703 119H490.587L487.887 111.164L488.019 111.14V119H486.855V110.6ZM499.263 119.144C498.671 119.144 498.187 118.98 497.811 118.652C497.443 118.324 497.259 117.88 497.259 117.32C497.259 116.712 497.455 116.256 497.847 115.952C498.247 115.648 498.807 115.488 499.527 115.472L501.291 115.448V115.268C501.291 114.788 501.171 114.428 500.931 114.188C500.691 113.948 500.351 113.828 499.911 113.828C499.471 113.828 499.131 113.928 498.891 114.128C498.659 114.32 498.527 114.544 498.495 114.8H497.307C497.347 114.472 497.471 114.16 497.679 113.864C497.895 113.56 498.195 113.316 498.579 113.132C498.963 112.948 499.411 112.856 499.923 112.856C500.475 112.856 500.935 112.964 501.303 113.18C501.671 113.388 501.943 113.672 502.119 114.032C502.295 114.392 502.383 114.804 502.383 115.268V117.608C502.391 117.896 502.411 118.156 502.443 118.388C502.475 118.62 502.527 118.824 502.599 119H501.471L501.459 118.928C501.411 118.656 501.375 118.4 501.351 118.16C501.327 117.92 501.323 117.632 501.339 117.296L501.471 117.716C501.311 118.148 501.043 118.496 500.667 118.76C500.291 119.016 499.823 119.144 499.263 119.144ZM499.539 118.184C499.947 118.184 500.303 118.088 500.607 117.896C500.911 117.696 501.139 117.42 501.291 117.068V116.408L499.539 116.432C499.179 116.44 498.899 116.512 498.699 116.648C498.499 116.776 498.399 116.984 498.399 117.272C498.399 117.56 498.503 117.784 498.711 117.944C498.927 118.104 499.203 118.184 499.539 118.184ZM506.4 119C505.848 119 505.432 118.888 505.152 118.664C504.88 118.432 504.744 118.076 504.744 117.596V111.608L505.896 110.84V117.344C505.896 117.576 505.948 117.744 506.052 117.848C506.164 117.952 506.368 118.004 506.664 118.004H507.588V119H506.4ZM503.568 113H507.252V113.96H503.568V113ZM510.8 119.144C510.384 119.144 510.028 119.052 509.732 118.868C509.444 118.684 509.224 118.42 509.072 118.076C508.92 117.724 508.844 117.304 508.844 116.816V113H509.996V116.42C509.996 117.012 510.088 117.44 510.272 117.704C510.464 117.968 510.76 118.1 511.16 118.1C511.448 118.1 511.724 118.016 511.988 117.848C512.252 117.672 512.464 117.424 512.624 117.104C512.792 116.784 512.876 116.416 512.876 116V113H514.028V119H512.888V117.236L513.056 117.464C512.832 117.936 512.52 118.336 512.12 118.664C511.72 118.984 511.28 119.144 510.8 119.144ZM516.065 113H517.205V115.136L517.049 115.004C517.217 114.396 517.469 113.888 517.805 113.48C518.141 113.064 518.537 112.856 518.993 112.856C519.409 112.856 519.709 113.028 519.893 113.372C520.077 113.708 520.169 114.148 520.169 114.692C520.169 114.716 520.169 114.756 520.169 114.812C520.169 114.86 520.165 114.92 520.157 114.992H519.173V114.836C519.173 114.556 519.121 114.344 519.017 114.2C518.913 114.048 518.761 113.972 518.561 113.972C518.329 113.972 518.109 114.072 517.901 114.272C517.693 114.464 517.525 114.728 517.397 115.064C517.277 115.4 517.217 115.772 517.217 116.18V119H516.065V113ZM521.417 110.6H522.845V112.04H521.417V110.6ZM521.549 113H522.701V119H521.549V113ZM526.873 119C526.321 119 525.905 118.888 525.625 118.664C525.353 118.432 525.217 118.076 525.217 117.596V111.608L526.369 110.84V117.344C526.369 117.576 526.421 117.744 526.525 117.848C526.637 117.952 526.841 118.004 527.137 118.004H528.061V119H526.873ZM524.041 113H527.725V113.96H524.041V113ZM528.573 120.008H529.701C530.029 120.008 530.265 119.968 530.409 119.888C530.561 119.816 530.685 119.652 530.781 119.396L530.985 118.88L531.045 119.468L528.669 113H529.905L531.681 118.34H531.261L533.037 113H534.249L531.729 119.876C531.617 120.172 531.485 120.404 531.333 120.572C531.181 120.74 530.989 120.86 530.757 120.932C530.533 121.004 530.253 121.04 529.917 121.04H528.573V120.008ZM500.328 135.12C499.872 135.12 499.476 134.988 499.14 134.724C498.812 134.452 498.56 134.08 498.384 133.608C498.216 133.128 498.132 132.584 498.132 131.976C498.132 131.368 498.216 130.832 498.384 130.368C498.56 129.896 498.808 129.528 499.128 129.264C499.456 128.992 499.848 128.856 500.304 128.856C500.616 128.856 500.916 128.928 501.204 129.072C501.492 129.208 501.756 129.408 501.996 129.672C502.236 129.928 502.44 130.236 502.608 130.596L502.416 130.764V126.6H503.568V135H502.428V133.176L502.62 133.332C502.372 133.9 502.044 134.34 501.636 134.652C501.236 134.964 500.8 135.12 500.328 135.12ZM500.664 134.1C500.92 134.1 501.188 134.012 501.468 133.836C501.756 133.66 501.992 133.412 502.176 133.092C502.368 132.764 502.464 132.396 502.464 131.988C502.464 131.572 502.364 131.204 502.164 130.884C501.972 130.564 501.732 130.316 501.444 130.14C501.164 129.964 500.896 129.876 500.64 129.876C500.368 129.876 500.128 129.956 499.92 130.116C499.72 130.276 499.564 130.512 499.452 130.824C499.348 131.136 499.296 131.52 499.296 131.976C499.296 132.664 499.42 133.192 499.668 133.56C499.916 133.92 500.248 134.1 500.664 134.1ZM507.226 135.144C506.634 135.144 506.15 134.98 505.774 134.652C505.406 134.324 505.222 133.88 505.222 133.32C505.222 132.712 505.418 132.256 505.81 131.952C506.21 131.648 506.77 131.488 507.49 131.472L509.254 131.448V131.268C509.254 130.788 509.134 130.428 508.894 130.188C508.654 129.948 508.314 129.828 507.874 129.828C507.434 129.828 507.094 129.928 506.854 130.128C506.622 130.32 506.49 130.544 506.458 130.8H505.27C505.31 130.472 505.434 130.16 505.642 129.864C505.858 129.56 506.158 129.316 506.542 129.132C506.926 128.948 507.374 128.856 507.886 128.856C508.438 128.856 508.898 128.964 509.266 129.18C509.634 129.388 509.906 129.672 510.082 130.032C510.258 130.392 510.346 130.804 510.346 131.268V133.608C510.354 133.896 510.374 134.156 510.406 134.388C510.438 134.62 510.49 134.824 510.562 135H509.434L509.422 134.928C509.374 134.656 509.338 134.4 509.314 134.16C509.29 133.92 509.286 133.632 509.302 133.296L509.434 133.716C509.274 134.148 509.006 134.496 508.63 134.76C508.254 135.016 507.786 135.144 507.226 135.144ZM507.502 134.184C507.91 134.184 508.266 134.088 508.57 133.896C508.874 133.696 509.102 133.42 509.254 133.068V132.408L507.502 132.432C507.142 132.44 506.862 132.512 506.662 132.648C506.462 132.776 506.362 132.984 506.362 133.272C506.362 133.56 506.466 133.784 506.674 133.944C506.89 134.104 507.166 134.184 507.502 134.184ZM514.363 135C513.811 135 513.395 134.888 513.115 134.664C512.843 134.432 512.707 134.076 512.707 133.596V127.608L513.859 126.84V133.344C513.859 133.576 513.911 133.744 514.015 133.848C514.127 133.952 514.331 134.004 514.627 134.004H515.551V135H514.363ZM511.531 129H515.215V129.96H511.531V129ZM519.281 135.144C518.705 135.144 518.197 135.016 517.757 134.76C517.317 134.496 516.977 134.128 516.737 133.656C516.497 133.176 516.377 132.628 516.377 132.012C516.377 131.396 516.497 130.848 516.737 130.368C516.977 129.888 517.309 129.516 517.733 129.252C518.165 128.988 518.661 128.856 519.221 128.856C519.749 128.856 520.213 128.976 520.613 129.216C521.021 129.456 521.337 129.8 521.561 130.248C521.785 130.688 521.897 131.204 521.897 131.796C521.897 131.82 521.897 131.86 521.897 131.916C521.897 131.964 521.893 132.024 521.885 132.096H517.097V131.136H521.213L520.673 131.616C520.673 131.568 520.673 131.52 520.673 131.472C520.673 131.424 520.673 131.376 520.673 131.328C520.673 130.864 520.537 130.496 520.265 130.224C520.001 129.952 519.653 129.816 519.221 129.816C518.933 129.816 518.669 129.88 518.429 130.008C518.197 130.136 518.005 130.316 517.853 130.548C517.709 130.78 517.629 131.04 517.613 131.328C517.605 131.376 517.597 131.428 517.589 131.484C517.581 131.532 517.573 131.584 517.565 131.64C517.557 131.696 517.549 131.748 517.541 131.796C517.533 131.844 517.525 131.896 517.517 131.952C517.517 132.64 517.677 133.18 517.997 133.572C518.317 133.956 518.749 134.148 519.293 134.148C519.653 134.148 519.953 134.064 520.193 133.896C520.441 133.728 520.613 133.496 520.709 133.2H521.849C521.729 133.768 521.445 134.236 520.997 134.604C520.549 134.964 519.977 135.144 519.281 135.144Z" fill="#161717"/>
<circle cx="75" cy="82" r="17.4375" fill="white"/>
<circle cx="75" cy="82" r="17.4375" stroke="#161717" stroke-width="1.125"/>
<circle cx="75" cy="82" r="17.4375" stroke="url(#paint0_linear_451_95533)" stroke-width="1.125"/>
<g clip-path="url(#clip0_451_95533)">
<path d="M79.6898 84.7214C82.2852 81.8054 83.3775 79.4519 83.7859 77.7261C84.0222 76.7283 84.0267 75.9486 83.9659 75.403C83.9424 75.189 83.9018 74.9772 83.8444 74.7696C83.8199 74.6818 83.7906 74.5955 83.7567 74.5109V74.5098C83.6745 74.3253 83.5677 74.2465 83.3607 74.1779C83.3013 74.1589 83.2412 74.142 83.1807 74.1273C82.9699 74.0761 82.7555 74.0412 82.5394 74.0226C81.9882 73.9731 81.2007 73.9889 80.1994 74.2341C78.4714 74.6549 76.1292 75.745 73.2683 78.2886L70.5683 78.5564H70.5615C69.9128 78.6287 69.308 78.92 68.847 79.3821L66.1673 82.0664C66.0824 82.1519 66.0265 82.2618 66.0073 82.3807C65.9882 82.4996 66.0068 82.6216 66.0606 82.7294C66.1143 82.8371 66.2006 82.9254 66.3071 82.9816C66.4136 83.0378 66.5351 83.0593 66.6544 83.0429L68.7874 82.738C69.1024 82.693 69.4534 82.7526 69.8618 82.8865C70.1228 82.972 70.3534 83.0665 70.5987 83.1655L70.827 83.2589C71.0475 84.1769 71.5695 85.0364 72.2614 85.7283C72.951 86.419 73.8094 86.9433 74.7263 87.1649L74.8185 87.3921C74.9187 87.6374 75.0132 87.8691 75.0987 88.1313C75.2314 88.5396 75.2922 88.8918 75.2472 89.2068L74.9423 91.3443C74.9262 91.4634 74.9478 91.5845 75.004 91.6908C75.0602 91.797 75.1482 91.883 75.2557 91.9367C75.3633 91.9904 75.4849 92.0091 75.6036 91.9902C75.7223 91.9713 75.8321 91.9158 75.9177 91.8314L78.5974 89.1471C79.0587 88.6859 79.3489 88.0795 79.4209 87.4304L79.6909 84.7214H79.6898ZM79.8135 80.56C78.9169 81.46 77.6423 81.6411 76.9695 80.9673C76.2968 80.2923 76.479 79.0176 77.3757 78.1188C78.2734 77.2199 79.5469 77.0388 80.2197 77.7126C80.8935 78.3865 80.7113 79.6611 79.8147 80.56H79.8135Z" fill="#161717"/>
<path d="M79.6898 84.7214C82.2852 81.8054 83.3775 79.4519 83.7859 77.7261C84.0222 76.7283 84.0267 75.9486 83.9659 75.403C83.9424 75.189 83.9018 74.9772 83.8444 74.7696C83.8199 74.6818 83.7906 74.5955 83.7567 74.5109V74.5098C83.6745 74.3253 83.5677 74.2465 83.3607 74.1779C83.3013 74.1589 83.2412 74.142 83.1807 74.1273C82.9699 74.0761 82.7555 74.0412 82.5394 74.0226C81.9882 73.9731 81.2007 73.9889 80.1994 74.2341C78.4714 74.6549 76.1292 75.745 73.2683 78.2886L70.5683 78.5564H70.5615C69.9128 78.6287 69.308 78.92 68.847 79.3821L66.1673 82.0664C66.0824 82.1519 66.0265 82.2618 66.0073 82.3807C65.9882 82.4996 66.0068 82.6216 66.0606 82.7294C66.1143 82.8371 66.2006 82.9254 66.3071 82.9816C66.4136 83.0378 66.5351 83.0593 66.6544 83.0429L68.7874 82.738C69.1024 82.693 69.4534 82.7526 69.8618 82.8865C70.1228 82.972 70.3534 83.0665 70.5987 83.1655L70.827 83.2589C71.0475 84.1769 71.5695 85.0364 72.2614 85.7283C72.951 86.419 73.8094 86.9433 74.7263 87.1649L74.8185 87.3921C74.9187 87.6374 75.0132 87.8691 75.0987 88.1313C75.2314 88.5396 75.2922 88.8918 75.2472 89.2068L74.9423 91.3443C74.9262 91.4634 74.9478 91.5845 75.004 91.6908C75.0602 91.797 75.1482 91.883 75.2557 91.9367C75.3633 91.9904 75.4849 92.0091 75.6036 91.9902C75.7223 91.9713 75.8321 91.9158 75.9177 91.8314L78.5974 89.1471C79.0587 88.6859 79.3489 88.0795 79.4209 87.4304L79.6909 84.7214H79.6898ZM79.8135 80.56C78.9169 81.46 77.6423 81.6411 76.9695 80.9673C76.2968 80.2923 76.479 79.0176 77.3757 78.1188C78.2734 77.2199 79.5469 77.0388 80.2197 77.7126C80.8935 78.3865 80.7113 79.6611 79.8147 80.56H79.8135Z" fill="url(#paint1_linear_451_95533)"/>
<path d="M71.8575 86.1363C72.455 86.741 73.139 87.2536 73.887 87.6573C72.6293 88.7902 68.3419 89.9388 68.2013 89.7982C68.0595 89.6553 69.0304 85.0856 70.2701 83.9707C70.6594 84.747 71.2118 85.4895 71.8575 86.1363Z" fill="#161717"/>
<path d="M71.8575 86.1363C72.455 86.741 73.139 87.2536 73.887 87.6573C72.6293 88.7902 68.3419 89.9388 68.2013 89.7982C68.0595 89.6553 69.0304 85.0856 70.2701 83.9707C70.6594 84.747 71.2118 85.4895 71.8575 86.1363Z" fill="url(#paint2_linear_451_95533)"/>
</g>
<circle cx="511" cy="82" r="17.4375" fill="white"/>
<circle cx="511" cy="82" r="17.4375" stroke="#161717" stroke-width="1.125"/>
<circle cx="511" cy="82" r="17.4375" stroke="url(#paint3_linear_451_95533)" stroke-width="1.125"/>
<path d="M515 76.2493L514.75 74.9993C514.656 74.5202 514.229 74.166 513.729 74.166H506.25C505.677 74.166 505.208 74.6348 505.208 75.2077V90.8327C505.208 91.4056 505.677 91.8743 506.25 91.8743C506.823 91.8743 507.292 91.4056 507.292 90.8327V84.5827H513.125L513.375 85.8327C513.469 86.3223 513.896 86.666 514.396 86.666H519.792C520.365 86.666 520.833 86.1973 520.833 85.6243V77.291C520.833 76.7181 520.365 76.2493 519.792 76.2493H515Z" fill="#161717"/>
<path d="M515 76.2493L514.75 74.9993C514.656 74.5202 514.229 74.166 513.729 74.166H506.25C505.677 74.166 505.208 74.6348 505.208 75.2077V90.8327C505.208 91.4056 505.677 91.8743 506.25 91.8743C506.823 91.8743 507.292 91.4056 507.292 90.8327V84.5827H513.125L513.375 85.8327C513.469 86.3223 513.896 86.666 514.396 86.666H519.792C520.365 86.666 520.833 86.1973 520.833 85.6243V77.291C520.833 76.7181 520.365 76.2493 519.792 76.2493H515Z" fill="url(#paint4_linear_451_95533)"/>
<rect x="188" y="74.7528" width="10.9354" height="10.9354" rx="1.59688" transform="rotate(45 188 74.7528)" fill="white"/>
<rect x="188" y="74.7528" width="10.9354" height="10.9354" rx="1.59688" transform="rotate(45 188 74.7528)" stroke="#161717" stroke-width="1.06459"/>
<rect x="188" y="74.7528" width="10.9354" height="10.9354" rx="1.59688" transform="rotate(45 188 74.7528)" stroke="url(#paint5_linear_451_95533)" stroke-width="1.06459"/>
<rect x="188" y="76.7528" width="6.93542" height="6.93542" rx="1.59688" transform="rotate(45 188 76.7528)" fill="#161717"/>
<rect x="188" y="76.7528" width="6.93542" height="6.93542" rx="1.59688" transform="rotate(45 188 76.7528)" fill="url(#paint6_linear_451_95533)"/>
<rect x="188" y="76.7528" width="6.93542" height="6.93542" rx="1.59688" transform="rotate(45 188 76.7528)" stroke="#161717" stroke-width="1.06459"/>
<rect x="188" y="76.7528" width="6.93542" height="6.93542" rx="1.59688" transform="rotate(45 188 76.7528)" stroke="url(#paint7_linear_451_95533)" stroke-width="1.06459"/>
<rect x="295" y="74.7528" width="10.9354" height="10.9354" rx="1.59688" transform="rotate(45 295 74.7528)" fill="white" stroke="#A5A9AE" stroke-width="1.06459"/>
<rect x="295" y="76.7528" width="6.93542" height="6.93542" rx="1.59688" transform="rotate(45 295 76.7528)" fill="#A5A9AE" stroke="#A5A9AE" stroke-width="1.06459"/>
<rect x="403" y="74.7528" width="10.9354" height="10.9354" rx="1.59688" transform="rotate(45 403 74.7528)" fill="white" stroke="#A5A9AE" stroke-width="1.06459"/>
<rect x="403" y="76.7528" width="6.93542" height="6.93542" rx="1.59688" transform="rotate(45 403 76.7528)" fill="#A5A9AE" stroke="#A5A9AE" stroke-width="1.06459"/>
<rect x="126" y="22" width="124" height="42" rx="4" fill="#F7F7F7"/>
<path d="M188.878 69.5636C188.679 69.7938 188.321 69.7938 188.122 69.5636L182.721 63.3273C182.441 63.0035 182.671 62.5 183.099 62.5H193.901C194.329 62.5 194.559 63.0035 194.279 63.3273L188.878 69.5636Z" fill="#F7F7F7"/>
<path d="M139.94 38.14C139.287 38.14 138.71 37.99 138.21 37.69C137.71 37.39 137.32 36.97 137.04 36.43C136.767 35.8833 136.63 35.2467 136.63 34.52C136.63 33.82 136.767 33.1933 137.04 32.64C137.313 32.0867 137.703 31.6533 138.21 31.34C138.717 31.02 139.3 30.86 139.96 30.86C140.407 30.86 140.823 30.9433 141.21 31.11C141.603 31.27 141.94 31.5 142.22 31.8C142.507 32.1 142.723 32.4433 142.87 32.83L142.06 33.15C141.9 32.7033 141.65 32.34 141.31 32.06C140.97 31.7733 140.52 31.63 139.96 31.63C139.467 31.63 139.033 31.7467 138.66 31.98C138.293 32.2133 138.007 32.5467 137.8 32.98C137.6 33.4133 137.5 33.92 137.5 34.5C137.5 35.06 137.6 35.56 137.8 36C138 36.4333 138.287 36.77 138.66 37.01C139.033 37.25 139.47 37.37 139.97 37.37C140.51 37.37 140.96 37.23 141.32 36.95C141.68 36.6633 141.937 36.2733 142.09 35.78L142.85 36.04C142.717 36.4533 142.51 36.82 142.23 37.14C141.957 37.4533 141.623 37.7 141.23 37.88C140.837 38.0533 140.407 38.14 139.94 38.14ZM146.164 38.12C145.724 38.12 145.331 38.01 144.984 37.79C144.638 37.5633 144.364 37.25 144.164 36.85C143.971 36.45 143.874 36.0033 143.874 35.51C143.874 35.0033 143.971 34.5533 144.164 34.16C144.364 33.76 144.638 33.4467 144.984 33.22C145.331 32.9933 145.724 32.88 146.164 32.88C146.604 32.88 146.998 32.9933 147.344 33.22C147.698 33.4467 147.971 33.76 148.164 34.16C148.364 34.5533 148.464 35.0033 148.464 35.51C148.464 36.01 148.364 36.46 148.164 36.86C147.971 37.2533 147.698 37.5633 147.344 37.79C146.998 38.01 146.604 38.12 146.164 38.12ZM146.164 37.42C146.458 37.42 146.714 37.3433 146.934 37.19C147.161 37.03 147.334 36.8067 147.454 36.52C147.574 36.2333 147.634 35.8967 147.634 35.51C147.634 34.9167 147.501 34.4467 147.234 34.1C146.974 33.7533 146.618 33.58 146.164 33.58C145.864 33.58 145.604 33.66 145.384 33.82C145.164 33.9733 144.994 34.1967 144.874 34.49C144.761 34.7767 144.704 35.1167 144.704 35.51C144.704 36.09 144.834 36.5533 145.094 36.9C145.354 37.2467 145.711 37.42 146.164 37.42ZM151.448 38.13C151.121 38.13 150.838 38.0567 150.598 37.91C150.358 37.7567 150.174 37.54 150.048 37.26C149.921 36.9733 149.858 36.6333 149.858 36.24V33.01H150.658V35.95C150.658 36.47 150.741 36.8433 150.908 37.07C151.081 37.29 151.344 37.4 151.698 37.4C151.964 37.4 152.211 37.3233 152.438 37.17C152.671 37.0167 152.858 36.8033 152.998 36.53C153.138 36.25 153.208 35.93 153.208 35.57V33.01H154.018V38H153.218V36.56L153.348 36.76C153.128 37.18 152.858 37.5133 152.538 37.76C152.218 38.0067 151.854 38.13 151.448 38.13ZM155.826 33.01H156.626V34.5L156.466 34.37C156.659 33.93 156.936 33.5733 157.296 33.3C157.656 33.02 158.036 32.88 158.436 32.88C158.796 32.88 159.109 32.99 159.376 33.21C159.649 33.43 159.856 33.7367 159.996 34.13C160.143 34.5167 160.216 34.9633 160.216 35.47C160.216 35.9767 160.143 36.43 159.996 36.83C159.849 37.2233 159.636 37.5333 159.356 37.76C159.083 37.98 158.766 38.09 158.406 38.09C158.139 38.09 157.883 38.03 157.636 37.91C157.389 37.7833 157.163 37.6067 156.956 37.38C156.756 37.1467 156.593 36.8767 156.466 36.57L156.626 36.43V39.7H155.826V33.01ZM158.186 37.37C158.433 37.37 158.646 37.2967 158.826 37.15C159.013 37.0033 159.153 36.79 159.246 36.51C159.346 36.2233 159.396 35.88 159.396 35.48C159.396 34.8733 159.293 34.41 159.086 34.09C158.879 33.7633 158.586 33.6 158.206 33.6C157.953 33.6 157.699 33.6833 157.446 33.85C157.199 34.0167 156.996 34.2467 156.836 34.54C156.676 34.8267 156.596 35.1433 156.596 35.49C156.596 35.83 156.673 36.1467 156.826 36.44C156.979 36.7267 157.179 36.9533 157.426 37.12C157.673 37.2867 157.926 37.37 158.186 37.37ZM163.635 38.12C163.195 38.12 162.802 38.01 162.455 37.79C162.108 37.5633 161.835 37.25 161.635 36.85C161.442 36.45 161.345 36.0033 161.345 35.51C161.345 35.0033 161.442 34.5533 161.635 34.16C161.835 33.76 162.108 33.4467 162.455 33.22C162.802 32.9933 163.195 32.88 163.635 32.88C164.075 32.88 164.468 32.9933 164.815 33.22C165.168 33.4467 165.442 33.76 165.635 34.16C165.835 34.5533 165.935 35.0033 165.935 35.51C165.935 36.01 165.835 36.46 165.635 36.86C165.442 37.2533 165.168 37.5633 164.815 37.79C164.468 38.01 164.075 38.12 163.635 38.12ZM163.635 37.42C163.928 37.42 164.185 37.3433 164.405 37.19C164.632 37.03 164.805 36.8067 164.925 36.52C165.045 36.2333 165.105 35.8967 165.105 35.51C165.105 34.9167 164.972 34.4467 164.705 34.1C164.445 33.7533 164.088 33.58 163.635 33.58C163.335 33.58 163.075 33.66 162.855 33.82C162.635 33.9733 162.465 34.1967 162.345 34.49C162.232 34.7767 162.175 35.1167 162.175 35.51C162.175 36.09 162.305 36.5533 162.565 36.9C162.825 37.2467 163.182 37.42 163.635 37.42ZM167.389 33.01H168.189V34.45L168.049 34.25C168.269 33.83 168.539 33.4967 168.859 33.25C169.185 33.0033 169.552 32.88 169.959 32.88C170.285 32.88 170.565 32.9533 170.799 33.1C171.039 33.2467 171.222 33.4633 171.349 33.75C171.482 34.03 171.549 34.3667 171.549 34.76V38H170.739V35.06C170.739 34.54 170.652 34.17 170.479 33.95C170.312 33.7233 170.052 33.61 169.699 33.61C169.439 33.61 169.192 33.6867 168.959 33.84C168.725 33.9867 168.539 34.2 168.399 34.48C168.259 34.76 168.189 35.08 168.189 35.44V38H167.389V33.01ZM176.182 31H179.232C179.705 31 180.108 31.0833 180.442 31.25C180.782 31.41 181.038 31.64 181.212 31.94C181.392 32.24 181.482 32.5867 181.482 32.98C181.482 33.38 181.385 33.7367 181.192 34.05C181.005 34.3567 180.732 34.5967 180.372 34.77C180.018 34.9433 179.598 35.03 179.112 35.03H177.032V38H176.182V31ZM179.022 34.27C179.535 34.27 179.928 34.1533 180.202 33.92C180.475 33.6867 180.612 33.3733 180.612 32.98C180.612 32.5933 180.482 32.29 180.222 32.07C179.968 31.85 179.582 31.74 179.062 31.74H177.032V34.27H179.022ZM182.73 33.01H183.53V34.84L183.36 34.73C183.54 34.1433 183.77 33.69 184.05 33.37C184.337 33.0433 184.65 32.88 184.99 32.88C185.324 32.88 185.567 33.0233 185.72 33.31C185.874 33.59 185.95 33.9567 185.95 34.41C185.95 34.43 185.95 34.46 185.95 34.5C185.95 34.5333 185.947 34.5733 185.94 34.62H185.25V34.49C185.25 34.21 185.204 34.0033 185.11 33.87C185.024 33.73 184.89 33.66 184.71 33.66C184.51 33.66 184.317 33.75 184.13 33.93C183.95 34.11 183.804 34.3533 183.69 34.66C183.584 34.9667 183.53 35.3033 183.53 35.67V38H182.73V33.01ZM189.25 38.12C188.81 38.12 188.417 38.01 188.07 37.79C187.723 37.5633 187.45 37.25 187.25 36.85C187.057 36.45 186.96 36.0033 186.96 35.51C186.96 35.0033 187.057 34.5533 187.25 34.16C187.45 33.76 187.723 33.4467 188.07 33.22C188.417 32.9933 188.81 32.88 189.25 32.88C189.69 32.88 190.083 32.9933 190.43 33.22C190.783 33.4467 191.057 33.76 191.25 34.16C191.45 34.5533 191.55 35.0033 191.55 35.51C191.55 36.01 191.45 36.46 191.25 36.86C191.057 37.2533 190.783 37.5633 190.43 37.79C190.083 38.01 189.69 38.12 189.25 38.12ZM189.25 37.42C189.543 37.42 189.8 37.3433 190.02 37.19C190.247 37.03 190.42 36.8067 190.54 36.52C190.66 36.2333 190.72 35.8967 190.72 35.51C190.72 34.9167 190.587 34.4467 190.32 34.1C190.06 33.7533 189.703 33.58 189.25 33.58C188.95 33.58 188.69 33.66 188.47 33.82C188.25 33.9733 188.08 34.1967 187.96 34.49C187.847 34.7767 187.79 35.1167 187.79 35.51C187.79 36.09 187.92 36.5533 188.18 36.9C188.44 37.2467 188.797 37.42 189.25 37.42ZM193.305 32.27C193.305 31.8567 193.412 31.5433 193.625 31.33C193.845 31.11 194.162 31 194.575 31H195.645V31.7H194.645C194.459 31.7 194.322 31.75 194.235 31.85C194.149 31.95 194.105 32.0867 194.105 32.26V38H193.305V32.27ZM192.325 33.01H195.225V33.68H192.325V33.01ZM196.302 31H197.322V32.05H196.302V31ZM196.412 33.01H197.212V38H196.412V33.01ZM200.719 38C200.272 38 199.939 37.9133 199.719 37.74C199.499 37.56 199.389 37.2767 199.389 36.89V31.84L200.199 31.24V36.74C200.199 36.94 200.242 37.0833 200.329 37.17C200.422 37.2567 200.599 37.3 200.859 37.3H201.589V38H200.719ZM198.419 33.01H201.309V33.68H198.419V33.01ZM206.404 39.15C205.998 38.3967 205.691 37.66 205.484 36.94C205.284 36.2133 205.184 35.48 205.184 34.74C205.184 33.9867 205.284 33.25 205.484 32.53C205.691 31.8033 205.998 31.11 206.404 30.45H207.114C206.734 31.0967 206.451 31.7733 206.264 32.48C206.078 33.1867 205.984 33.93 205.984 34.71C205.984 35.47 206.074 36.21 206.254 36.93C206.434 37.65 206.721 38.39 207.114 39.15H206.404ZM210.597 38.12C210.064 38.12 209.604 37.9733 209.217 37.68C208.831 37.3867 208.537 36.9733 208.337 36.44C208.137 35.9 208.037 35.2633 208.037 34.53C208.037 33.7833 208.137 33.1367 208.337 32.59C208.544 32.0367 208.837 31.6133 209.217 31.32C209.604 31.0267 210.061 30.88 210.587 30.88C211.121 30.88 211.577 31.0267 211.957 31.32C212.344 31.6133 212.637 32.0333 212.837 32.58C213.044 33.1267 213.147 33.7767 213.147 34.53C213.147 35.2633 213.044 35.9 212.837 36.44C212.637 36.98 212.347 37.3967 211.967 37.69C211.587 37.9767 211.131 38.12 210.597 38.12ZM210.597 37.37C210.944 37.37 211.244 37.26 211.497 37.04C211.757 36.8133 211.954 36.4833 212.087 36.05C212.227 35.6167 212.297 35.0967 212.297 34.49C212.297 33.5767 212.144 32.87 211.837 32.37C211.537 31.87 211.124 31.62 210.597 31.62C210.237 31.62 209.931 31.7333 209.677 31.96C209.424 32.18 209.227 32.5067 209.087 32.94C208.954 33.3667 208.887 33.8833 208.887 34.49C208.887 35.4033 209.037 36.1133 209.337 36.62C209.637 37.12 210.057 37.37 210.597 37.37ZM214.29 36.97H215.28V38H214.29V36.97ZM217.544 31.79L217.684 31.96C217.604 32.12 217.457 32.2833 217.244 32.45C217.031 32.6167 216.791 32.76 216.524 32.88C216.257 32.9933 216.004 33.0633 215.764 33.09V32.33C216.197 32.2433 216.594 32.0667 216.954 31.8C217.314 31.5333 217.547 31.2667 217.654 31H218.374V38H217.544V31.79ZM222.677 38.12C222.144 38.12 221.684 37.9733 221.297 37.68C220.911 37.3867 220.617 36.9733 220.417 36.44C220.217 35.9 220.117 35.2633 220.117 34.53C220.117 33.7833 220.217 33.1367 220.417 32.59C220.624 32.0367 220.917 31.6133 221.297 31.32C221.684 31.0267 222.141 30.88 222.667 30.88C223.201 30.88 223.657 31.0267 224.037 31.32C224.424 31.6133 224.717 32.0333 224.917 32.58C225.124 33.1267 225.227 33.7767 225.227 34.53C225.227 35.2633 225.124 35.9 224.917 36.44C224.717 36.98 224.427 37.3967 224.047 37.69C223.667 37.9767 223.211 38.12 222.677 38.12ZM222.677 37.37C223.024 37.37 223.324 37.26 223.577 37.04C223.837 36.8133 224.034 36.4833 224.167 36.05C224.307 35.6167 224.377 35.0967 224.377 34.49C224.377 33.5767 224.224 32.87 223.917 32.37C223.617 31.87 223.204 31.62 222.677 31.62C222.317 31.62 222.011 31.7333 221.757 31.96C221.504 32.18 221.307 32.5067 221.167 32.94C221.034 33.3667 220.967 33.8833 220.967 34.49C220.967 35.4033 221.117 36.1133 221.417 36.62C221.717 37.12 222.137 37.37 222.677 37.37ZM234.067 31H234.737L231.407 38H230.737L234.067 31ZM230.487 34.7C230.194 34.7 229.934 34.62 229.707 34.46C229.487 34.2933 229.317 34.0667 229.197 33.78C229.077 33.4867 229.017 33.16 229.017 32.8C229.017 32.4333 229.077 32.1067 229.197 31.82C229.317 31.5267 229.487 31.2967 229.707 31.13C229.934 30.9633 230.194 30.88 230.487 30.88C230.787 30.88 231.051 30.9633 231.277 31.13C231.504 31.2967 231.677 31.5267 231.797 31.82C231.924 32.1067 231.987 32.4333 231.987 32.8C231.987 33.16 231.924 33.4867 231.797 33.78C231.677 34.0667 231.504 34.2933 231.277 34.46C231.051 34.62 230.787 34.7 230.487 34.7ZM230.487 34.12C230.661 34.12 230.811 34.0667 230.937 33.96C231.064 33.8533 231.157 33.7033 231.217 33.51C231.284 33.31 231.317 33.07 231.317 32.79C231.317 32.37 231.244 32.0433 231.097 31.81C230.957 31.57 230.754 31.45 230.487 31.45C230.321 31.45 230.174 31.5033 230.047 31.61C229.927 31.7167 229.837 31.87 229.777 32.07C229.717 32.27 229.687 32.51 229.687 32.79C229.687 33.21 229.757 33.5367 229.897 33.77C230.037 34.0033 230.234 34.12 230.487 34.12ZM234.977 38.12C234.684 38.12 234.424 38.04 234.197 37.88C233.977 37.7133 233.807 37.4867 233.687 37.2C233.567 36.9067 233.507 36.58 233.507 36.22C233.507 35.8533 233.567 35.5267 233.687 35.24C233.807 34.9467 233.977 34.7167 234.197 34.55C234.424 34.3833 234.684 34.3 234.977 34.3C235.277 34.3 235.541 34.3833 235.767 34.55C235.994 34.7167 236.167 34.9467 236.287 35.24C236.414 35.5267 236.477 35.8533 236.477 36.22C236.477 36.58 236.414 36.9067 236.287 37.2C236.167 37.4867 235.994 37.7133 235.767 37.88C235.541 38.04 235.277 38.12 234.977 38.12ZM234.977 37.54C235.151 37.54 235.301 37.4867 235.427 37.38C235.554 37.2733 235.647 37.12 235.707 36.92C235.774 36.72 235.807 36.4833 235.807 36.21C235.807 35.79 235.734 35.4633 235.587 35.23C235.447 34.99 235.244 34.87 234.977 34.87C234.811 34.87 234.664 34.9233 234.537 35.03C234.417 35.1367 234.327 35.29 234.267 35.49C234.207 35.69 234.177 35.93 234.177 36.21C234.177 36.63 234.247 36.9567 234.387 37.19C234.527 37.4233 234.724 37.54 234.977 37.54ZM238.009 39.15C238.416 38.3967 238.719 37.66 238.919 36.94C239.126 36.2133 239.229 35.48 239.229 34.74C239.229 33.9867 239.126 33.25 238.919 32.53C238.719 31.8033 238.416 31.11 238.009 30.45H237.299C237.679 31.0967 237.962 31.7733 238.149 32.48C238.336 33.1867 238.429 33.93 238.429 34.71C238.429 35.47 238.339 36.21 238.159 36.93C237.979 37.65 237.692 38.39 237.299 39.15H238.009Z" fill="#677079"/>
<path d="M161.735 54.144C161.135 54.144 160.599 54.036 160.127 53.82C159.663 53.596 159.291 53.288 159.011 52.896C158.731 52.496 158.567 52.032 158.519 51.504H159.695C159.775 52.016 159.987 52.412 160.331 52.692C160.675 52.964 161.147 53.1 161.747 53.1C162.299 53.1 162.739 52.968 163.067 52.704C163.403 52.432 163.571 52.064 163.571 51.6C163.571 51.152 163.411 50.812 163.091 50.58C162.771 50.348 162.363 50.232 161.867 50.232H161.183V49.128H161.747C162.227 49.128 162.615 49.008 162.911 48.768C163.207 48.528 163.355 48.204 163.355 47.796C163.355 47.396 163.207 47.08 162.911 46.848C162.623 46.616 162.239 46.5 161.759 46.5C161.239 46.5 160.819 46.632 160.499 46.896C160.187 47.16 160.003 47.516 159.947 47.964H158.771C158.795 47.492 158.939 47.068 159.203 46.692C159.475 46.308 159.835 46.008 160.283 45.792C160.731 45.568 161.231 45.456 161.783 45.456C162.303 45.456 162.775 45.556 163.199 45.756C163.623 45.948 163.955 46.216 164.195 46.56C164.435 46.896 164.555 47.276 164.555 47.7C164.555 48.092 164.451 48.432 164.243 48.72C164.043 49 163.775 49.22 163.439 49.38C163.103 49.532 162.739 49.624 162.347 49.656L162.659 49.548C163.115 49.596 163.503 49.716 163.823 49.908C164.143 50.1 164.383 50.344 164.543 50.64C164.711 50.936 164.795 51.268 164.795 51.636C164.795 52.156 164.655 52.608 164.375 52.992C164.095 53.368 163.723 53.656 163.259 53.856C162.795 54.048 162.287 54.144 161.735 54.144ZM169.282 54.144C168.634 54.144 168.07 53.972 167.59 53.628C167.11 53.276 166.742 52.776 166.486 52.128C166.23 51.48 166.102 50.716 166.102 49.836C166.102 48.94 166.23 48.164 166.486 47.508C166.742 46.844 167.11 46.336 167.59 45.984C168.07 45.632 168.634 45.456 169.282 45.456C169.93 45.456 170.49 45.632 170.962 45.984C171.442 46.336 171.81 46.844 172.066 47.508C172.322 48.164 172.45 48.94 172.45 49.836C172.45 50.716 172.322 51.48 172.066 52.128C171.81 52.776 171.442 53.276 170.962 53.628C170.49 53.972 169.93 54.144 169.282 54.144ZM169.282 53.064C169.682 53.064 170.026 52.936 170.314 52.68C170.61 52.424 170.834 52.052 170.986 51.564C171.146 51.068 171.226 50.476 171.226 49.788C171.226 48.756 171.054 47.956 170.71 47.388C170.366 46.82 169.89 46.536 169.282 46.536C168.874 46.536 168.522 46.664 168.226 46.92C167.938 47.168 167.714 47.536 167.554 48.024C167.402 48.512 167.326 49.1 167.326 49.788C167.326 50.828 167.498 51.636 167.842 52.212C168.186 52.78 168.666 53.064 169.282 53.064ZM176.967 54.144C176.319 54.144 175.755 53.972 175.275 53.628C174.795 53.276 174.427 52.776 174.171 52.128C173.915 51.48 173.787 50.716 173.787 49.836C173.787 48.94 173.915 48.164 174.171 47.508C174.427 46.844 174.795 46.336 175.275 45.984C175.755 45.632 176.319 45.456 176.967 45.456C177.615 45.456 178.175 45.632 178.647 45.984C179.127 46.336 179.495 46.844 179.751 47.508C180.007 48.164 180.135 48.94 180.135 49.836C180.135 50.716 180.007 51.48 179.751 52.128C179.495 52.776 179.127 53.276 178.647 53.628C178.175 53.972 177.615 54.144 176.967 54.144ZM176.967 53.064C177.367 53.064 177.711 52.936 177.999 52.68C178.295 52.424 178.519 52.052 178.671 51.564C178.831 51.068 178.911 50.476 178.911 49.788C178.911 48.756 178.739 47.956 178.395 47.388C178.051 46.82 177.575 46.536 176.967 46.536C176.559 46.536 176.207 46.664 175.911 46.92C175.623 47.168 175.399 47.536 175.239 48.024C175.087 48.512 175.011 49.1 175.011 49.788C175.011 50.828 175.183 51.636 175.527 52.212C175.871 52.78 176.351 53.064 176.967 53.064ZM188.307 54.168C187.603 54.168 186.991 54.04 186.471 53.784C185.959 53.528 185.567 53.16 185.295 52.68C185.023 52.192 184.887 51.604 184.887 50.916V45.6H186.111V50.844C186.111 51.332 186.199 51.736 186.375 52.056C186.551 52.376 186.799 52.612 187.119 52.764C187.447 52.916 187.843 52.992 188.307 52.992C189.011 52.992 189.551 52.816 189.927 52.464C190.311 52.112 190.503 51.572 190.503 50.844V45.6H191.727V50.916C191.727 51.604 191.591 52.192 191.319 52.68C191.047 53.16 190.651 53.528 190.131 53.784C189.619 54.04 189.011 54.168 188.307 54.168ZM197.293 54.168C196.669 54.168 196.085 54.088 195.541 53.928C195.005 53.768 194.533 53.568 194.125 53.328C193.725 53.08 193.377 52.82 193.081 52.548L193.813 51.576C194.333 52.024 194.873 52.38 195.433 52.644C196.001 52.908 196.625 53.04 197.305 53.04C197.945 53.04 198.469 52.924 198.877 52.692C199.293 52.452 199.501 52.096 199.501 51.624C199.501 51.312 199.389 51.068 199.165 50.892C198.941 50.716 198.577 50.576 198.073 50.472L196.405 50.136C195.477 49.952 194.789 49.684 194.341 49.332C193.901 48.98 193.681 48.496 193.681 47.88C193.681 47.384 193.809 46.952 194.065 46.584C194.329 46.216 194.705 45.932 195.193 45.732C195.689 45.532 196.281 45.432 196.969 45.432C197.641 45.432 198.253 45.532 198.805 45.732C199.365 45.924 199.945 46.188 200.545 46.524L200.065 47.556C199.513 47.236 198.985 46.992 198.481 46.824C197.985 46.648 197.453 46.56 196.885 46.56C196.237 46.56 195.753 46.668 195.433 46.884C195.113 47.092 194.953 47.38 194.953 47.748C194.953 48.068 195.097 48.324 195.385 48.516C195.681 48.7 196.125 48.848 196.717 48.96L198.325 49.272C199.141 49.432 199.753 49.688 200.161 50.04C200.577 50.392 200.785 50.884 200.785 51.516C200.785 52.076 200.641 52.556 200.353 52.956C200.065 53.356 199.657 53.66 199.129 53.868C198.601 54.068 197.989 54.168 197.293 54.168ZM202.461 45.6H205.785C206.521 45.6 207.181 45.76 207.765 46.08C208.357 46.4 208.825 46.876 209.169 47.508C209.513 48.132 209.685 48.888 209.685 49.776C209.685 50.672 209.509 51.44 209.157 52.08C208.805 52.712 208.321 53.192 207.705 53.52C207.089 53.84 206.389 54 205.605 54H202.461V45.6ZM205.365 52.896C205.965 52.896 206.493 52.784 206.949 52.56C207.405 52.336 207.761 51.996 208.017 51.54C208.281 51.076 208.413 50.5 208.413 49.812C208.413 49.164 208.297 48.604 208.065 48.132C207.841 47.66 207.521 47.3 207.105 47.052C206.689 46.804 206.205 46.68 205.653 46.68H203.685V52.896H205.365ZM214.95 54.168C214.142 54.168 213.434 53.988 212.826 53.628C212.226 53.268 211.758 52.76 211.422 52.104C211.094 51.448 210.93 50.684 210.93 49.812C210.93 48.972 211.098 48.22 211.434 47.556C211.77 46.892 212.246 46.372 212.862 45.996C213.478 45.62 214.186 45.432 214.986 45.432C215.522 45.432 216.026 45.536 216.498 45.744C216.978 45.944 217.39 46.228 217.734 46.596C218.078 46.956 218.334 47.368 218.502 47.832L217.338 48.264C217.17 47.776 216.89 47.372 216.498 47.052C216.114 46.724 215.61 46.56 214.986 46.56C214.426 46.56 213.934 46.692 213.51 46.956C213.094 47.22 212.77 47.596 212.538 48.084C212.314 48.564 212.202 49.124 212.202 49.764C212.202 50.404 212.31 50.972 212.526 51.468C212.742 51.964 213.058 52.352 213.474 52.632C213.898 52.904 214.402 53.04 214.986 53.04C215.594 53.04 216.102 52.88 216.51 52.56C216.918 52.232 217.206 51.796 217.374 51.252L218.49 51.648C218.338 52.128 218.09 52.56 217.746 52.944C217.402 53.328 216.986 53.628 216.498 53.844C216.018 54.06 215.502 54.168 214.95 54.168Z" fill="#161717"/>
<path d="M161.735 54.144C161.135 54.144 160.599 54.036 160.127 53.82C159.663 53.596 159.291 53.288 159.011 52.896C158.731 52.496 158.567 52.032 158.519 51.504H159.695C159.775 52.016 159.987 52.412 160.331 52.692C160.675 52.964 161.147 53.1 161.747 53.1C162.299 53.1 162.739 52.968 163.067 52.704C163.403 52.432 163.571 52.064 163.571 51.6C163.571 51.152 163.411 50.812 163.091 50.58C162.771 50.348 162.363 50.232 161.867 50.232H161.183V49.128H161.747C162.227 49.128 162.615 49.008 162.911 48.768C163.207 48.528 163.355 48.204 163.355 47.796C163.355 47.396 163.207 47.08 162.911 46.848C162.623 46.616 162.239 46.5 161.759 46.5C161.239 46.5 160.819 46.632 160.499 46.896C160.187 47.16 160.003 47.516 159.947 47.964H158.771C158.795 47.492 158.939 47.068 159.203 46.692C159.475 46.308 159.835 46.008 160.283 45.792C160.731 45.568 161.231 45.456 161.783 45.456C162.303 45.456 162.775 45.556 163.199 45.756C163.623 45.948 163.955 46.216 164.195 46.56C164.435 46.896 164.555 47.276 164.555 47.7C164.555 48.092 164.451 48.432 164.243 48.72C164.043 49 163.775 49.22 163.439 49.38C163.103 49.532 162.739 49.624 162.347 49.656L162.659 49.548C163.115 49.596 163.503 49.716 163.823 49.908C164.143 50.1 164.383 50.344 164.543 50.64C164.711 50.936 164.795 51.268 164.795 51.636C164.795 52.156 164.655 52.608 164.375 52.992C164.095 53.368 163.723 53.656 163.259 53.856C162.795 54.048 162.287 54.144 161.735 54.144ZM169.282 54.144C168.634 54.144 168.07 53.972 167.59 53.628C167.11 53.276 166.742 52.776 166.486 52.128C166.23 51.48 166.102 50.716 166.102 49.836C166.102 48.94 166.23 48.164 166.486 47.508C166.742 46.844 167.11 46.336 167.59 45.984C168.07 45.632 168.634 45.456 169.282 45.456C169.93 45.456 170.49 45.632 170.962 45.984C171.442 46.336 171.81 46.844 172.066 47.508C172.322 48.164 172.45 48.94 172.45 49.836C172.45 50.716 172.322 51.48 172.066 52.128C171.81 52.776 171.442 53.276 170.962 53.628C170.49 53.972 169.93 54.144 169.282 54.144ZM169.282 53.064C169.682 53.064 170.026 52.936 170.314 52.68C170.61 52.424 170.834 52.052 170.986 51.564C171.146 51.068 171.226 50.476 171.226 49.788C171.226 48.756 171.054 47.956 170.71 47.388C170.366 46.82 169.89 46.536 169.282 46.536C168.874 46.536 168.522 46.664 168.226 46.92C167.938 47.168 167.714 47.536 167.554 48.024C167.402 48.512 167.326 49.1 167.326 49.788C167.326 50.828 167.498 51.636 167.842 52.212C168.186 52.78 168.666 53.064 169.282 53.064ZM176.967 54.144C176.319 54.144 175.755 53.972 175.275 53.628C174.795 53.276 174.427 52.776 174.171 52.128C173.915 51.48 173.787 50.716 173.787 49.836C173.787 48.94 173.915 48.164 174.171 47.508C174.427 46.844 174.795 46.336 175.275 45.984C175.755 45.632 176.319 45.456 176.967 45.456C177.615 45.456 178.175 45.632 178.647 45.984C179.127 46.336 179.495 46.844 179.751 47.508C180.007 48.164 180.135 48.94 180.135 49.836C180.135 50.716 180.007 51.48 179.751 52.128C179.495 52.776 179.127 53.276 178.647 53.628C178.175 53.972 177.615 54.144 176.967 54.144ZM176.967 53.064C177.367 53.064 177.711 52.936 177.999 52.68C178.295 52.424 178.519 52.052 178.671 51.564C178.831 51.068 178.911 50.476 178.911 49.788C178.911 48.756 178.739 47.956 178.395 47.388C178.051 46.82 177.575 46.536 176.967 46.536C176.559 46.536 176.207 46.664 175.911 46.92C175.623 47.168 175.399 47.536 175.239 48.024C175.087 48.512 175.011 49.1 175.011 49.788C175.011 50.828 175.183 51.636 175.527 52.212C175.871 52.78 176.351 53.064 176.967 53.064ZM188.307 54.168C187.603 54.168 186.991 54.04 186.471 53.784C185.959 53.528 185.567 53.16 185.295 52.68C185.023 52.192 184.887 51.604 184.887 50.916V45.6H186.111V50.844C186.111 51.332 186.199 51.736 186.375 52.056C186.551 52.376 186.799 52.612 187.119 52.764C187.447 52.916 187.843 52.992 188.307 52.992C189.011 52.992 189.551 52.816 189.927 52.464C190.311 52.112 190.503 51.572 190.503 50.844V45.6H191.727V50.916C191.727 51.604 191.591 52.192 191.319 52.68C191.047 53.16 190.651 53.528 190.131 53.784C189.619 54.04 189.011 54.168 188.307 54.168ZM197.293 54.168C196.669 54.168 196.085 54.088 195.541 53.928C195.005 53.768 194.533 53.568 194.125 53.328C193.725 53.08 193.377 52.82 193.081 52.548L193.813 51.576C194.333 52.024 194.873 52.38 195.433 52.644C196.001 52.908 196.625 53.04 197.305 53.04C197.945 53.04 198.469 52.924 198.877 52.692C199.293 52.452 199.501 52.096 199.501 51.624C199.501 51.312 199.389 51.068 199.165 50.892C198.941 50.716 198.577 50.576 198.073 50.472L196.405 50.136C195.477 49.952 194.789 49.684 194.341 49.332C193.901 48.98 193.681 48.496 193.681 47.88C193.681 47.384 193.809 46.952 194.065 46.584C194.329 46.216 194.705 45.932 195.193 45.732C195.689 45.532 196.281 45.432 196.969 45.432C197.641 45.432 198.253 45.532 198.805 45.732C199.365 45.924 199.945 46.188 200.545 46.524L200.065 47.556C199.513 47.236 198.985 46.992 198.481 46.824C197.985 46.648 197.453 46.56 196.885 46.56C196.237 46.56 195.753 46.668 195.433 46.884C195.113 47.092 194.953 47.38 194.953 47.748C194.953 48.068 195.097 48.324 195.385 48.516C195.681 48.7 196.125 48.848 196.717 48.96L198.325 49.272C199.141 49.432 199.753 49.688 200.161 50.04C200.577 50.392 200.785 50.884 200.785 51.516C200.785 52.076 200.641 52.556 200.353 52.956C200.065 53.356 199.657 53.66 199.129 53.868C198.601 54.068 197.989 54.168 197.293 54.168ZM202.461 45.6H205.785C206.521 45.6 207.181 45.76 207.765 46.08C208.357 46.4 208.825 46.876 209.169 47.508C209.513 48.132 209.685 48.888 209.685 49.776C209.685 50.672 209.509 51.44 209.157 52.08C208.805 52.712 208.321 53.192 207.705 53.52C207.089 53.84 206.389 54 205.605 54H202.461V45.6ZM205.365 52.896C205.965 52.896 206.493 52.784 206.949 52.56C207.405 52.336 207.761 51.996 208.017 51.54C208.281 51.076 208.413 50.5 208.413 49.812C208.413 49.164 208.297 48.604 208.065 48.132C207.841 47.66 207.521 47.3 207.105 47.052C206.689 46.804 206.205 46.68 205.653 46.68H203.685V52.896H205.365ZM214.95 54.168C214.142 54.168 213.434 53.988 212.826 53.628C212.226 53.268 211.758 52.76 211.422 52.104C211.094 51.448 210.93 50.684 210.93 49.812C210.93 48.972 211.098 48.22 211.434 47.556C211.77 46.892 212.246 46.372 212.862 45.996C213.478 45.62 214.186 45.432 214.986 45.432C215.522 45.432 216.026 45.536 216.498 45.744C216.978 45.944 217.39 46.228 217.734 46.596C218.078 46.956 218.334 47.368 218.502 47.832L217.338 48.264C217.17 47.776 216.89 47.372 216.498 47.052C216.114 46.724 215.61 46.56 214.986 46.56C214.426 46.56 213.934 46.692 213.51 46.956C213.094 47.22 212.77 47.596 212.538 48.084C212.314 48.564 212.202 49.124 212.202 49.764C212.202 50.404 212.31 50.972 212.526 51.468C212.742 51.964 213.058 52.352 213.474 52.632C213.898 52.904 214.402 53.04 214.986 53.04C215.594 53.04 216.102 52.88 216.51 52.56C216.918 52.232 217.206 51.796 217.374 51.252L218.49 51.648C218.338 52.128 218.09 52.56 217.746 52.944C217.402 53.328 216.986 53.628 216.498 53.844C216.018 54.06 215.502 54.168 214.95 54.168Z" fill="url(#paint8_linear_451_95533)"/>
<defs>
<linearGradient id="paint0_linear_451_95533" x1="77.4904" y1="73.8372" x2="56.3289" y2="74.6537" gradientUnits="userSpaceOnUse">
<stop stop-color="#11CB79"/>
<stop offset="0.441316" stop-color="#11A692"/>
<stop offset="1" stop-color="#002366"/>
</linearGradient>
<linearGradient id="paint1_linear_451_95533" x1="76.2445" y1="78.9179" x2="65.6645" y2="79.3261" gradientUnits="userSpaceOnUse">
<stop stop-color="#11CB79"/>
<stop offset="0.441316" stop-color="#11A692"/>
<stop offset="1" stop-color="#002366"/>
</linearGradient>
<linearGradient id="paint2_linear_451_95533" x1="71.4315" y1="85.5663" x2="68.081" y2="85.6925" gradientUnits="userSpaceOnUse">
<stop stop-color="#11CB79"/>
<stop offset="0.441316" stop-color="#11A692"/>
<stop offset="1" stop-color="#002366"/>
</linearGradient>
<linearGradient id="paint3_linear_451_95533" x1="513.49" y1="73.8372" x2="492.329" y2="74.6537" gradientUnits="userSpaceOnUse">
<stop stop-color="#11CB79"/>
<stop offset="0.441316" stop-color="#11A692"/>
<stop offset="1" stop-color="#002366"/>
</linearGradient>
<linearGradient id="paint4_linear_451_95533" x1="519.792" y1="75.7285" x2="500.959" y2="74.1555" gradientUnits="userSpaceOnUse">
<stop stop-color="#11CB79"/>
<stop offset="0.441316" stop-color="#11A692"/>
<stop offset="1" stop-color="#002366"/>
</linearGradient>
<linearGradient id="paint5_linear_451_95533" x1="194.83" y1="77.2791" x2="186.004" y2="86.5788" gradientUnits="userSpaceOnUse">
<stop stop-color="#11CB79"/>
<stop offset="0.441316" stop-color="#11A692"/>
<stop offset="1" stop-color="#002366"/>
</linearGradient>
<linearGradient id="paint6_linear_451_95533" x1="192.553" y1="78.186" x2="187.76" y2="85.1249" gradientUnits="userSpaceOnUse">
<stop stop-color="#11CB79"/>
<stop offset="0.441316" stop-color="#11A692"/>
<stop offset="1" stop-color="#002366"/>
</linearGradient>
<linearGradient id="paint7_linear_451_95533" x1="192.553" y1="78.186" x2="188.193" y2="85.4806" gradientUnits="userSpaceOnUse">
<stop stop-color="#11CB79"/>
<stop offset="0.441316" stop-color="#11A692"/>
<stop offset="1" stop-color="#002366"/>
</linearGradient>
<linearGradient id="paint8_linear_451_95533" x1="192.289" y1="47.2791" x2="157.185" y2="54.277" gradientUnits="userSpaceOnUse">
<stop stop-color="#11CB79"/>
<stop offset="0.441316" stop-color="#11A692"/>
<stop offset="1" stop-color="#002366"/>
</linearGradient>
<clipPath id="clip0_451_95533">
<rect width="18" height="18" fill="white" transform="translate(66 74)"/>
</clipPath>
</defs>
</svg>
