<svg width="16" height="17" viewBox="0 0 16 17" fill="none" xmlns="http://www.w3.org/2000/svg">
<path fill-rule="evenodd" clip-rule="evenodd" d="M15 8.29688C15 12.1629 11.866 15.2969 8 15.2969C4.13401 15.2969 1 12.1629 1 8.29688C1 4.43088 4.13401 1.29688 8 1.29688C11.866 1.29688 15 4.43088 15 8.29688ZM16 8.29688C16 12.7152 12.4183 16.2969 8 16.2969C3.58172 16.2969 0 12.7152 0 8.29688C0 3.8786 3.58172 0.296875 8 0.296875C12.4183 0.296875 16 3.8786 16 8.29688ZM9.66217 12.3984C9.93831 12.3984 10.1622 12.1746 10.1622 11.8984C10.1622 11.6223 9.93831 11.3984 9.66217 11.3984H5.77837L11.9551 5.22169C12.1504 5.02643 12.1504 4.70984 11.9551 4.51458C11.7599 4.31932 11.4433 4.31932 11.248 4.51458L5.07126 10.6913V6.5651C5.07126 6.28896 4.8474 6.0651 4.57126 6.0651C4.29512 6.0651 4.07126 6.28896 4.07126 6.5651V11.8984C4.07126 12.1746 4.29512 12.3984 4.57126 12.3984H9.66217Z" fill="#161717"/>
<path fill-rule="evenodd" clip-rule="evenodd" d="M15 8.29688C15 12.1629 11.866 15.2969 8 15.2969C4.13401 15.2969 1 12.1629 1 8.29688C1 4.43088 4.13401 1.29688 8 1.29688C11.866 1.29688 15 4.43088 15 8.29688ZM16 8.29688C16 12.7152 12.4183 16.2969 8 16.2969C3.58172 16.2969 0 12.7152 0 8.29688C0 3.8786 3.58172 0.296875 8 0.296875C12.4183 0.296875 16 3.8786 16 8.29688ZM9.66217 12.3984C9.93831 12.3984 10.1622 12.1746 10.1622 11.8984C10.1622 11.6223 9.93831 11.3984 9.66217 11.3984H5.77837L11.9551 5.22169C12.1504 5.02643 12.1504 4.70984 11.9551 4.51458C11.7599 4.31932 11.4433 4.31932 11.248 4.51458L5.07126 10.6913V6.5651C5.07126 6.28896 4.8474 6.0651 4.57126 6.0651C4.29512 6.0651 4.07126 6.28896 4.07126 6.5651V11.8984C4.07126 12.1746 4.29512 12.3984 4.57126 12.3984H9.66217Z" fill="url(#paint0_linear_1005_13068)"/>
<defs>
<linearGradient id="paint0_linear_1005_13068" x1="9.10683" y1="4.66896" x2="-0.298258" y2="5.03185" gradientUnits="userSpaceOnUse">
<stop stop-color="#11CB79"/>
<stop offset="0.441316" stop-color="#11A692"/>
<stop offset="1" stop-color="#002366"/>
</linearGradient>
</defs>
</svg>
